<?xml version="1.0" encoding="UTF-8" standalone="no"?>
<!-- Created with Inkscape (http://www.inkscape.org/) -->

<svg
   xmlns:dc="http://purl.org/dc/elements/1.1/"
   xmlns:cc="http://creativecommons.org/ns#"
   xmlns:rdf="http://www.w3.org/1999/02/22-rdf-syntax-ns#"
   xmlns:svg="http://www.w3.org/2000/svg"
   xmlns="http://www.w3.org/2000/svg"
   version="1.1"
   width="242.93883"
   height="300"
   id="svg2">
  <defs
     id="defs4">
    <clipPath
       id="clipPath3093">
      <path
         d="m 2.4308,0.25 590.138,0 0,840.5 -590.138,0 0,-840.5 z"
         id="path3095" />
    </clipPath>
    <clipPath
       id="clipPath3087">
      <path
         d="m 523.422,158.514 -449.161,0 0,304.855 449.161,0 0,-304.855 z"
         id="path3089" />
    </clipPath>
    <clipPath
       id="clipPath3039">
      <path
         d="m 2.4308,0.25 590.138,0 0,840.5 -590.138,0 0,-840.5 z"
         id="path3041" />
    </clipPath>
    <clipPath
       id="clipPath3011">
      <path
         d="m 73.963,818.217 36.362,0 0,-44.231 -36.362,0 0,44.231 z"
         id="path3013" />
    </clipPath>
    <clipPath
       id="clipPath3011-4">
      <path
         d="m 73.963,818.217 36.362,0 0,-44.231 -36.362,0 0,44.231 z"
         id="path3013-0" />
    </clipPath>
  </defs>
  <metadata
     id="metadata7">
    <rdf:RDF>
      <cc:Work
         rdf:about="">
        <dc:format>image/svg+xml</dc:format>
        <dc:type
           rdf:resource="http://purl.org/dc/dcmitype/StillImage" />
        <dc:title></dc:title>
      </cc:Work>
    </rdf:RDF>
  </metadata>
  <g
     transform="translate(-91.880557,-41.925692)"
     id="layer1">
    <g
       transform="matrix(5.4421787,0,0,5.4421787,-427.40193,-177.09996)"
       id="g3244">
      <path
         d="m 95.418125,71.42845 0.15375,-22.2 44.486245,0 0,15.77 -29.29999,0.05125 7.72124,-13.6775 -23.061245,20.05625"
         id="path2997"
         style="fill:#03499a;fill-opacity:1;fill-rule:evenodd;stroke:none" />
      <path
         d="m 140.05812,64.9472 -0.15375,22.2 -44.486245,0 0,-15.77 29.298755,-0.05 -7.72,13.67625 23.06124,-20.05625"
         id="path2999"
         style="fill:#32ab5d;fill-opacity:1;fill-rule:evenodd;stroke:none" />
      <path
         d="m 98.331875,47.49345 -2.76,0 0,-7.09375 2.65875,0 0,1.42875 -1.07375,0 0,1.32625 0.97125,0 0,1.3275 -0.97125,0 0,1.5825 1.175,0 0,1.42875 z m 3.990005,0 -1.38125,0 -0.81875,-3.21625 0,3.21625 -1.328755,0 0,-7.09375 1.328755,0 0.87,3.16375 0,-3.16375 1.33,0 0,7.09375 z m 3.42625,0 -2.7625,0 0,-7.09375 2.65875,0 0,1.42875 -1.0725,0 0,1.32625 0.97125,0 0,1.3275 -0.97125,0 0,1.5825 1.17625,0 0,1.42875 z m 3.9875,0 -1.48375,0 0,-2.3475 c 0,-0.40875 0,-0.6125 -0.05,-0.715 -0.0512,-0.1025 -0.205,-0.15375 -0.40875,-0.15375 l 0,3.21625 -1.58626,0 0,-7.09375 1.43251,0 c 0.86874,0 1.4825,0.1525 1.78874,0.51 0.205,0.25625 0.3075,0.71375 0.3075,1.42875 0,0.56125 -0.0512,0.91875 -0.1525,1.12375 -0.10375,0.1525 -0.36,0.305 -0.7175,0.305 0.3575,0.1025 0.5625,0.25625 0.66626,0.40875 0.15249,0.20375 0.20374,0.6125 0.20374,1.1225 l 0,2.195 z m -1.48375,-4.95125 0,-0.4075 c 0,-0.20375 0,-0.3575 -0.10125,-0.4075 -0.0513,-0.10375 -0.205,-0.10375 -0.3575,-0.10375 l 0,1.5825 c 0.20375,0 0.30625,-0.05125 0.3575,-0.1025 0.0512,-0.10125 0.10125,-0.25375 0.10125,-0.56125 z m 5.77875,4.95125 -1.0225,0 -0.15375,-0.51125 c -0.205,0.40875 -0.5625,0.665 -0.97125,0.665 -0.61375,0 -1.0225,-0.25625 -1.27875,-0.71625 -0.205,-0.40625 -0.30625,-1.07125 -0.30625,-1.8875 l 0,-2.0925 c 0,-0.91875 0.10125,-1.5825 0.3575,-1.99 0.25625,-0.46 0.7675,-0.715 1.43125,-0.715 0.7175,0 1.2275,0.20375 1.535,0.66375 0.25499,0.40875 0.40875,0.97 0.40875,1.78625 l 0,0.30625 -1.63626,0 0,-0.765 c 0,-0.3575 0,-0.61375 0,-0.665 -0.0512,-0.10125 -0.10249,-0.1525 -0.25624,-0.1525 -0.10126,0 -0.1525,0.05125 -0.20375,0.1525 0,0.10375 0,0.3075 0,0.665 l 0,3.41875 c 0,0.30625 0,0.51 0,0.6125 0.0512,0.10125 0.1525,0.1525 0.25625,0.1525 0.10125,0 0.1525,-0.05125 0.20374,-0.1525 0.0513,-0.1025 0.0513,-0.30625 0.0513,-0.6125 l 0,-0.91875 -0.30749,0 0,-1.07125 1.8925,0 0,3.8275 z m 3.98875,-7.09375 -1.175,4.49125 0,2.6025 -1.485,0 0,-2.6025 -1.0725,-4.49125 1.43125,0 0.40875,2.80625 0.40875,-2.80625 1.48374,0 z m 3.9875,7.09375 -1.63625,0 0,-7.094 1.63625,0 0,7.094 z m 4.1425,-1.8375 c 0,0.71375 -0.1525,1.225 -0.46,1.53125 -0.255,0.30625 -0.71625,0.46 -1.33,0.46 -0.61375,0 -1.0725,-0.205 -1.38,-0.51125 -0.3075,-0.3575 -0.46,-0.91875 -0.46,-1.73625 l 0,-0.4575 1.4825,0 0,0.86625 c 0,0.25625 0.0512,0.40875 0.0512,0.51125 0.0513,0.05 0.15375,0.10125 0.255,0.10125 0.205,0 0.3075,-0.20375 0.3075,-0.6625 0,-0.46 -0.1525,-0.8675 -0.5625,-1.12375 -0.3075,-0.255 -0.665,-0.51 -1.0225,-0.765 -0.35875,-0.4075 -0.5625,-0.91875 -0.5625,-1.6325 0,-0.715 0.20375,-1.27625 0.51125,-1.5825 0.255,-0.255 0.665,-0.40875 1.2275,-0.40875 0.61375,0 1.0725,0.1025 1.32875,0.40875 0.30625,0.30625 0.46125,0.81625 0.46125,1.5825 l 0,0.305 -1.48375,0 0,-0.51 c 0,-0.255 0,-0.40875 -0.05,-0.46 0,-0.10125 -0.10375,-0.1525 -0.205,-0.1525 -0.15375,0 -0.25625,0.20375 -0.25625,0.56125 0,0.46 0.15375,0.765 0.51125,1.02125 0.665,0.46 1.0225,0.71375 1.07375,0.765 0.35875,0.46 0.5625,1.07125 0.5625,1.88875 z m 5.165,1.8375 -2.60875,0 0,-7.09375 1.6375,0 0,5.665 0.97125,0 0,1.42875 z m 1.94375,0 -1.58513,0 0,-7.094 1.58513,0 0,7.094 z m 3.3225,-5.665 -1.07375,0 0,1.32625 0.9725,0 0,1.3275 -0.9725,0 0,3.01125 -1.585,0 0,-7.09375 2.65875,0 0,1.42875 z m 3.17125,5.665 -2.7625,0 0,-7.09375 2.66,0 0,1.42875 -1.07375,0 0,1.32625 1.02125,0 0,1.3275 -1.02125,0 0,1.5825 1.17625,0 0,1.42875"
         id="path3001"
         style="fill:#03499a;fill-opacity:1;fill-rule:evenodd;stroke:none" />
      <path
         d="m 99.406875,93.06845 c 0,0.81625 -0.15375,1.3775 -0.46125,1.735 -0.30625,0.305 -0.8175,0.51 -1.43125,0.51 -0.71625,0 -1.2275,-0.15375 -1.53375,-0.51 -0.3075,-0.3575 -0.46,-0.91875 -0.46,-1.735 l 0,-2.04125 c 0,-0.86875 0.1525,-1.48125 0.40875,-1.89 0.30625,-0.35625 0.81875,-0.56125 1.53375,-0.56125 0.71625,0 1.2275,0.205 1.53375,0.56125 0.25625,0.35875 0.41,0.97 0.41,1.78625 l 0,0.61375 -1.6375,0 0,-1.07125 c 0,-0.3075 0,-0.51125 -0.05,-0.6125 -0.05125,-0.10375 -0.1025,-0.15375 -0.25625,-0.15375 -0.10125,0 -0.20375,0.05 -0.20375,0.15375 -0.0525,0.10125 -0.1025,0.305 -0.1025,0.6125 l 0,3.01 c 0,0.30625 0.05,0.51 0.05,0.6125 0.0525,0.1025 0.155,0.15375 0.25625,0.15375 0.15375,0 0.205,-0.05125 0.25625,-0.15375 0.05,-0.1025 0.05,-0.30625 0.05,-0.6125 l 0,-0.8675 1.6375,0 0,0.46"
         id="path3003"
         style="fill:#03499a;fill-opacity:1;fill-rule:evenodd;stroke:none" />
      <path
         d="m 109.42812,95.2622 -1.58374,0 -0.92125,-2.96 0,2.96 -1.4825,0 0,-6.48125 1.4825,0 1.0225,2.90875 0,-2.90875 1.4825,0 0,6.48125 z m 4.65375,-1.685 c 0,0.665 -0.1525,1.12375 -0.45999,1.37875 -0.3075,0.30625 -0.8175,0.40875 -1.535,0.40875 -0.715,0 -1.22625,-0.1525 -1.53375,-0.46 -0.3575,-0.30625 -0.51126,-0.81625 -0.51126,-1.53125 l 0,-0.45875 1.6875,0 0,0.81625 c 0,0.20375 0,0.40875 0.0512,0.46 0,0.05125 0.1025,0.10125 0.25625,0.10125 0.205,0 0.3575,-0.20375 0.3575,-0.61125 0,-0.40875 -0.20375,-0.76625 -0.61375,-1.02125 -0.40875,-0.25625 -0.76625,-0.46 -1.17625,-0.715 -0.40875,-0.35625 -0.61375,-0.81625 -0.61375,-1.47875 0,-0.665 0.205,-1.12375 0.5625,-1.43 0.3075,-0.255 0.7675,-0.3575 1.38125,-0.3575 0.665,0 1.17626,0.1025 1.4825,0.3575 0.35875,0.255 0.5125,0.765 0.5125,1.48 l 0,0.255 -1.6875,0 0,-0.51 c 0,-0.20375 0,-0.3575 -0.0513,-0.4075 0,-0.0525 -0.10375,-0.10375 -0.205,-0.10375 -0.205,0 -0.30625,0.15375 -0.30625,0.51125 0,0.3575 0.20375,0.715 0.6125,0.91875 0.71625,0.40875 1.075,0.6625 1.17625,0.71375 0.40875,0.3575 0.61375,0.97 0.61375,1.68375 z m 3.63125,1.685 -3.06875,0 0,-6.48125 2.96626,0 0,1.32625 -1.17625,0 0,1.225 1.125,0 0,1.22625 -1.125,0 0,1.37625 1.27874,0 0,1.3275 z m 4.55001,0 -1.6875,0 0,-2.1425 c 0,-0.3575 -0.0513,-0.56125 -0.10126,-0.665 -0.0512,-0.10125 -0.205,-0.10125 -0.46124,-0.10125 l 0,2.90875 -1.79001,0 0,-6.48125 1.6875,0 c 0.97125,0 1.63751,0.15375 1.94376,0.51 0.25625,0.205 0.40875,0.66375 0.40875,1.27625 0,0.51 -0.10126,0.81625 -0.20501,1.02125 -0.15249,0.1525 -0.40875,0.25375 -0.81625,0.305 0.4075,0.10375 0.66376,0.205 0.765,0.3575 0.155,0.20375 0.25625,0.51125 0.25625,1.02125 l 0,1.99 z m -1.6875,-4.49125 0,-0.35625 c 0,-0.205 -0.0513,-0.3575 -0.10126,-0.40875 -0.10249,-0.05125 -0.205,-0.1025 -0.46124,-0.1025 l 0,1.42875 c 0.25624,0 0.35875,0 0.41,-0.05125 0.10125,-0.10125 0.1525,-0.25375 0.1525,-0.51 z m 6.59625,-1.99 -0.92001,6.48125 -2.71124,0 -1.02125,-6.48125 1.89125,0 0.46,4.5425 0.40875,-4.5425 1.8925,0 z m 3.37499,6.48125 -3.06749,0 0,-6.48125 2.96499,0 0,1.32625 -1.17624,0 0,1.225 1.12624,0 0,1.22625 -1.12624,0 0,1.37625 1.27874,0 0,1.3275 z m 4.6525,0 -1.78962,0 0,-6.4815 1.78962,0 0,6.4815 z m 4.3475,-5.155 -1.07375,0 0,5.155 -1.79,0 0,-5.155 -1.07375,0 0,-1.32625 3.9375,0 0,1.32625"
         id="path3005"
         style="fill:#03499a;fill-opacity:1;fill-rule:evenodd;stroke:none" />
      <g
         transform="matrix(1.25,0,0,-1.25,2.379375,1062.9897)"
         id="g3007">
        <g
           clip-path="url(#clipPath3011-4)"
           id="g3009">
          <path
             d="m 80.404,786.308 c 0.081,-0.613 0.326,-1.184 0.695,-1.592 0.941,-0.817 1.022,-2.205 0.327,-3.471 -0.532,-0.735 -2.332,-0.735 -2.904,0 -1.105,1.47 -0.655,3.144 0.613,4.491 0.164,0.327 0.328,0.654 0.573,0.94 0.205,0.285 0.613,0.163 0.696,-0.368 z"
             id="path3015"
             style="fill:#ffffff;fill-opacity:1;fill-rule:evenodd;stroke:#ffffff;stroke-width:0.122;stroke-linecap:butt;stroke-linejoin:miter;stroke-miterlimit:2.61299992;stroke-opacity:1;stroke-dasharray:none" />
          <path
             d="m 80.199,779.734 c 0.081,-0.652 0.327,-1.183 0.695,-1.632 0.941,-0.817 1.023,-2.206 0.327,-3.471 -0.531,-0.735 -2.331,-0.694 -2.904,0 -1.105,1.511 -0.654,3.144 0.613,4.491 0.164,0.327 0.328,0.653 0.573,0.98 0.205,0.286 0.614,0.164 0.696,-0.368"
             id="path3017"
             style="fill:#32ab5d;fill-opacity:1;fill-rule:evenodd;stroke:none" />
        </g>
      </g>
      <path
         d="m 131.35687,65.71345 -5.0725,0 c 0,1.60875 0,3.2175 0,4.82625 l 5.0725,0 0,-0.99875 -3.17625,0 0,-1.03625 3.02875,0 0,-0.99625 -3.02875,0 0,-0.7975 3.17625,0 0,-0.9975"
         id="path3019"
         style="fill:#03499a;fill-opacity:1;fill-rule:evenodd;stroke:none" />
      <path
         d="m 120.48438,65.71345 -5.07251,0 c 0,1.60875 0,3.2175 0,4.82625 l 5.0725,0 0,-0.99875 -3.175,0 0,-1.03625 3.02875,0 0,-0.99625 -3.02875,0 0,-0.7975 3.175,0 0,-0.9975"
         id="path3021"
         style="fill:#03499a;fill-opacity:1;fill-rule:evenodd;stroke:none" />
      <path
         d="m 104.19938,65.7372 c 0,1.58375 0,3.1675 0,4.7525 1.27,0 2.5375,0 3.80875,0 1.82874,0.04375 2.69999,-1.97875 0.54,-2.52375 1.36875,-0.285 1.21999,-2.07625 -0.36,-2.22875 -1.33,0 -2.66,0 -3.98875,0 z m 1.85,2.83375 0,0.9375 1.30625,0 c 0.6925,0 0.73375,-0.9075 0.035,-0.9375 l -1.34125,0 z m 0.006,-1.84375 0,0.88 1.07374,0 c 0.65,0 0.69001,-0.85375 0.0338,-0.88 l -1.10749,0"
         id="path3023"
         style="fill:#03499a;fill-opacity:1;fill-rule:evenodd;stroke:none" />
    </g>
  </g>
</svg>
