<svg width="146" height="35" viewBox="0 0 146 35" fill="none" xmlns="http://www.w3.org/2000/svg">
<path d="M8.3898 0.164166H12.503L14.5187 6.35362L16.534 0.164166H20.6744L17.3786 9.16213L19.3397 14.3156L24.1884 0.136719H29.0642L21.5189 19.4962H17.6509L14.5187 11.916L11.4133 19.4962H7.51786L0 0.136719H4.8484L9.72422 14.3156L11.6311 9.16213L8.3898 0.164166Z" fill="#6200EE"/>
<path d="M44.3445 15.5699V19.4965H30.752V0.136719H44.0992V4.06326H35.2192V7.82604H42.8461V11.4525H35.2192V15.5696L44.3445 15.5699Z" fill="#6200EE"/>
<path d="M63.0586 14.5336C63.0586 15.6425 62.7631 16.5651 62.1733 17.3013C61.5829 18.0375 60.7886 18.5877 59.7902 18.9509C58.7912 19.3147 57.6926 19.4962 56.4944 19.4962H47.0693V0.136719H57.8288C58.7367 0.136719 59.5218 0.377953 60.1848 0.859508C60.8474 1.34137 61.3562 1.96382 61.7102 2.72717C62.0642 3.49052 62.2415 4.28132 62.2415 5.09926C62.2415 6.00839 62.0054 6.87635 61.5332 7.70313C61.0607 8.53053 60.3709 9.15298 59.463 9.5711C60.5705 9.89834 61.4467 10.4802 62.0916 11.3162C62.736 12.1527 63.0586 13.225 63.0586 14.5336ZM51.5366 3.95408V7.96236H55.9222C56.2491 7.96236 56.5529 7.89008 56.8347 7.7443C57.1162 7.59914 57.3477 7.3762 57.5293 7.07641C57.7106 6.77631 57.8017 6.39937 57.8017 5.94495C57.8017 5.50854 57.7243 5.14531 57.5701 4.85406C57.4157 4.56342 57.2112 4.34079 56.9572 4.18617C56.7025 4.03216 56.4124 3.95439 56.0855 3.95439L51.5366 3.95408ZM58.5094 13.634C58.5094 13.2162 58.4281 12.8481 58.2642 12.5297C58.1012 12.2119 57.8876 11.9569 57.6241 11.7663C57.3608 11.5754 57.0473 11.4799 56.6842 11.4799H51.536V15.7063H56.4938C56.8752 15.7063 57.2155 15.6157 57.515 15.4336C57.8145 15.2522 58.0552 15.007 58.2367 14.6974C58.4186 14.3885 58.5094 14.0341 58.5094 13.634Z" fill="#6200EE"/>
<path d="M74.171 19.6324C72.7178 19.6324 71.4065 19.3555 70.2351 18.8004C69.0637 18.2463 68.0562 17.501 67.2116 16.5647C66.3668 15.6287 65.7179 14.5741 65.2636 13.4018C64.8097 12.2292 64.583 11.016 64.583 9.76162C64.583 8.47127 64.8234 7.24436 65.3048 6.08058C65.7855 4.91741 66.4579 3.87653 67.3204 2.95856C68.1826 2.04089 69.2041 1.3184 70.3847 0.790799C71.5653 0.263803 72.854 0 74.2527 0C75.687 0 76.9901 0.277222 78.1615 0.831665C79.3329 1.38641 80.3405 2.13635 81.185 3.08116C82.0295 4.02658 82.6784 5.08514 83.1327 6.25777C83.5863 7.43039 83.8136 8.6259 83.8136 9.84335C83.8136 11.1343 83.5775 12.3612 83.1056 13.5244C82.633 14.6879 81.9616 15.7287 81.0899 16.6464C80.2183 17.5644 79.1968 18.2918 78.0253 18.8276C76.8539 19.3647 75.5691 19.6324 74.171 19.6324ZM69.1319 9.81651C69.1319 10.5619 69.241 11.2847 69.4588 11.9843C69.6767 12.6842 69.9987 13.3066 70.4258 13.8519C70.8524 14.3972 71.3834 14.8336 72.0192 15.1609C72.6547 15.4881 73.3811 15.6516 74.1982 15.6516C75.0515 15.6516 75.7958 15.4839 76.4316 15.1472C77.0672 14.8108 77.5939 14.3609 78.0116 13.7973C78.4293 13.2341 78.7425 12.6022 78.9515 11.9022C79.1602 11.2026 79.2647 10.489 79.2647 9.76162C79.2647 9.01657 79.1559 8.29866 78.9378 7.60759C78.72 6.91682 78.3931 6.29437 77.9571 5.73962C77.5211 5.18548 76.9855 4.75394 76.3503 4.4447C75.7142 4.13576 74.9973 3.98114 74.1982 3.98114C73.3442 3.98114 72.6048 4.14491 71.9781 4.47184C71.3517 4.79908 70.8249 5.24007 70.3981 5.79421C69.9716 6.34896 69.6535 6.97598 69.4448 7.67559C69.2361 8.37612 69.1319 9.08976 69.1319 9.81651Z" fill="#6200EE"/>
<path d="M86.4014 19.4962V0.136719H95.1175C96.0253 0.136719 96.865 0.323363 97.6373 0.695737C98.409 1.06842 99.0765 1.56827 99.6393 2.1953C100.202 2.82232 100.643 3.52712 100.96 4.30846C101.278 5.09011 101.437 5.88091 101.437 6.68086C101.437 7.48081 101.31 8.23958 101.056 8.95749C100.801 9.67571 100.438 10.3207 99.9662 10.8935C99.4936 11.4659 98.9312 11.9343 98.2774 12.2976L102.527 19.4962H97.5962L93.8918 13.2521H90.868V19.4962H86.4014ZM90.8683 9.35304H94.9542C95.317 9.35304 95.6393 9.23959 95.9212 9.01208C96.2027 8.78488 96.4342 8.47136 96.6158 8.07154C96.7971 7.67172 96.8882 7.20816 96.8882 6.68086C96.8882 6.15356 96.7833 5.69488 96.575 5.3039C96.366 4.91323 96.1073 4.60856 95.7987 4.3905C95.4898 4.17244 95.1628 4.06326 94.818 4.06326H90.8683V9.35304Z" fill="#6200EE"/>
<path d="M104.651 19.4962V0.136719H109.118V19.4962H104.651Z" fill="#6200EE"/>
<path d="M127.559 4.06326H121.675V19.4962H117.208V4.06326H111.297V0.136719H127.559V4.06326Z" fill="#6200EE"/>
<path d="M132.734 0.136719L136.902 8.69857L141.124 0.136719H146L139.108 12.8978V19.4962H134.668V12.8432L127.886 0.136719H132.734Z" fill="#6200EE"/>
<path d="M22.8033 26.5247H19.5367V34.9326H18.3369V26.5247H15.0703V25.457H22.8033V26.5247Z" fill="#171A21"/>
<path d="M31.7898 33.8649V34.9326H25.3633V25.457H31.6695V26.5247H26.5633V29.594H31.0029V30.5949H26.5637V33.8649H31.7898Z" fill="#171A21"/>
<path d="M33.8301 30.115C33.8301 29.5368 33.93 28.9695 34.1299 28.4135C34.3297 27.8576 34.6231 27.3504 35.01 26.892C35.397 26.4339 35.8698 26.0692 36.4298 25.7978C36.9897 25.5263 37.6253 25.3906 38.3363 25.3906C39.1806 25.3906 39.9051 25.5843 40.5095 25.971C41.114 26.3583 41.563 26.8539 41.8561 27.4593L40.9098 28.0732C40.7234 27.6731 40.4851 27.355 40.1966 27.1189C39.9075 26.8835 39.5964 26.7167 39.2634 26.6181C38.9298 26.5206 38.6032 26.4718 38.2833 26.4718C37.7587 26.4718 37.2947 26.5785 36.8901 26.792C36.4855 27.0055 36.1458 27.2903 35.8701 27.6462C35.5947 28.0021 35.3881 28.4004 35.2501 28.8408C35.1124 29.2809 35.0436 29.724 35.0436 30.1687C35.0436 30.6581 35.1255 31.1296 35.2903 31.5834C35.4548 32.0372 35.6836 32.4377 35.977 32.7847C36.2701 33.1318 36.6171 33.4078 37.0168 33.6124C37.4166 33.8171 37.8522 33.9192 38.3235 33.9192C38.652 33.9192 38.9902 33.8616 39.3369 33.746C39.6833 33.6304 40.0074 33.4502 40.3096 33.2056C40.6119 32.961 40.8516 32.6429 41.0296 32.2513L42.0295 32.7985C41.8339 33.2702 41.5316 33.6704 41.1228 33.9994C40.7139 34.3288 40.2582 34.5777 39.7564 34.7469C39.254 34.9159 38.7586 35.0004 38.2696 35.0004C37.621 35.0004 37.0254 34.8604 36.4834 34.5798C35.9411 34.2995 35.4722 33.9259 35.0768 33.4587C34.681 32.9918 34.3745 32.4669 34.1567 31.8841C33.9388 31.3004 33.8301 30.7112 33.8301 30.115Z" fill="#171A21"/>
<path d="M52.3483 25.457V34.9326H51.1482V30.6218H45.9351V34.9326H44.7354V25.457H45.9351V29.5544H51.1482V25.457H52.3483Z" fill="#171A21"/>
<path d="M57.0142 27.6724V34.9326H55.8145V25.457H56.8275L62.6139 32.8639V25.4704H63.8134V34.9326H62.7202L57.0142 27.6724Z" fill="#171A21"/>
<path d="M71.1196 34.9995C70.453 34.9995 69.8486 34.8659 69.3066 34.5993C68.7646 34.3322 68.2957 33.9702 67.9 33.5118C67.5045 33.0534 67.2002 32.5374 66.9869 31.9634C66.7736 31.3898 66.667 30.8006 66.667 30.1952C66.667 29.5636 66.78 28.9607 67.0067 28.3867C67.2334 27.8127 67.5487 27.3013 67.9533 26.8521C68.3576 26.4025 68.831 26.0466 69.373 25.7843C69.915 25.5221 70.5067 25.3906 71.1461 25.3906C71.8131 25.3906 72.4172 25.5285 72.9595 25.8042C73.5015 26.0799 73.9682 26.4492 74.3594 26.9118C74.7503 27.3748 75.0525 27.8908 75.2661 28.4599C75.4794 29.0296 75.5863 29.6124 75.5863 30.2083C75.5863 30.8399 75.4751 31.4428 75.2527 32.0168C75.0306 32.5908 74.7171 33.1025 74.3128 33.5514C73.9082 34.001 73.4348 34.3544 72.8931 34.6124C72.3508 34.8704 71.76 34.9995 71.1196 34.9995ZM67.8802 30.1949C67.8802 30.6752 67.9575 31.1403 68.1135 31.5895C68.2689 32.0391 68.4889 32.4368 68.7734 32.7838C69.058 33.1309 69.4001 33.4069 69.7998 33.6115C70.1996 33.8162 70.6441 33.9183 71.1333 33.9183C71.6397 33.9183 72.093 33.8116 72.4931 33.5981C72.8931 33.3846 73.2331 33.0998 73.5131 32.7439C73.7931 32.388 74.0063 31.9875 74.1532 31.5426C74.2997 31.0976 74.3734 30.6484 74.3734 30.1946C74.3734 29.7143 74.2954 29.2516 74.1398 28.8066C73.9841 28.3617 73.762 27.9634 73.4732 27.6121C73.1843 27.2607 72.8419 26.9847 72.4464 26.7847C72.051 26.5843 71.6132 26.4843 71.1333 26.4843C70.6264 26.4843 70.1734 26.5892 69.773 26.7978C69.3733 27.0073 69.0333 27.2894 68.753 27.6453C68.4733 28.0012 68.2576 28.3995 68.1068 28.8399C67.9554 29.2806 67.8802 29.7325 67.8802 30.1949Z" fill="#171A21"/>
<path d="M78.4531 34.9326V25.457H79.6532V33.8649H84.9327V34.9326H78.4531Z" fill="#171A21"/>
<path d="M90.9852 34.9995C90.3183 34.9995 89.7138 34.8659 89.1718 34.5993C88.6298 34.3322 88.161 33.9702 87.7655 33.5118C87.3697 33.0534 87.0654 32.5374 86.8521 31.9634C86.6389 31.3898 86.5322 30.8006 86.5322 30.1952C86.5322 29.5636 86.6456 28.9607 86.8719 28.3867C87.0986 27.8127 87.4139 27.3013 87.8185 26.8521C88.2228 26.4025 88.6962 26.0466 89.2382 25.7843C89.7802 25.5221 90.3716 25.3906 91.0114 25.3906C91.678 25.3906 92.2824 25.5285 92.8247 25.8042C93.3667 26.0799 93.8332 26.4492 94.2247 26.9118C94.6155 27.3748 94.9178 27.8908 95.1313 28.4599C95.3446 29.0296 95.4515 29.6124 95.4515 30.2083C95.4515 30.8399 95.3403 31.4428 95.1179 32.0168C94.8958 32.5908 94.5823 33.1025 94.178 33.5514C93.7735 34.001 93.3 34.3544 92.7583 34.6124C92.216 34.8704 91.6253 34.9995 90.9852 34.9995ZM87.7451 30.1949C87.7451 30.6752 87.8231 31.1403 87.9788 31.5895C88.1341 32.0391 88.3541 32.4368 88.6387 32.7838C88.9232 33.1309 89.2654 33.4069 89.6651 33.6115C90.0654 33.8162 90.5093 33.9183 90.9983 33.9183C91.5049 33.9183 91.9583 33.8116 92.3583 33.5981C92.7586 33.3846 93.0983 33.0998 93.3783 32.7439C93.6583 32.388 93.8715 31.9875 94.0184 31.5426C94.1649 31.0976 94.2387 30.6484 94.2387 30.1946C94.2387 29.7143 94.1607 29.2516 94.005 28.8066C93.8493 28.3617 93.6272 27.9634 93.3384 27.6121C93.0496 27.2607 92.7071 26.9847 92.3117 26.7847C91.9162 26.5843 91.4787 26.4843 90.9986 26.4843C90.4922 26.4843 90.0389 26.5892 89.6389 26.7978C89.2385 27.0073 88.8988 27.2894 88.6189 27.6453C88.3389 28.0012 88.1232 28.3995 87.9721 28.8399C87.8206 29.2806 87.7451 29.7325 87.7451 30.1949Z" fill="#171A21"/>
<path d="M102.118 35.0001C101.496 35.0001 100.916 34.8647 100.378 34.5929C99.8402 34.3215 99.3716 33.9571 98.9719 33.4987C98.5715 33.0403 98.2605 32.5246 98.0384 31.9506C97.8163 31.3767 97.7051 30.7829 97.7051 30.1687C97.7051 29.5279 97.816 28.9207 98.0384 28.347C98.2605 27.7731 98.5694 27.2638 98.9649 26.8188C99.3603 26.3739 99.8271 26.0247 100.365 25.7709C100.903 25.5175 101.487 25.3906 102.118 25.3906C103.034 25.3906 103.789 25.5822 104.385 25.9646C104.98 26.3473 105.429 26.8454 105.731 27.4593L104.811 28.0997C104.536 27.548 104.158 27.1387 103.678 26.8719C103.198 26.605 102.669 26.4718 102.092 26.4718C101.611 26.4718 101.176 26.5739 100.785 26.7786C100.394 26.9835 100.058 27.2613 99.7783 27.6127C99.4983 27.964 99.2851 28.3623 99.1382 28.8073C98.9914 29.2522 98.9179 29.7149 98.9179 30.1952C98.9179 30.7024 99.0002 31.1806 99.165 31.6298C99.3292 32.0793 99.5626 32.4752 99.8648 32.8177C100.167 33.1605 100.518 33.4297 100.918 33.6249C101.318 33.821 101.749 33.9186 102.211 33.9186C102.753 33.9186 103.269 33.7811 103.758 33.5051C104.246 33.2297 104.709 32.8067 105.144 32.2373V33.4785C104.292 34.4929 103.283 35.0001 102.118 35.0001ZM104.998 31.1165H102.958V30.2089H106.011V34.9333H104.998V31.1165Z" fill="#171A21"/>
<path d="M109.038 34.9326V25.457H110.238V34.9326H109.038Z" fill="#171A21"/>
<path d="M120.129 33.8649V34.9326H113.703V25.457H120.009V26.5247H114.903V29.594H119.342V30.5949H114.903V33.8649H120.129Z" fill="#171A21"/>
<path d="M128.529 27.4462C128.422 27.3217 128.28 27.2013 128.102 27.0857C127.924 26.9701 127.725 26.8652 127.502 26.7722C127.28 26.6785 127.038 26.6032 126.776 26.5453C126.514 26.4876 126.24 26.4586 125.956 26.4586C125.227 26.4586 124.69 26.5962 124.343 26.8713C123.996 27.1461 123.823 27.5233 123.823 28.0021C123.823 28.3388 123.911 28.6051 124.089 28.8002C124.267 28.9954 124.54 29.1552 124.909 29.279C125.278 29.4035 125.747 29.5319 126.316 29.6651C126.973 29.8073 127.542 29.9802 128.023 30.1839C128.502 30.3879 128.871 30.6606 129.129 31.0022C129.387 31.3437 129.516 31.7981 129.516 32.366C129.516 32.8183 129.429 33.2111 129.256 33.5435C129.082 33.8759 128.84 34.151 128.529 34.3685C128.218 34.5856 127.853 34.7451 127.436 34.8473C127.018 34.9491 126.565 35.0001 126.076 35.0001C125.596 35.0001 125.127 34.9488 124.669 34.8467C124.211 34.7445 123.778 34.5954 123.369 34.3996C122.96 34.2038 122.578 33.9592 122.223 33.6655L122.796 32.6511C122.938 32.8027 123.122 32.9512 123.349 33.0982C123.576 33.2449 123.833 33.381 124.122 33.5054C124.411 33.6301 124.725 33.7301 125.062 33.8055C125.4 33.8814 125.746 33.9189 126.102 33.9189C126.778 33.9189 127.302 33.7975 127.675 33.5539C128.049 33.3105 128.235 32.954 128.235 32.4849C128.235 32.1299 128.131 31.846 127.922 31.6331C127.713 31.4203 127.404 31.2428 126.995 31.1007C126.587 30.9588 126.089 30.8167 125.502 30.6749C124.862 30.5154 124.325 30.3397 123.889 30.1491C123.453 29.9585 123.127 29.7078 122.909 29.3971C122.691 29.0863 122.582 28.6828 122.582 28.1857C122.582 27.5828 122.729 27.0726 123.022 26.6554C123.316 26.2381 123.72 25.9234 124.236 25.7099C124.751 25.4974 125.333 25.3906 125.982 25.3906C126.408 25.3906 126.806 25.4352 127.175 25.5242C127.544 25.6133 127.888 25.7377 128.209 25.8981C128.529 26.0579 128.822 26.2494 129.089 26.4721L128.529 27.4462Z" fill="#171A21"/>
</svg>
