<svg width="15" height="14" viewBox="0 0 15 14" fill="none" xmlns="http://www.w3.org/2000/svg">
<path d="M6.85208 0.173168C6.92692 -0.0571598 7.25277 -0.0571588 7.32761 0.173169L8.82983 4.79652C8.8633 4.89953 8.95928 4.96927 9.06759 4.96927H13.9289C14.1711 4.96927 14.2717 5.27917 14.0758 5.42152L10.143 8.27892C10.0553 8.34258 10.0187 8.45542 10.0521 8.55842L11.5544 13.1818C11.6292 13.4121 11.3656 13.6036 11.1697 13.4613L7.23679 10.6039C7.14917 10.5402 7.03052 10.5402 6.9429 10.6039L3.01004 13.4613C2.81411 13.6036 2.55049 13.4121 2.62533 13.1818L4.12755 8.55842C4.16101 8.45542 4.12435 8.34258 4.03673 8.27892L0.103866 5.42152C-0.0920628 5.27917 0.00863153 4.96927 0.250812 4.96927H5.1121C5.2204 4.96927 5.31639 4.89953 5.34986 4.79652L6.85208 0.173168Z" fill="url(#paint0_radial_2293_22095)"/>
<defs>
<radialGradient id="paint0_radial_2293_22095" cx="0" cy="0" r="1" gradientUnits="userSpaceOnUse" gradientTransform="translate(7.08984 7.44141) rotate(90) scale(8)">
<stop stop-color="#FFCA00"/>
<stop offset="1" stop-color="#FFE280"/>
</radialGradient>
</defs>
</svg>
