<svg width="168" height="40" viewBox="0 0 168 40" fill="none" xmlns="http://www.w3.org/2000/svg">
<path d="M9.59799 0.187619H14.3036L16.6095 7.26128L18.9151 0.187619H23.6517L19.8812 10.471L22.1247 16.3607L27.6717 0.15625H33.2497L24.6178 22.2814H20.1928L16.6095 13.6183L13.0569 22.2814H8.60048L0 0.15625H5.54661L11.1246 16.3607L13.3061 10.471L9.59799 0.187619Z" fill="#6200EE"/>
<path d="M50.7307 17.7942V22.2817H35.1808V0.15625H50.4502V4.64373H40.2914V8.94404H49.0166V13.0886H40.2914V17.7939L50.7307 17.7942Z" fill="#6200EE"/>
<path d="M72.1392 16.6099C72.1392 17.8772 71.8011 18.9315 71.1263 19.7729C70.4509 20.6143 69.5422 21.243 68.4001 21.6582C67.2572 22.074 66.0004 22.2814 64.6296 22.2814H53.8473V0.15625H66.1562C67.1948 0.15625 68.093 0.431946 68.8514 0.982294C69.6095 1.53299 70.1915 2.24437 70.5965 3.11677C71.0015 3.98917 71.2044 4.89294 71.2044 5.82773C71.2044 6.86673 70.9343 7.85868 70.394 8.80358C69.8535 9.74917 69.0644 10.4605 68.0257 10.9384C69.2927 11.3124 70.2951 11.9774 71.0329 12.9328C71.7701 13.8888 72.1392 15.1143 72.1392 16.6099ZM58.9579 4.51895V9.09984H63.9751C64.349 9.09984 64.6965 9.01724 65.0189 8.85063C65.341 8.68473 65.6059 8.42994 65.8136 8.08732C66.021 7.74436 66.1252 7.31356 66.1252 6.79423C66.1252 6.29547 66.0366 5.88036 65.8603 5.5475C65.6836 5.21534 65.4497 4.9609 65.159 4.78419C64.8677 4.60818 64.5358 4.5193 64.1619 4.5193L58.9579 4.51895ZM66.9348 15.5817C66.9348 15.1042 66.8418 14.6835 66.6543 14.3196C66.4678 13.9564 66.2235 13.665 65.922 13.4472C65.6208 13.229 65.2622 13.1199 64.8467 13.1199H58.9572V17.95H64.6289C65.0653 17.95 65.4546 17.8465 65.7972 17.6384C66.1398 17.431 66.4152 17.1508 66.6229 16.797C66.831 16.444 66.9348 16.039 66.9348 15.5817Z" fill="#6200EE"/>
<path d="M84.8523 22.4371C83.1898 22.4371 81.6897 22.1206 80.3496 21.4862C79.0095 20.8529 77.8569 20.0011 76.8907 18.9311C75.9242 17.8614 75.1818 16.6561 74.6622 15.3163C74.1429 13.9762 73.8835 12.5897 73.8835 11.1561C73.8835 9.68145 74.1585 8.27927 74.7092 6.94923C75.2592 5.61989 76.0284 4.43032 77.0151 3.38121C78.0015 2.33244 79.1701 1.50675 80.5207 0.90377C81.8713 0.30149 83.3456 0 84.9457 0C86.5866 0 88.0773 0.316825 89.4175 0.950475C90.7576 1.58447 91.9102 2.44154 92.8763 3.52132C93.8425 4.6018 94.5848 5.81159 95.1045 7.15174C95.6235 8.49188 95.8835 9.85817 95.8835 11.2495C95.8835 12.7249 95.6134 14.1271 95.0735 15.4564C94.5329 16.7861 93.7647 17.9757 92.7676 19.0245C91.7704 20.0736 90.6018 20.9049 89.2617 21.5172C87.9215 22.131 86.4518 22.4371 84.8523 22.4371ZM79.0875 11.2189C79.0875 12.0707 79.2123 12.8968 79.4615 13.6963C79.7107 14.4962 80.0791 15.2076 80.5678 15.8308C81.0557 16.454 81.6632 16.9527 82.3906 17.3267C83.1177 17.7007 83.9486 17.8875 84.8833 17.8875C85.8596 17.8875 86.7111 17.6958 87.4385 17.311C88.1655 16.9266 88.7681 16.4125 89.246 15.7684C89.7238 15.1246 90.0821 14.4025 90.3212 13.6026C90.56 12.803 90.6795 11.9874 90.6795 11.1561C90.6795 10.3046 90.5551 9.48418 90.3055 8.69438C90.0563 7.90494 89.6823 7.19356 89.1836 6.55956C88.6848 5.92626 88.0721 5.43307 87.3454 5.07965C86.6177 4.72658 85.7976 4.54987 84.8833 4.54987C83.9064 4.54987 83.0605 4.73704 82.3436 5.11067C81.627 5.48466 81.0244 5.98865 80.5361 6.62195C80.0481 7.25595 79.6842 7.97255 79.4455 8.77211C79.2067 9.57271 79.0875 10.3883 79.0875 11.2189Z" fill="#6200EE"/>
<path d="M98.8442 22.2814V0.15625H108.816C109.854 0.15625 110.815 0.369558 111.698 0.795128C112.581 1.22105 113.345 1.79231 113.988 2.50891C114.632 3.22551 115.136 4.03099 115.5 4.92396C115.863 5.81727 116.045 6.72104 116.045 7.63527C116.045 8.54949 115.9 9.41666 115.609 10.2371C115.317 11.0579 114.902 11.7951 114.362 12.4497C113.822 13.1039 113.178 13.6393 112.431 14.0544L117.292 22.2814H111.651L107.413 15.1453H103.954V22.2814H98.8442ZM103.954 10.6892H108.629C109.044 10.6892 109.413 10.5595 109.735 10.2995C110.057 10.0399 110.322 9.68156 110.53 9.22462C110.737 8.76768 110.841 8.2379 110.841 7.63527C110.841 7.03264 110.721 6.50843 110.483 6.0616C110.244 5.61512 109.948 5.26692 109.595 5.01771C109.241 4.76851 108.867 4.64373 108.473 4.64373H103.954V10.6892Z" fill="#6200EE"/>
<path d="M119.722 22.2814V0.15625H124.832V22.2814H119.722Z" fill="#6200EE"/>
<path d="M145.928 4.64373H139.197V22.2814H134.087V4.64373H127.325V0.15625H145.928V4.64373Z" fill="#6200EE"/>
<path d="M151.849 0.15625L156.617 9.94122L161.447 0.15625H167.025L159.141 14.7403V22.2814H154.062V14.6779L146.302 0.15625H151.849Z" fill="#6200EE"/>
<path d="M26.0873 30.314H22.3503V39.923H20.9777V30.314H17.2407V29.0938H26.0873V30.314Z" fill="#171A21"/>
<path d="M36.3674 38.7027V39.923H29.0154V29.0938H36.2297V30.314H30.3883V33.8217H35.4671V34.9656H30.3886V38.7027H36.3674Z" fill="#171A21"/>
<path d="M38.7015 34.4168C38.7015 33.756 38.8159 33.1077 39.0445 32.4723C39.2731 31.8369 39.6088 31.2573 40.0514 30.7335C40.4941 30.2099 41.035 29.7931 41.6756 29.4829C42.3162 29.1727 43.0433 29.0176 43.8567 29.0176C44.8225 29.0176 45.6514 29.2389 46.3428 29.6809C47.0343 30.1235 47.5481 30.6899 47.8834 31.3817L46.8008 32.0834C46.5875 31.6261 46.315 31.2625 45.9849 30.9928C45.6541 30.7237 45.2983 30.533 44.9173 30.4205C44.5357 30.3089 44.1621 30.2532 43.7961 30.2532C43.1959 30.2532 42.6651 30.3751 42.2022 30.6191C41.7394 30.8631 41.3508 31.1887 41.0353 31.5954C40.7203 32.0021 40.484 32.4573 40.3261 32.9606C40.1685 33.4636 40.0898 33.97 40.0898 34.4782C40.0898 35.0376 40.1835 35.5764 40.3721 36.0951C40.5603 36.6137 40.822 37.0713 41.1577 37.468C41.493 37.8646 41.8899 38.1801 42.3472 38.4139C42.8045 38.6478 43.3029 38.7646 43.8421 38.7646C44.2178 38.7646 44.6047 38.6987 45.0013 38.5666C45.3976 38.4345 45.7685 38.2285 46.1142 37.949C46.46 37.6694 46.7343 37.3059 46.9378 36.8584L48.0817 37.4837C47.8579 38.0229 47.5122 38.4802 47.0445 38.8562C46.5767 39.2327 46.0553 39.5171 45.4813 39.7105C44.9065 39.9036 44.3398 40.0001 43.7804 40.0001C43.0384 40.0001 42.357 39.8402 41.7369 39.5195C41.1165 39.1992 40.5801 38.7722 40.1277 38.2383C39.675 37.7046 39.3244 37.1048 39.0752 36.4387C38.826 35.7716 38.7015 35.0982 38.7015 34.4168Z" fill="#171A21"/>
<path d="M59.8872 29.0938V39.923H58.5143V34.9963H52.5505V39.923H51.178V29.0938H52.5505V33.7764H58.5143V29.0938H59.8872Z" fill="#171A21"/>
<path d="M65.225 31.6256V39.923H63.8524V29.0938H65.0113L71.631 37.5588V29.1091H73.0032V39.923H71.7527L65.225 31.6256Z" fill="#171A21"/>
<path d="M81.3616 39.9991C80.599 39.9991 79.9075 39.8464 79.2874 39.5418C78.6674 39.2365 78.131 38.8228 77.6782 38.2989C77.2258 37.7751 76.8776 37.1853 76.6337 36.5294C76.3897 35.8738 76.2677 35.2004 76.2677 34.5085C76.2677 33.7867 76.397 33.0976 76.6563 32.4417C76.9156 31.7857 77.2764 31.2012 77.7392 30.6878C78.2017 30.174 78.7434 29.7673 79.3634 29.4675C79.9834 29.1678 80.6603 29.0176 81.3919 29.0176C82.1548 29.0176 82.846 29.1751 83.4664 29.4902C84.0864 29.8053 84.6204 30.2274 85.0679 30.7561C85.5151 31.2852 85.8608 31.8749 86.1051 32.5253C86.3491 33.1764 86.4714 33.8425 86.4714 34.5235C86.4714 35.2453 86.3442 35.9344 86.0898 36.5904C85.8357 37.2463 85.4771 37.8312 85.0146 38.3442C84.5517 38.858 84.0101 39.2619 83.3904 39.5568C82.77 39.8517 82.0942 39.9991 81.3616 39.9991ZM77.6556 34.5082C77.6556 35.0571 77.7441 35.5886 77.9226 36.102C78.1003 36.6158 78.3519 37.0703 78.6775 37.4669C79.003 37.8636 79.3944 38.179 79.8517 38.4129C80.309 38.6468 80.8175 38.7635 81.3772 38.7635C81.9565 38.7635 82.4751 38.6415 82.9328 38.3975C83.3904 38.1536 83.7794 37.828 84.0997 37.4213C84.42 37.0145 84.6639 36.5569 84.8319 36.0484C84.9996 35.5399 85.0839 35.0264 85.0839 34.5078C85.0839 33.9589 84.9947 33.4301 84.8166 32.9216C84.6385 32.4131 84.3844 31.9579 84.054 31.5564C83.7236 31.1548 83.3318 30.8394 82.8794 30.6108C82.427 30.3818 81.9262 30.2675 81.3772 30.2675C80.7973 30.2675 80.279 30.3874 79.821 30.6258C79.3637 30.8652 78.9748 31.1876 78.6541 31.5944C78.3342 32.0011 78.0874 32.4563 77.9149 32.9596C77.7417 33.4632 77.6556 33.9798 77.6556 34.5082Z" fill="#171A21"/>
<path d="M89.7506 39.923V29.0938H91.1235V38.7027H97.1633V39.923H89.7506Z" fill="#171A21"/>
<path d="M104.088 39.9991C103.325 39.9991 102.634 39.8464 102.014 39.5418C101.394 39.2365 100.857 38.8228 100.405 38.2989C99.9521 37.7751 99.604 37.1853 99.36 36.5294C99.116 35.8738 98.994 35.2004 98.994 34.5085C98.994 33.7867 99.1237 33.0976 99.3826 32.4417C99.6419 31.7857 100.003 31.2012 100.466 30.6878C100.928 30.174 101.47 29.7673 102.09 29.4675C102.71 29.1678 103.386 29.0176 104.118 29.0176C104.881 29.0176 105.572 29.1751 106.193 29.4902C106.813 29.8053 107.346 30.2274 107.794 30.7561C108.241 31.2852 108.587 31.8749 108.831 32.5253C109.075 33.1764 109.198 33.8425 109.198 34.5235C109.198 35.2453 109.071 35.9344 108.816 36.5904C108.562 37.2463 108.203 37.8312 107.741 38.3442C107.278 38.858 106.736 39.2619 106.117 39.5568C105.496 39.8517 104.82 39.9991 104.088 39.9991ZM100.382 34.5082C100.382 35.0571 100.471 35.5886 100.649 36.102C100.827 36.6158 101.078 37.0703 101.404 37.4669C101.729 37.8636 102.121 38.179 102.578 38.4129C103.036 38.6468 103.544 38.7635 104.103 38.7635C104.683 38.7635 105.201 38.6415 105.659 38.3975C106.117 38.1536 106.506 37.828 106.826 37.4213C107.146 37.0145 107.39 36.5569 107.558 36.0484C107.726 35.5399 107.81 35.0264 107.81 34.5078C107.81 33.9589 107.721 33.4301 107.543 32.9216C107.365 32.4131 107.111 31.9579 106.78 31.5564C106.45 31.1548 106.058 30.8394 105.606 30.6108C105.153 30.3818 104.653 30.2675 104.104 30.2675C103.524 30.2675 103.006 30.3874 102.548 30.6258C102.09 30.8652 101.701 31.1876 101.381 31.5944C101.061 32.0011 100.814 32.4563 100.641 32.9596C100.468 33.4632 100.382 33.9798 100.382 34.5082Z" fill="#171A21"/>
<path d="M116.824 39.9998C116.112 39.9998 115.449 39.845 114.833 39.5345C114.218 39.2243 113.682 38.8078 113.224 38.2839C112.766 37.7601 112.411 37.1707 112.156 36.5147C111.902 35.8588 111.775 35.1802 111.775 34.4782C111.775 33.7459 111.902 33.052 112.156 32.3963C112.411 31.7404 112.764 31.1583 113.216 30.6498C113.669 30.1413 114.203 29.7422 114.818 29.4522C115.433 29.1626 116.102 29.0176 116.824 29.0176C117.871 29.0176 118.735 29.2365 119.416 29.6735C120.097 30.111 120.611 30.6801 120.957 31.3817L119.905 32.1137C119.59 31.4832 119.157 31.0154 118.608 30.7105C118.059 30.4055 117.454 30.2532 116.793 30.2532C116.244 30.2532 115.746 30.3699 115.299 30.6038C114.851 30.838 114.467 31.1555 114.147 31.5571C113.827 31.9586 113.583 32.4138 113.415 32.9223C113.247 33.4308 113.163 33.9596 113.163 34.5085C113.163 35.0881 113.257 35.6347 113.445 36.1481C113.633 36.6618 113.9 37.1142 114.246 37.5056C114.591 37.8974 114.994 38.2051 115.451 38.4282C115.909 38.6523 116.402 38.7639 116.93 38.7639C117.55 38.7639 118.14 38.6067 118.7 38.2912C119.259 37.9765 119.787 37.4931 120.286 36.8424V38.2609C119.31 39.4202 118.156 39.9998 116.824 39.9998ZM120.118 35.5615H117.785V34.5242H121.277V39.9235H120.118V35.5615Z" fill="#171A21"/>
<path d="M124.74 39.923V29.0938H126.113V39.923H124.74Z" fill="#171A21"/>
<path d="M137.429 38.7027V39.923H130.077V29.0938H137.292V30.314H131.45V33.8217H136.529V34.9656H131.45V38.7027H137.429Z" fill="#171A21"/>
<path d="M147.038 31.3668C146.916 31.2245 146.753 31.0869 146.55 30.9548C146.346 30.8227 146.117 30.7028 145.863 30.5965C145.609 30.4895 145.332 30.4034 145.032 30.3372C144.732 30.2713 144.419 30.2382 144.094 30.2382C143.26 30.2382 142.645 30.3954 142.249 30.7097C141.852 31.0238 141.654 31.4549 141.654 32.0021C141.654 32.3869 141.755 32.6912 141.959 32.9143C142.162 33.1373 142.475 33.32 142.897 33.4615C143.318 33.6037 143.855 33.7504 144.506 33.9027C145.258 34.0652 145.909 34.2628 146.458 34.4956C147.007 34.7288 147.429 35.0404 147.724 35.4307C148.019 35.8211 148.166 36.3404 148.166 36.9894C148.166 37.5063 148.068 37.9552 147.869 38.3352C147.671 38.7151 147.394 39.0294 147.038 39.278C146.681 39.5261 146.265 39.7084 145.787 39.8252C145.309 39.9416 144.791 39.9998 144.231 39.9998C143.682 39.9998 143.146 39.9412 142.622 39.8245C142.098 39.7077 141.603 39.5373 141.135 39.3135C140.667 39.0897 140.23 38.8102 139.823 38.4746L140.479 37.3153C140.642 37.4885 140.852 37.6583 141.112 37.8263C141.371 37.9939 141.666 38.1494 141.996 38.2916C142.327 38.4341 142.685 38.5485 143.072 38.6345C143.458 38.7213 143.854 38.7642 144.261 38.7642C145.034 38.7642 145.634 38.6255 146.061 38.347C146.488 38.0689 146.702 37.6614 146.702 37.1254C146.702 36.7197 146.582 36.3952 146.343 36.1519C146.104 35.9086 145.751 35.7057 145.283 35.5433C144.816 35.3813 144.246 35.2188 143.575 35.0568C142.843 34.8745 142.228 34.6737 141.73 34.4559C141.231 34.238 140.858 33.9515 140.608 33.5964C140.359 33.2412 140.235 32.7801 140.235 32.212C140.235 31.5229 140.403 30.9398 140.738 30.463C141.074 29.9862 141.536 29.6265 142.126 29.3825C142.715 29.1396 143.382 29.0176 144.124 29.0176C144.612 29.0176 145.067 29.0685 145.489 29.1702C145.911 29.272 146.305 29.4142 146.671 29.5976C147.037 29.7802 147.373 29.9991 147.678 30.2535L147.038 31.3668Z" fill="#171A21"/>
</svg>
