<svg width="112" height="41" viewBox="0 0 112 41" fill="none" xmlns="http://www.w3.org/2000/svg">
<path d="M41.608 34.832C41.0978 34.832 40.4949 34.7624 40.008 34.6697H36.1356V23.8177C36.1356 19.8294 39.2892 18.7859 41.608 18.7859C45.9441 18.7859 49.4687 22.38 49.4687 26.8089C49.4687 31.2379 45.9441 34.832 41.608 34.832ZM38.9413 20.4322C37.7587 20.1076 37.6196 21.1047 37.8515 21.6844C38.408 23.0525 41.2138 22.9134 41.2138 25.9046V31.006C42.8601 32.7914 44.5528 33.6958 45.5035 33.1161C46.8484 32.2813 46.176 28.7799 44.0195 25.3249C42.3963 22.7279 40.2631 20.8033 38.9413 20.4322Z" fill="white"/>
<path d="M55.1552 29.0118C55.2479 29.1741 55.3407 29.3364 55.4566 29.4988C58.1464 33.7422 61.0449 33.9045 63.7115 30.9596C63.8739 31.0987 64.013 31.261 64.1521 31.4002C62.1811 33.6494 60.7203 34.832 57.1957 34.832C53.0451 34.832 50.2625 32.1886 50.2625 28.3857C50.2625 24.6061 53.0451 21.9627 57.1957 21.9627C63.3174 21.9627 63.5029 26.9713 55.1552 29.0118ZM57.1262 24.6061C56.1523 23.0293 54.761 22.6119 53.8798 23.1684C52.6973 23.9336 53.3233 25.9046 54.8537 28.5249C56.8015 28.1307 58.3319 26.5539 57.1262 24.6061Z" fill="white"/>
<path d="M67.3832 25.1858C70.9078 26.0901 73.157 27.4814 73.0643 30.4263C72.9947 32.6523 71.9281 34.832 69.0064 34.832C66.8963 34.832 66.2934 33.3248 64.6934 33.3248C63.7195 33.3248 63.2558 33.8117 63.2558 34.6697H62.6761C62.6761 33.5335 62.7456 30.3335 65.2036 30.3335C68.218 30.3335 68.1948 34.2987 69.818 34.1595C70.3977 34.1132 70.9078 33.5567 70.7223 32.7451C70.5136 31.8639 69.6788 30.8668 67.105 30.3799C64.9253 29.9625 62.6065 28.5017 62.5369 25.8582C62.4674 23.8641 64.0905 21.9627 65.9456 21.9627C68.0557 21.9627 68.8904 23.1684 70.5136 23.1684C71.3947 23.1684 72.16 22.8206 72.16 22.125H72.7628C72.7628 23.238 72.3223 25.7655 70.3281 25.7655C68.4962 25.7655 67.5455 22.5424 65.9456 22.5424C64.5775 22.5424 64.0442 24.351 67.3832 25.1858Z" fill="white"/>
<path d="M74.0199 34.6697V23.7713C74.3909 24.2583 75.1561 24.6525 76.4778 24.8612C77.7068 25.0467 79.0981 25.0467 79.0981 26.693V34.6697H74.0199ZM79.5386 21.5453C79.5386 23.1684 78.356 24.3046 76.5706 24.3046C74.7851 24.3046 73.6025 23.1684 73.6025 21.5453C73.6025 19.8989 74.7851 18.7627 76.5706 18.7627C78.356 18.7627 79.5386 19.8989 79.5386 21.5453Z" fill="white"/>
<path d="M94.0462 36.687C94.1853 34.9711 91.5187 35.6204 88.5506 35.3421C85.4666 35.0639 82.8695 33.6494 82.8695 31.8639C82.8695 31.0292 83.3797 30.5654 84.1449 30.3103C81.5478 29.7538 80.0174 28.3857 80.0174 26.2524C80.0174 23.4467 82.684 21.9627 87.0202 21.9627C88.7129 21.9627 90.1274 22.1945 91.2636 22.6351C90.7303 20.9656 93.1882 19.9221 94.9041 22.009V22.5192C93.0954 22.125 92.423 22.9597 93.0954 23.8177C93.6983 24.4206 94.023 25.3249 94.023 26.2524C94.023 29.0582 91.3563 30.5654 87.0202 30.5654H86.6956C85.6753 30.5654 83.4261 30.5886 83.4261 31.632C83.4261 32.7451 85.6289 31.7016 87.7158 31.2147C91.8665 30.264 94.765 33.4175 94.765 36.7798C94.765 39.3536 92.4694 41 90.1738 41C87.8782 41 85.0956 39.1681 82.2898 39.1681C81.2696 39.1681 80.9217 39.7942 80.9217 40.8145H80.3884C80.0406 38.287 81.0377 35.0871 84.0521 35.0871C87.9245 35.0871 91.1245 37.8696 92.7244 37.8696C93.6751 37.8696 93.9998 37.4059 94.0462 36.687ZM89.2462 29.8002C90.2897 29.2901 89.7796 27.3655 88.4115 25.1858C86.8347 22.6583 85.8376 22.2177 84.7941 22.7047C83.7507 23.2148 84.2608 25.1394 85.6289 27.3423C87.2289 29.8698 88.226 30.3103 89.2462 29.8002Z" fill="white"/>
<path d="M94.9661 22.125H95.5458C95.5458 24.0032 96.7052 24.1423 98.0501 23.8177C99.4182 23.4931 100.67 21.9627 102.456 21.9627C106.467 21.9627 108.531 24.6293 107.951 28.2466C107.673 30.1016 107.534 31.4002 108.438 32.1886C109.041 32.7219 109.806 32.5596 110.548 31.8176L110.896 32.1886C109.343 34.2291 105.331 36.0146 103.36 33.5567C102.247 32.1422 102.479 30.148 102.78 28.1075C103.499 23.3539 102.293 22.6815 100.925 23.1221C100.253 23.3307 100.067 24.0264 100.044 24.9539V34.6697H94.9661V22.125Z" fill="white"/>
<path d="M6.90995 0.168536H9.12197L10.9759 5.24566L12.8508 0.168536H15.0628L12.4927 6.82568L14.7258 12.3241L19.3816 0.105334H21.9728L15.8423 15.0628H13.7988L10.9969 8.36356L8.17396 15.0628H6.1094L0 0.105334H2.57016L7.24702 12.3241L9.48011 6.82568L6.90995 0.168536Z" fill="white"/>
<path d="M33.9974 12.9772V15.0628H23.7378V0.105334H33.8078V2.19096H26.0973V6.44647H32.7755V8.40569H26.0973V12.9772H33.9974Z" fill="white"/>
<path d="M48.1868 11.2076C48.1868 12.0081 47.9761 12.6963 47.5548 13.2722C47.1475 13.848 46.5927 14.2904 45.8905 14.5994C45.1882 14.9083 44.4158 15.0628 43.5731 15.0628H36.4314V0.105334H44.1419C44.8441 0.105334 45.4481 0.294937 45.9537 0.674141C46.4733 1.0393 46.8666 1.51682 47.1334 2.10669C47.4143 2.68252 47.5548 3.28644 47.5548 3.91844C47.5548 4.64876 47.3652 5.33695 46.9859 5.983C46.6208 6.61501 46.0941 7.0855 45.4059 7.39448C46.2626 7.64729 46.9368 8.11076 47.4284 8.7849C47.934 9.445 48.1868 10.2526 48.1868 11.2076ZM45.7641 10.7652C45.7641 10.3439 45.6728 9.96465 45.4902 9.62758C45.3217 9.27646 45.0829 8.99557 44.7739 8.7849C44.479 8.56019 44.1279 8.44783 43.7206 8.44783H38.7909V13.0193H43.5731C43.9944 13.0193 44.3666 12.921 44.6897 12.7244C45.0267 12.5137 45.2865 12.2399 45.4691 11.9028C45.6657 11.5517 45.7641 11.1725 45.7641 10.7652ZM38.7909 2.14882V6.55181H43.1307C43.524 6.55181 43.8751 6.46052 44.184 6.27794C44.493 6.08131 44.7388 5.82149 44.9214 5.49846C45.104 5.16139 45.1953 4.78219 45.1953 4.36085C45.1953 3.92547 45.111 3.54626 44.9425 3.22324C44.7739 2.88617 44.5422 2.62634 44.2472 2.44376C43.9664 2.24714 43.6363 2.14882 43.2571 2.14882H38.7909Z" fill="white"/>
<path d="M56.8622 15.1682C55.7808 15.1682 54.8047 14.9575 53.9339 14.5362C53.0631 14.1148 52.3118 13.546 51.6798 12.8297C51.0477 12.0994 50.5562 11.2848 50.2051 10.386C49.868 9.47309 49.6995 8.53912 49.6995 7.58409C49.6995 6.58692 49.882 5.63891 50.2472 4.74005C50.6124 3.82715 51.118 3.01959 51.764 2.31736C52.4101 1.60109 53.1685 1.0393 54.0392 0.632007C54.9241 0.210669 55.8791 0 56.9043 0C57.9717 0 58.9408 0.217691 59.8116 0.653074C60.6964 1.08846 61.4478 1.67131 62.0657 2.40163C62.6977 3.13195 63.1823 3.94653 63.5194 4.84539C63.8705 5.74424 64.046 6.66416 64.046 7.60515C64.046 8.60232 63.8634 9.55735 63.4983 10.4703C63.1472 11.3691 62.6486 12.1767 62.0025 12.8929C61.3565 13.5952 60.591 14.1499 59.7062 14.5572C58.8355 14.9645 57.8875 15.1682 56.8622 15.1682ZM52.1011 7.58409C52.1011 8.28632 52.2134 8.96748 52.4382 9.62758C52.6629 10.2877 52.9789 10.8775 53.3862 11.3972C53.8075 11.9028 54.3131 12.3031 54.903 12.598C55.4929 12.8929 56.153 13.0404 56.8833 13.0404C57.6417 13.0404 58.3158 12.8859 58.9057 12.5769C59.4956 12.268 59.9871 11.8536 60.3804 11.334C60.7877 10.8003 61.0967 10.2104 61.3073 9.56437C61.518 8.90428 61.6233 8.24418 61.6233 7.58409C61.6233 6.88186 61.511 6.20771 61.2863 5.56166C61.0756 4.90157 60.7596 4.31872 60.3382 3.81311C59.9169 3.29346 59.4113 2.88617 58.8214 2.59123C58.2456 2.29629 57.5995 2.14882 56.8833 2.14882C56.1249 2.14882 55.4507 2.30331 54.8609 2.6123C54.271 2.92128 53.7724 3.33559 53.3651 3.85524C52.9578 4.37489 52.6418 4.95774 52.4171 5.6038C52.2064 6.24985 52.1011 6.90995 52.1011 7.58409Z" fill="white"/>
<path d="M66.4888 15.0628V0.105334H72.9985C73.6726 0.105334 74.2906 0.24578 74.8524 0.526672C75.4141 0.807565 75.8987 1.17975 76.306 1.64322C76.7273 2.10669 77.0503 2.62634 77.275 3.20217C77.5138 3.778 77.6332 4.36787 77.6332 4.97179C77.6332 5.63189 77.5138 6.26389 77.275 6.86781C77.0363 7.47173 76.6922 7.99138 76.2428 8.42676C75.8074 8.86214 75.2948 9.17815 74.7049 9.37477L78.2231 15.0628H75.5686L72.3243 9.85931H68.8483V15.0628H66.4888ZM68.8483 7.77369H72.9774C73.4128 7.77369 73.799 7.64729 74.1361 7.39448C74.4732 7.14168 74.74 6.80461 74.9366 6.38327C75.1332 5.94789 75.2316 5.4774 75.2316 4.97179C75.2316 4.45214 75.1192 3.98867 74.8945 3.58137C74.6698 3.16004 74.3748 2.82296 74.0097 2.57016C73.6586 2.31736 73.2723 2.19096 72.851 2.19096H68.8483V7.77369Z" fill="white"/>
<path d="M80.4168 15.0628V0.105334H82.7763V15.0628H80.4168Z" fill="white"/>
<path d="M97.1326 2.19096H92.1608V15.0628H89.7802V2.19096H84.7874V0.105334H97.1326V2.19096Z" fill="white"/>
<path d="M100.234 0.105334L104.363 7.54195L108.534 0.105334H111.125L105.543 9.71184V15.0628H103.183V9.66971L97.6426 0.105334H100.234Z" fill="white"/>
</svg>
