<svg width="155" height="86" viewBox="0 0 155 86" fill="none" xmlns="http://www.w3.org/2000/svg">
<path d="M58.6424 42.5824C58.7165 48.2184 55.1309 52.7687 49.8632 53.7874C44.5963 54.8061 39.8111 52.5878 37.5191 48.0241C35.0396 43.0046 36.018 35.2107 42.7868 32.2821C50.393 28.9916 58.1397 33.9106 58.5891 41.6978C58.6092 42.0195 58.6292 42.3478 58.6424 42.5824ZM54.9162 42.3679C54.8657 41.7446 54.7784 41.1247 54.6551 40.5116C53.9516 37.65 52.2827 35.6128 49.3543 34.9225C46.4258 34.2323 43.7916 34.9225 41.8285 37.3351C41.0757 38.2925 40.5409 39.4023 40.2608 40.5875C39.9807 41.7726 39.9622 43.0044 40.2065 44.1974C41.118 50.0412 46.7672 51.9043 50.9289 49.7866C53.7902 48.3457 54.8359 45.759 54.9162 42.3679Z" fill="#0F3C66"/>
<path d="M14.7715 53.6215V31.7275C14.9859 31.7275 15.1736 31.7275 15.3613 31.7275C17.5929 31.7275 19.8312 31.7275 22.0628 31.7275C24.0151 31.7043 25.9486 32.1116 27.7257 32.9204C31.0764 34.502 32.8121 37.2094 33.2544 40.8148C33.5406 42.8247 33.3664 44.8733 32.7451 46.806C31.4919 50.4919 28.7778 52.5158 25.0584 53.273C23.8461 53.4921 22.6178 53.6109 21.3859 53.6282C19.3755 53.6818 17.365 53.6282 15.3545 53.6282L14.7715 53.6215ZM18.4574 50.2037C20.6689 50.1568 22.8737 50.4182 24.9981 49.6944C26.1159 49.3698 27.1206 48.739 27.8987 47.8733C28.6768 47.0076 29.1972 45.9416 29.401 44.7956C29.6104 43.6915 29.6623 42.5634 29.5552 41.4448C29.4966 40.1165 29.0227 38.84 28.2004 37.7953C27.378 36.7505 26.2486 35.9901 24.9713 35.6211C22.8469 34.8974 20.6421 35.1319 18.4306 35.0984L18.4574 50.2037Z" fill="#0F3C66"/>
<path d="M70.6748 45.0838L65.9106 40.0978L65.7693 40.1581V53.5814H62.1172V31.2451L70.6748 40.1782L79.2531 31.2451V53.5814H75.6142V40.1782L75.4667 40.1113L70.6748 45.0838Z" fill="#0F3C66"/>
<path d="M91.4963 31.2402L104.899 45.3135V31.7495H108.558V54.0256L95.1553 39.9523V53.5832H91.4824L91.4963 31.2402Z" fill="#0F3C66"/>
<path d="M135.74 26.6706C137.08 27.0325 138.36 27.2805 139.352 28.2253C139.571 28.4606 139.695 28.7685 139.701 29.0899C139.701 35.5591 139.701 42.0261 139.701 48.4908C139.64 49.7117 139.244 50.8922 138.555 51.902C137.17 54.0181 135.41 55.8625 133.361 57.3436C131.184 58.9987 128.854 60.4438 126.404 61.6594C126.29 61.7176 126.166 61.7518 126.037 61.7599C125.909 61.768 125.781 61.7498 125.661 61.7063C122.001 59.9229 118.648 57.5679 115.729 54.73C114.354 53.4524 113.304 51.8648 112.666 50.0993C112.471 49.4972 112.367 48.8691 112.358 48.2362C112.358 41.9032 112.358 35.5703 112.358 29.2373C112.338 28.9984 112.381 28.7584 112.482 28.541C112.583 28.3237 112.739 28.1364 112.934 27.9975C113.985 27.3316 115.155 26.8764 116.379 26.6572C116.379 27.3273 116.379 27.8902 116.379 28.4599C116.379 28.5739 116.185 28.7146 116.051 28.7749C115.515 29.0161 114.771 29.0899 114.476 29.4987C114.181 29.9074 114.369 30.6111 114.369 31.1875C114.369 36.5956 114.369 42.0037 114.335 47.4119C114.321 48.8587 114.781 50.2704 115.642 51.4328C116.886 53.152 118.414 54.6476 120.159 55.8558C121.941 57.1024 123.811 58.2215 125.654 59.3675C125.756 59.4217 125.869 59.4532 125.985 59.4602C126.1 59.4672 126.216 59.4492 126.324 59.4077C129.675 57.625 132.838 55.5878 135.405 52.7464C135.913 52.169 136.381 51.5577 136.805 50.9169C137.468 49.9273 137.807 48.7566 137.777 47.566C137.751 41.7312 137.751 35.8986 137.777 30.0683C137.777 29.5522 137.616 29.2641 137.147 29.1368L137.033 29.0965C136.618 28.929 135.934 28.8553 135.834 28.5806C135.704 27.9526 135.673 27.3083 135.74 26.6706Z" fill="#F21D23"/>
<path d="M121.808 41.6249C121.176 41.2349 120.638 40.7101 120.233 40.0879C119.827 39.4658 119.565 38.7618 119.463 38.0262C119.245 36.7836 119.414 35.5043 119.945 34.3604C120.897 32.4236 123.376 30.8287 125.125 31.0498V34.0521C124.565 34.1864 124.053 34.4727 123.645 34.8794C123.237 35.2862 122.949 35.7976 122.814 36.3575C122.609 37.1338 122.702 37.9584 123.074 38.6699C123.446 39.3813 124.07 39.9284 124.824 40.2042C124.985 40.2645 125.192 40.4588 125.192 40.5996C125.226 41.5177 125.192 42.4358 125.192 43.3807C123.262 43.9436 122.083 45.1097 122.19 47.2073C122.284 49.0636 123.45 50.042 125.159 50.5245V53.5805C123.803 53.5408 122.489 53.1061 121.377 52.3299C120.265 51.5538 119.404 50.4698 118.9 49.211C117.821 46.2556 118.685 44.0174 121.808 41.6249Z" fill="#0F3C66"/>
<path d="M126.557 53.5837C126.557 52.6455 126.557 51.7073 126.557 50.7691C126.557 50.6418 126.845 50.4676 127.025 50.4072C127.584 50.2456 128.095 49.9494 128.514 49.5445C128.931 49.1396 129.243 48.6384 129.423 48.0847C129.602 47.5312 129.643 46.942 129.541 46.369C129.44 45.796 129.2 45.2566 128.842 44.798C128.275 44.1072 127.486 43.6337 126.61 43.4577V40.3214C127.334 40.1388 127.97 39.7067 128.406 39.101C128.843 38.4954 129.052 37.7552 128.996 37.0108C128.984 36.326 128.744 35.6647 128.313 35.1326C127.881 34.6005 127.284 34.2283 126.617 34.0755V31.0397C128.58 30.9258 131 32.581 131.891 34.6184C132.943 37.0376 132.299 39.3095 129.881 41.6416C132.836 43.518 134.015 46.078 132.715 49.4556C132.181 50.6535 131.319 51.6763 130.23 52.4065C129.141 53.1368 127.867 53.5448 126.557 53.5837Z" fill="#0F3C66"/>
<path d="M84.1523 31.7266H87.765V53.5803H84.1523V31.7266Z" fill="#0F3C66"/>
<path d="M123.927 25.5216C124.282 25.5216 124.644 25.5216 125.006 25.5216C125.508 25.5685 125.797 25.401 125.884 24.8514C125.945 24.5157 126.08 24.1977 126.279 23.9199C126.38 24.1553 126.465 24.3971 126.534 24.6437C126.655 25.3139 126.97 25.6154 127.673 25.4881C128.042 25.4596 128.411 25.4596 128.779 25.4881C128.476 25.7811 128.152 26.05 127.808 26.2923C127.697 26.3402 127.599 26.4119 127.521 26.5022C127.442 26.5925 127.384 26.6992 127.351 26.8146C127.319 26.93 127.312 27.0511 127.332 27.1694C127.351 27.2877 127.397 27.4001 127.465 27.4986C127.603 27.8485 127.72 28.2066 127.814 28.5708C127.338 28.229 126.977 27.9878 126.641 27.7197C126.592 27.6617 126.53 27.6151 126.461 27.5832C126.391 27.5513 126.315 27.5347 126.239 27.5347C126.163 27.5347 126.087 27.5513 126.017 27.5832C125.948 27.6151 125.887 27.6617 125.837 27.7197C125.523 27.9965 125.168 28.2226 124.785 28.3899C124.919 27.9677 125.04 27.5388 125.187 27.1233C125.219 27.0591 125.238 26.9892 125.243 26.9176C125.247 26.8461 125.238 26.7743 125.216 26.7064C125.192 26.6384 125.156 26.5758 125.108 26.5219C125.061 26.4681 125.004 26.4243 124.939 26.3928C124.57 26.1516 124.269 25.8634 123.887 25.602L123.927 25.5216Z" fill="#F21D23"/>
<path d="M132.726 28.52C131.962 27.7694 131.292 27.6152 130.548 28.52C131.031 27.5281 130.91 26.8111 129.838 26.342C130.85 26.4425 131.527 26.1878 131.593 25.0352C131.755 26.1543 132.351 26.5162 133.437 26.2817C132.525 26.8714 132.15 27.5148 132.726 28.52Z" fill="#F21D23"/>
<path d="M119.463 28.5099C119.585 28.33 119.661 28.1231 119.685 27.907C119.709 27.6909 119.681 27.4722 119.601 27.2698C119.522 27.0672 119.395 26.887 119.231 26.7447C119.067 26.6023 118.87 26.5021 118.658 26.4526C119.603 26.4861 120.374 26.3855 120.394 25.1592C120.622 26.1577 121.065 26.6938 122.197 26.285L122.157 26.4794C121.855 26.7542 121.406 26.982 121.299 27.3171C121.192 27.6522 121.433 28.0944 121.54 28.5837C121.131 28.3156 120.797 27.9135 120.461 27.9135C120.126 27.9135 119.804 28.3022 119.463 28.5099Z" fill="#F21D23"/>
</svg>
