<svg width="155" height="86" viewBox="0 0 155 86" fill="none" xmlns="http://www.w3.org/2000/svg">
<path d="M78.8359 73.1881C78.8359 73.0226 78.9068 72.928 78.9544 72.8095C82.3867 65.6608 85.9137 58.5359 89.4169 51.411C90.9318 48.3338 92.423 45.2802 93.9618 42.203C94.2927 41.5166 94.2695 40.9012 93.8903 40.2383C91.0973 35.5516 88.3513 30.8411 85.5583 26.1306C85.4637 25.9649 85.3452 25.7993 85.2267 25.6335C85.1559 25.5152 85.0613 25.3969 85.0143 25.2785C84.8958 24.9471 85.0613 24.663 85.3928 24.5921C85.4875 24.5684 85.606 24.5684 85.7006 24.5684C86.1268 24.6394 86.5762 24.6157 87.0025 24.6157C95.2868 24.6157 103.572 24.6157 111.857 24.6157C112.141 24.6157 112.425 24.6157 112.709 24.6157C112.827 24.6157 112.969 24.6157 113.088 24.6867C113.3 24.7814 113.348 24.8997 113.3 25.1128C113.253 25.3258 113.111 25.4915 112.992 25.6572C111.052 28.3793 109.135 31.1015 107.193 33.8236C106.791 34.3917 106.389 34.9835 105.986 35.5516C105.892 35.6936 105.773 35.8356 105.655 35.954C105.442 36.1433 105.276 36.1433 105.063 35.954C104.944 35.8593 104.85 35.7173 104.755 35.5752C103.43 33.7053 102.104 31.8589 100.803 29.9653C100.4 29.3735 99.8793 29.0895 99.1453 29.1131C97.725 29.1368 96.2815 29.1368 94.8612 29.1368C94.6243 29.1368 94.3873 29.1131 94.151 29.1131C93.7725 29.1131 93.6064 29.3972 93.8195 29.7286C93.9379 29.9179 94.1034 30.0837 94.2219 30.273C96.5416 33.5632 98.8376 36.8535 101.205 40.0964C101.844 40.9722 101.844 41.4692 101.181 42.3688C96.6363 48.7125 92.0914 55.0563 87.5703 61.4C85.0851 64.8796 82.576 68.3829 80.0901 71.8624C79.9247 72.0993 79.7592 72.3594 79.5699 72.6202C79.3806 72.8803 79.1907 73.0934 78.8359 73.1881Z" fill="#CF0417"/>
<path d="M111.666 56.6188C110.459 56.6188 109.252 56.6425 108.045 56.6188C105.37 56.5715 102.672 56.5242 99.9967 56.4295C99.6419 56.4058 99.2865 56.4295 98.9318 56.4058C98.3401 56.3585 98.2216 56.1217 98.5532 55.6484C99.1449 54.7726 99.7836 53.9204 100.375 53.0682C101.843 51.0089 103.287 48.9495 104.755 46.9139C104.849 46.7955 104.92 46.6535 105.039 46.5588C105.276 46.322 105.489 46.322 105.701 46.5588C105.796 46.6535 105.867 46.7481 105.938 46.8665C107.004 48.4051 108.092 49.92 109.133 51.4586C109.678 52.2397 110.364 52.5711 111.312 52.5001C112.519 52.4055 113.75 52.4765 114.957 52.4765C115.241 52.4765 115.549 52.5001 115.833 52.5001C115.88 52.5001 115.951 52.5001 115.998 52.5001C116.306 52.4528 116.424 52.1924 116.259 51.932C116.117 51.719 115.951 51.5296 115.809 51.3166C113.678 48.3104 111.572 45.2806 109.394 42.298C109.323 42.2034 109.252 42.1087 109.205 42.014C108.944 41.5642 108.92 41.1382 109.181 40.6884C109.252 40.5464 109.347 40.428 109.418 40.3097C115.714 31.5042 121.987 22.675 128.283 13.8695C128.591 13.4434 128.923 13.0174 129.23 12.615C129.277 12.544 129.348 12.4492 129.443 12.5203C129.538 12.5913 129.538 12.6623 129.49 12.7569C129.467 12.8043 129.443 12.8517 129.42 12.9227C125.917 19.8345 122.413 26.7227 118.91 33.6345C117.774 35.8596 116.637 38.1083 115.501 40.3334C115.146 40.9962 115.193 41.6116 115.596 42.2507C118.507 46.7008 121.419 51.1509 124.307 55.6247C124.425 55.7903 124.543 55.9561 124.662 56.0981C124.78 56.2875 124.875 56.4768 124.756 56.6899C124.638 56.9029 124.425 56.9502 124.212 56.9266C123.431 56.8792 122.673 56.8792 121.893 56.8792C118.768 56.8556 115.643 56.8082 112.519 56.7846C112.211 56.7846 111.903 56.7846 111.596 56.7846C111.666 56.6662 111.666 56.6425 111.666 56.6188Z" fill="#444444"/>
<path d="M32.5363 38.8193C34.0276 38.8193 35.5425 38.8193 37.0338 38.8193C37.1285 38.8193 37.2468 38.8193 37.3415 38.8193C37.5782 38.843 37.6019 38.8667 37.6019 39.1034C37.6019 39.7188 37.6019 40.3106 37.6019 40.9261C37.6019 41.1154 37.5072 41.1864 37.3415 41.1864C37.2468 41.1864 37.1285 41.1864 37.0338 41.1864C34.1696 41.1864 31.3054 41.1864 28.465 41.1864C28.2756 41.1864 28.0862 41.1864 27.8969 41.2337C27.5418 41.3285 27.3524 41.5415 27.3288 41.8966C27.3288 41.9912 27.3288 42.1096 27.3288 42.2043C27.3288 44.1926 27.3288 46.181 27.3288 48.1693C27.3288 48.2403 27.3288 48.335 27.3288 48.406C27.3524 48.8558 27.5655 49.0924 27.9916 49.1871C28.1809 49.2108 28.3703 49.2345 28.5596 49.2345C30.6664 49.2345 32.7731 49.2345 34.8797 49.2345C34.9034 49.2345 34.927 49.2345 34.9507 49.2345C35.3295 49.2345 35.3531 49.2108 35.3531 48.8321C35.3531 48.1693 35.3531 47.5065 35.3531 46.8201C35.3531 46.3703 35.3531 46.3703 34.9034 46.3703C33.1991 46.3703 31.4712 46.3703 29.7668 46.3703C29.2224 46.3703 29.1988 46.4413 29.1988 45.7786C29.1988 45.3052 29.1988 44.8317 29.1988 44.382C29.1988 44.0269 29.2224 44.0032 29.5775 44.0032C30.477 44.0032 31.3528 44.0032 32.2523 44.0032C33.5779 44.0032 34.9034 44.0269 36.229 44.0032C37.1521 43.9796 37.7202 44.4056 37.7202 45.4708C37.6965 47.0331 37.7202 48.5954 37.7202 50.1577C37.7202 50.2996 37.7202 50.4654 37.6965 50.6074C37.6255 51.1281 37.1758 51.5542 36.6551 51.5779C36.584 51.5779 36.513 51.5779 36.442 51.5779C33.7198 51.5779 30.9977 51.5779 28.2756 51.5779C27.6128 51.5779 26.9737 51.4122 26.4056 51.0571C25.4824 50.4891 25.009 49.6132 24.9617 48.548C24.938 47.7432 24.9617 46.9384 24.9617 46.1336C24.9617 44.737 24.9617 43.3405 24.9617 41.9439C24.9854 40.571 25.8848 39.3401 27.1631 38.9614C27.5418 38.843 27.9442 38.8193 28.3466 38.8193C29.7432 38.8193 31.1398 38.8193 32.5363 38.8193Z" fill="#444444"/>
<path d="M50.4785 47.434C52.0643 48.8069 53.6031 50.1325 55.1181 51.4343C55.0473 51.5764 54.9526 51.5528 54.8811 51.5528C53.8871 51.5528 52.893 51.5528 51.8989 51.5528C51.6858 51.5528 51.5203 51.458 51.3548 51.3397C49.9345 50.1088 48.4904 48.8779 47.07 47.6471C46.8808 47.4813 46.6915 47.4103 46.4307 47.4103C46.0998 47.434 45.7444 47.4103 45.4134 47.4103C45.1765 47.4103 45.1288 47.363 45.1288 47.15C45.1288 46.5582 45.1288 45.9664 45.1288 45.351C45.1288 45.1142 45.1765 45.0906 45.4366 45.0669C45.5313 45.0669 45.6497 45.0669 45.7444 45.0669C47.1885 45.0669 48.6558 45.0669 50.1 45.0669C50.55 45.0669 50.9756 44.9959 51.378 44.7592C51.875 44.4752 52.1596 44.0728 52.2543 43.5046C52.3489 42.8893 52.3013 42.2738 52.3013 41.6347C52.3013 41.2796 52.1596 41.1612 51.7572 41.1612C50.7155 41.1612 49.6976 41.1612 48.6558 41.1612C47.3778 41.1612 46.076 41.1612 44.7979 41.1612C44.7033 41.1612 44.6086 41.1612 44.514 41.1612C44.3479 41.1612 44.2532 41.2323 44.2532 41.4216C44.2532 41.5163 44.2532 41.6347 44.2532 41.7294C44.2532 44.8066 44.2532 47.8837 44.2532 50.9846C44.2532 51.6237 44.2532 51.5764 43.6615 51.5764C43.1883 51.5764 42.7144 51.5764 42.265 51.5764C41.9572 51.5764 41.9336 51.5527 41.9336 51.2687C41.9336 51.2213 41.9336 51.174 41.9336 51.1267C41.9336 47.4813 41.9336 43.8124 41.9336 40.1671C41.9336 39.954 41.9336 39.7174 42.0519 39.528C42.265 39.1256 42.549 38.8889 43.0222 38.8652C43.1168 38.8652 43.2353 38.8652 43.33 38.8652C46.1706 38.8652 49.0112 38.8652 51.8281 38.8652C52.6567 38.8652 53.3668 39.1256 53.9347 39.741C54.3371 40.1908 54.5972 40.7115 54.6449 41.3033C54.7157 42.2028 54.7395 43.1022 54.5972 44.0018C54.3133 45.8007 52.9406 47.1263 51.1417 47.4103C50.9286 47.3867 50.7393 47.4103 50.4785 47.434Z" fill="#444444"/>
<path d="M64.8907 38.8191C66.5003 38.8191 68.1099 38.8191 69.6963 38.8191C69.791 38.8191 69.8856 38.8191 69.9802 38.8191C70.2404 38.8428 70.288 38.8664 70.288 39.1269C70.288 39.7186 70.288 40.2867 70.288 40.8785C70.288 41.1152 70.2404 41.1625 69.9802 41.1625C69.8856 41.1625 69.7671 41.1625 69.6725 41.1625C66.998 41.1625 64.299 41.1625 61.6244 41.1625C61.5536 41.1625 61.459 41.1625 61.3875 41.1625C61.0566 41.1625 61.0328 41.1862 61.0328 41.5413C61.0328 43.6953 61.0328 45.8493 61.0328 48.0034C61.0328 48.1927 61.0328 48.3821 61.0797 48.5715C61.1512 48.9266 61.3405 49.1159 61.6953 49.1869C61.9322 49.2343 62.1923 49.2343 62.4293 49.2343C64.8907 49.2343 67.3527 49.2343 69.8148 49.2343C70.288 49.2343 70.288 49.2343 70.3118 49.7313C70.3118 50.2284 70.3118 50.7255 70.3118 51.1989C70.3118 51.5303 70.288 51.554 69.9564 51.554C67.2581 51.554 64.5597 51.554 61.8845 51.554C60.8666 51.554 60.0148 51.1279 59.3755 50.3468C58.9731 49.8497 58.7368 49.2816 58.7368 48.6425C58.7368 47.3643 58.7368 46.0861 58.713 44.8078C58.713 43.4586 58.713 42.0857 58.713 40.7365C58.713 40.4524 58.6892 40.1447 58.7368 39.8607C58.7838 39.2688 59.21 38.8664 59.7779 38.8191C59.8964 38.7954 60.0387 38.8191 60.1565 38.8191C61.7191 38.8191 63.3049 38.8191 64.8907 38.8191Z" fill="#444444"/>
<path d="M79.9937 47.8825C80.3485 47.1724 80.6562 46.5333 80.964 45.8942C82.0765 43.6218 83.1891 41.373 84.2778 39.1007C84.3725 38.8876 84.491 38.793 84.7279 38.793C85.3904 38.793 86.0297 38.793 86.6922 38.793C86.7161 38.793 86.7631 38.793 86.7869 38.793C86.953 38.8166 87 38.864 86.9292 39.0296C86.8107 39.3137 86.6453 39.5978 86.5268 39.8818C84.7279 43.5508 82.929 47.2197 81.1294 50.8887C80.964 51.2437 80.7509 51.5278 80.3723 51.6698C79.8044 51.8592 79.2121 51.6461 78.9281 51.1017C78.6919 50.6993 78.5026 50.2733 78.2894 49.8472C76.5614 46.3439 74.8571 42.8406 73.1529 39.3374C73.1052 39.219 73.0344 39.1007 72.9867 38.9823C72.9398 38.864 72.9636 38.793 73.1052 38.793C73.176 38.793 73.2713 38.793 73.3422 38.793C73.9338 38.793 74.5255 38.8166 75.0934 38.793C75.4012 38.793 75.5904 38.8876 75.7089 39.1717C76.9399 41.7044 78.171 44.2609 79.4252 46.7937C79.5675 47.1487 79.7098 47.5038 79.9937 47.8825Z" fill="#444444"/>
<path d="M65.5788 46.3703C64.5377 46.3703 63.5198 46.3703 62.478 46.3703C62.4072 46.3703 62.3126 46.3703 62.2411 46.3703C61.934 46.3703 61.9102 46.3466 61.9102 46.0152C61.9102 45.7311 61.9102 45.4471 61.9102 45.163C61.9102 44.879 61.9102 44.5712 61.9102 44.2872C61.9102 44.0505 61.9571 44.0032 62.1941 43.9795C62.2649 43.9795 62.3364 43.9795 62.4072 43.9795C64.5139 43.9795 66.6205 43.9795 68.7272 43.9795C69.248 43.9795 69.248 43.9795 69.248 44.4766C69.248 44.9736 69.248 45.4708 69.248 45.9442C69.248 46.3229 69.2242 46.3466 68.8456 46.3466C67.7569 46.3703 66.6675 46.3703 65.5788 46.3703Z" fill="#444444"/>
</svg>
