<svg width="155" height="86" viewBox="0 0 155 86" fill="none" xmlns="http://www.w3.org/2000/svg">
<path d="M46.5009 24.2829C45.8821 23.9807 45.2135 23.7936 44.5279 23.7305C43.6145 23.681 42.6991 23.681 41.7856 23.7305C41.0162 23.7305 40.2271 23.7305 39.4578 23.7305H28.0548C27.9604 23.7318 27.8673 23.7537 27.7822 23.7946C27.697 23.8355 27.6218 23.8944 27.5616 23.9673L23.8133 28.0115C23.8133 28.0115 23.6555 28.1102 23.8133 28.2286C23.9564 28.2589 24.1042 28.2589 24.2473 28.2286H37.623C37.951 28.2146 38.2787 28.2614 38.5897 28.3666C38.6953 28.3896 38.7944 28.4359 38.8799 28.5018C38.9655 28.5678 39.0353 28.652 39.0844 28.7483C39.1335 28.8445 39.1605 28.9505 39.1637 29.0585C39.1668 29.1665 39.146 29.2738 39.1026 29.3728C39.004 29.649 38.8856 29.9252 38.7673 30.2013C37.5047 33.0816 36.2618 35.9423 34.9795 38.8226C34.6441 39.6117 34.3284 40.4206 33.9141 41.19C33.7719 41.4971 33.543 41.756 33.2556 41.9347C32.9682 42.1135 32.6348 42.2043 32.2964 42.1961H29.495C29.3964 42.1961 29.2978 42.1961 29.1991 42.0975L34.9005 29.0769C34.739 29.0333 34.5688 29.0333 34.4073 29.0769H27.3841C27.2452 29.0665 27.1069 29.1038 26.9921 29.1828C26.8773 29.2617 26.7928 29.3775 26.7528 29.5109L22.3731 39.375L12.5091 61.5691C12.4207 61.6883 12.3786 61.8355 12.3907 61.9834C12.5328 62.022 12.6826 62.022 12.8247 61.9834H19.8677C20.0027 62.0038 20.1405 61.9752 20.2563 61.9029C20.3721 61.8305 20.4581 61.7192 20.499 61.5889C21.2289 59.912 21.9983 58.2351 22.7282 56.5582C22.8466 56.3017 22.9256 56.0058 23.0439 55.7296C23.1623 55.4534 23.399 55.0391 23.5765 54.684C24.7602 52.0207 25.9439 49.3574 27.1079 46.7927C27.1487 46.6625 27.2348 46.5511 27.3506 46.4787C27.4664 46.4064 27.6042 46.3778 27.7392 46.3982H33.6576C34.545 46.4186 35.4317 46.3392 36.3012 46.1615C37.6045 45.931 38.7773 45.2287 39.5958 44.1886C39.9438 43.7789 40.2175 43.3116 40.4047 42.8077C40.9965 41.5253 41.5489 40.243 42.121 38.862L46.856 28.268C47.0966 27.7841 47.3009 27.283 47.4675 26.7687C47.6093 26.306 47.5912 25.8089 47.416 25.3578C47.2402 24.9067 46.9178 24.528 46.5009 24.2829Z" fill="url(#paint0_linear_5776_4943)"/>
<path d="M115.93 34.2283C115.965 34.046 115.965 33.8583 115.93 33.676V27.1459C115.93 26.9684 115.93 26.9092 116.186 26.9092H117.39C117.567 26.9092 117.646 26.9092 117.646 27.1459C117.636 27.2377 117.636 27.3303 117.646 27.4221V36.7535C117.646 37.0889 117.646 37.0889 117.291 37.0889H116.107C115.99 37.104 115.872 37.0815 115.769 37.0248C115.667 36.968 115.584 36.8799 115.535 36.7732C114.726 35.4515 113.898 34.1297 113.088 32.8277L111.372 30.0854C111.316 29.9534 111.219 29.8428 111.096 29.7698V36.8917C111.096 37.0495 111.096 37.1284 110.879 37.1284H109.616C109.459 37.1284 109.38 37.1284 109.399 36.9114V27.4221C109.399 26.8697 109.399 26.9289 109.913 26.9289H110.859C110.991 26.9118 111.125 26.937 111.242 27.0008C111.359 27.0646 111.453 27.1637 111.51 27.284C112.832 29.4542 114.193 31.6242 115.456 33.7943C115.576 33.9752 115.739 34.1242 115.93 34.2283Z" fill="#049BCD"/>
<path d="M124.036 41.8407V48.6469C124.036 49.1796 124.036 49.1401 123.563 49.1401H122.616C122.419 49.1401 122.34 49.1401 122.34 48.8837C122.35 48.8117 122.35 48.7386 122.34 48.6666V39.4733C122.34 38.9604 122.34 38.9801 122.833 38.9801C123.148 38.9998 123.465 38.9998 123.78 38.9801C123.92 38.9621 124.062 38.9886 124.186 39.0558C124.31 39.1232 124.41 39.2278 124.47 39.355C125.417 40.9332 126.443 42.5115 127.39 44.0897L128.633 46.0625C128.645 46.1178 128.671 46.1689 128.709 46.2106C128.747 46.2522 128.796 46.2829 128.85 46.2993C128.888 46.1572 128.888 46.0073 128.85 45.8652V39.5523C128.86 39.4472 128.86 39.3416 128.85 39.2366C128.85 39.059 128.85 38.9801 129.107 38.9801C129.363 38.9801 129.916 38.9801 130.31 38.9801C130.705 38.9801 130.567 38.9801 130.547 39.2366V48.9034C130.547 49.0809 130.547 49.1598 130.31 49.1401H128.87C128.633 49.1401 128.554 48.9823 128.456 48.8442C127.686 47.5619 126.897 46.2993 126.128 45.0367C125.536 44.0897 124.944 43.0638 124.332 42.1761C124.308 42.1032 124.27 42.0359 124.219 41.9783C124.168 41.9207 124.106 41.8738 124.036 41.8407Z" fill="#6CB97D"/>
<path d="M140.623 48.0769C140.516 48.1089 140.425 48.1791 140.366 48.2741C139.924 48.7304 139.375 49.0686 138.769 49.2581C138.162 49.4477 137.518 49.4824 136.894 49.3592C135.977 49.2748 135.108 48.9121 134.403 48.3197C133.697 47.7273 133.19 46.9337 132.949 46.0449C132.683 45.2663 132.577 44.442 132.638 43.6215C132.699 42.801 132.926 42.0013 133.304 41.2707C133.666 40.5311 134.227 39.9069 134.924 39.4679C135.621 39.0289 136.426 38.7924 137.249 38.7849C138.046 38.726 138.845 38.8614 139.577 39.1795C140.152 39.4116 140.657 39.7876 141.044 40.2713C141.43 40.755 141.686 41.3301 141.787 41.9414C141.787 42.2176 141.787 42.257 141.53 42.257H140.366C140.169 42.257 140.09 42.257 140.031 42.0006C139.844 41.4092 139.45 40.9053 138.92 40.5825C138.39 40.2597 137.762 40.1397 137.15 40.2448C136.598 40.3001 136.073 40.5166 135.641 40.8672C135.21 41.218 134.891 41.6874 134.724 42.2176C134.221 43.4847 134.221 44.8961 134.724 46.1632C134.91 46.7101 135.269 47.1821 135.745 47.5091C136.221 47.8361 136.79 48.0007 137.368 47.9783C137.922 48.0264 138.478 47.9097 138.966 47.6429C139.347 47.4133 139.664 47.0897 139.886 46.7028C140.106 46.316 140.224 45.8789 140.229 45.4333C140.229 45.236 140.11 45.236 139.952 45.236H137.96C137.802 45.236 137.723 45.236 137.743 45.019C137.763 44.802 137.743 44.3877 137.743 44.0721C137.743 43.7564 137.743 43.855 137.96 43.855H138.137C139.321 43.855 140.504 43.855 141.688 43.855C142.063 43.855 142.083 43.855 142.083 44.2101V48.8463C142.083 49.2014 142.083 49.2211 141.727 49.2014C140.741 49.2014 140.998 49.3789 140.741 48.4517C140.702 48.2939 140.721 48.1755 140.623 48.0769Z" fill="#6CB97D"/>
<path d="M95.6233 32.2513C96.0427 32.3779 96.4081 32.6406 96.6614 32.9978C96.9154 33.355 97.0427 33.7865 97.0239 34.2241C97.0239 34.6582 97.0239 35.0724 97.0239 35.4867C97.073 36.0558 97.2269 36.6109 97.4778 37.1242H95.7421C95.5839 37.1242 95.5251 37.1242 95.4851 36.9071C95.3742 36.6109 95.3208 36.2962 95.3275 35.9799C95.3669 35.4875 95.3669 34.9927 95.3275 34.5003C95.3227 34.2886 95.2748 34.0802 95.1869 33.8875C95.099 33.6949 94.9724 33.5223 94.816 33.3802C94.659 33.238 94.4748 33.1293 94.2742 33.0608C94.0742 32.9922 93.8614 32.9651 93.6505 32.9812C92.8021 32.9812 91.9342 32.9812 91.0857 32.9812C90.8293 32.9812 90.8099 33.0996 90.8099 33.2969V36.6309C90.7996 36.7359 90.7996 36.8416 90.8099 36.9466C90.8099 37.1044 90.8099 37.1833 90.573 37.1833H89.2317C89.0736 37.1833 88.9948 37.1833 89.0148 36.9663V27.4179C89.0148 26.8655 89.0148 26.9247 89.5075 26.9247H93.7099C94.1596 26.9159 94.6099 26.9556 95.0511 27.0431C95.4118 27.095 95.7572 27.2226 96.0651 27.4174C96.373 27.6123 96.636 27.8699 96.8372 28.1735C97.0384 28.4772 97.173 28.8199 97.2324 29.1793C97.2918 29.5386 97.2748 29.9065 97.182 30.2588C97.139 30.6552 96.9948 31.0339 96.7633 31.3586C96.5318 31.6834 96.2208 31.9432 95.8602 32.1132L95.6233 32.2513ZM92.5457 28.424C92.0524 28.424 91.5596 28.424 91.0663 28.424C90.573 28.424 90.7705 28.424 90.7899 28.72V31.2254C90.7899 31.5608 90.7899 31.5608 91.1451 31.5608H93.6705C93.8796 31.5897 94.0924 31.5897 94.3014 31.5608C94.596 31.5125 94.8627 31.3581 95.0511 31.1268C95.2493 30.8684 95.3724 30.5606 95.4069 30.2371C95.442 29.9135 95.3869 29.5866 95.2487 29.2921C95.1408 29.0424 94.9572 28.8333 94.7233 28.695C94.4887 28.5567 94.2172 28.4963 93.9463 28.5227C93.473 28.4043 92.9996 28.424 92.5457 28.424Z" fill="#049BCD"/>
<path d="M78.9338 44.0674V39.1945C78.9338 39.0564 78.9338 38.9775 79.1508 38.9973H80.4532C80.6502 38.9973 80.729 38.9973 80.7096 39.2734V42.6864C80.7096 43.0415 80.7096 43.0415 81.0647 43.0415H85.0102C85.3653 43.0415 85.3847 43.0415 85.3847 42.6667V39.4116C85.3847 38.9973 85.3847 38.9973 85.7993 38.9775C86.2138 38.9578 86.5096 38.9775 86.8841 38.9775C87.2593 38.9775 87.1999 38.9775 87.1805 39.2734C87.1708 39.3587 87.1708 39.4447 87.1805 39.5299C87.1805 42.5483 87.1805 45.5667 87.1805 48.5851C87.1702 48.6901 87.1702 48.7958 87.1805 48.9008C87.1805 49.0849 87.1011 49.1638 86.9435 49.1375H85.5623C85.3653 49.1375 85.3259 49.0389 85.3259 48.8416V44.896C85.3259 44.5408 85.3259 44.5408 84.9708 44.5408H81.0253C80.6502 44.5408 80.6308 44.5408 80.6308 44.9157V48.8613C80.6308 48.96 80.6308 49.0191 80.4532 49.0191H79.052C79.0308 49.0225 79.009 49.0208 78.9884 49.0141C78.9671 49.0073 78.9484 48.9957 78.9332 48.9804C78.9181 48.965 78.9065 48.9462 78.8993 48.9255C78.8926 48.9048 78.8908 48.8828 78.8944 48.8613V44.0674H78.9338Z" fill="#6CB97D"/>
<path d="M89.748 44.0502V39.5521C89.748 39.5521 89.748 39.3351 89.748 39.2365C89.748 39.1379 89.7481 38.98 89.985 38.9997H96.6135C96.6923 39.0096 96.7717 39.0096 96.8505 38.9997C97.0474 38.9997 97.1068 39.0984 97.0868 39.2759V40.3215C97.0868 40.5188 97.0868 40.5977 96.8305 40.578H91.8002C91.642 40.578 91.5832 40.578 91.5832 40.8147V42.9454C91.5832 43.1229 91.5832 43.2019 91.8196 43.2019H96.219C96.6529 43.2019 96.6529 43.2019 96.6529 43.6556C96.6529 44.1093 96.6529 44.1291 96.6529 44.3658C96.6529 44.6025 96.6529 44.6617 96.3571 44.642H91.9578C91.5832 44.642 91.5832 44.642 91.5832 45.0168C91.5832 45.7665 91.5832 46.5162 91.5832 47.2659C91.5832 47.6012 91.5832 47.6209 91.9384 47.6209H96.6135C97.2644 47.6209 97.1856 47.6209 97.1856 48.2128V48.8836C97.1856 49.0611 97.1856 49.1597 96.9293 49.14H90.2414C89.7681 49.14 89.768 49.14 89.748 48.6863V44.0502Z" fill="#6CB97D"/>
<path d="M132.325 30.1807C131.831 30.3188 131.536 30.1807 131.319 29.5099C131.189 29.1499 130.959 28.8351 130.654 28.6039C130.349 28.3728 129.983 28.2351 129.602 28.2079C128.988 28.0697 128.345 28.1472 127.78 28.4274C127.216 28.7076 126.766 29.1735 126.505 29.7467C126.149 30.4536 125.964 31.2339 125.964 32.0253C125.964 32.8166 126.149 33.597 126.505 34.3039C126.777 34.8753 127.237 35.3361 127.808 35.609C128.379 35.8819 129.026 35.9505 129.642 35.8032C130.13 35.7095 130.579 35.4714 130.931 35.1197C131.283 34.768 131.521 34.3188 131.614 33.8304C131.773 33.2385 131.752 33.2385 132.345 33.2385H133.114C133.469 33.2385 133.469 33.2385 133.429 33.5739C133.386 34.329 133.128 35.0558 132.683 35.6679C132.239 36.28 131.628 36.7515 130.924 37.0264C129.847 37.4694 128.643 37.4946 127.548 37.0969C126.454 36.6991 125.547 35.9072 125.005 34.876C124.539 34.0123 124.295 33.0462 124.295 32.0647C124.295 31.0833 124.539 30.1171 125.005 29.2534C125.39 28.477 125.992 27.8288 126.738 27.3876C127.484 26.9463 128.342 26.731 129.208 26.7677C130.018 26.7696 130.816 26.9658 131.536 27.3398C132.002 27.5885 132.408 27.9365 132.725 28.3591C133.042 28.7818 133.262 29.269 133.37 29.7861C133.37 29.7861 133.37 29.9637 133.37 30.0426C133.37 30.1215 133.37 30.2596 133.173 30.2596L132.325 30.1807Z" fill="#049BCD"/>
<path d="M107.974 37.0883H106.277C106.1 37.0883 106.06 36.9699 106.021 36.8318L105.311 34.859C105.172 34.4644 105.172 34.4644 104.778 34.4644H101.523C101.128 34.4644 101.128 34.4644 100.99 34.859C100.852 35.2536 100.517 36.1808 100.3 36.8318C100.3 37.0488 100.122 37.1475 99.8858 37.1278H98.4258C98.4258 36.9897 98.4258 36.891 98.4258 36.7924C99.6488 33.6359 100.852 30.4793 102.075 27.3031C102.214 26.9678 102.214 26.9678 102.588 26.9678H103.713C104.108 26.9678 104.108 26.9678 104.265 27.3426L106.238 32.2944C106.81 33.7345 107.363 35.1944 107.935 36.6543C107.983 36.7934 107.997 36.9426 107.974 37.0883ZM103.22 28.7433L101.74 32.9454H104.699L103.22 28.7433Z" fill="#049BCD"/>
<path d="M79.0554 32.0361V27.1238C79.0554 26.966 79.0554 26.9068 79.2723 26.9265H83.4154C83.8329 26.9169 84.2499 26.9566 84.6584 27.0449C85.2814 27.1566 85.8475 27.4774 86.2638 27.9545C86.6796 28.4316 86.9208 29.0363 86.9469 29.6687C87.0069 30.0147 87.0069 30.3684 86.9469 30.7143C86.8814 31.4363 86.5432 32.1061 86.0002 32.5865C85.4572 33.067 84.7517 33.3218 84.0269 33.2987C83.139 33.2987 82.2317 33.2987 81.3438 33.2987H81.0281C80.9099 33.2987 80.8505 33.3579 80.8505 33.4763V36.8498C80.8505 37.1654 80.8505 37.1851 80.5354 37.1851H79.2529C79.036 37.1851 78.9766 37.1852 78.9766 36.8893C78.9766 36.1199 78.9766 35.3307 78.9766 34.5613L79.0554 32.0361ZM80.8505 30.0633V31.4443C80.8505 31.6613 80.8505 31.7402 81.1269 31.7402H83.4747C83.6184 31.7594 83.7644 31.7594 83.9087 31.7402C84.1263 31.7039 84.3341 31.6222 84.5184 31.5006C84.7026 31.3791 84.859 31.2202 84.9784 31.0342C85.0972 30.8483 85.176 30.6395 85.2093 30.4213C85.242 30.2031 85.2293 29.9803 85.1711 29.7674C85.1693 29.5747 85.1275 29.3845 85.0487 29.2087C84.9699 29.0329 84.8554 28.8752 84.7129 28.7457C84.5705 28.616 84.4026 28.5173 84.2202 28.4554C84.0372 28.3936 83.8438 28.3701 83.6523 28.3864H81.0281C80.7717 28.3864 80.7523 28.5048 80.7523 28.702L80.8505 30.0633Z" fill="#049BCD"/>
<path d="M107.701 49.1395H106.005C105.827 49.1395 105.807 49.0014 105.748 48.883C105.551 48.2715 105.334 47.6599 105.117 47.0483C104.9 46.4367 105.018 46.4959 104.288 46.4762H101.329C100.856 46.4762 100.856 46.4762 100.698 46.9497L100.027 48.9225C100.012 49.0186 99.9612 49.1052 99.8836 49.164C99.8066 49.2229 99.709 49.2495 99.6127 49.2381H98.1133C98.163 48.9773 98.249 48.725 98.3696 48.4885L101.802 39.5122C101.961 39.0781 101.98 39.0979 102.414 39.0781H103.46C103.854 39.0781 103.854 39.0781 103.992 39.453L105.63 43.6551L107.602 48.7252C107.664 48.8551 107.697 48.9961 107.701 49.1395ZM104.427 45.0952L102.947 40.8537C102.835 40.9345 102.758 41.0541 102.73 41.189L101.901 43.517C101.763 43.951 101.605 44.385 101.447 44.819C101.29 45.253 101.447 45.0952 101.645 45.0952H104.427Z" fill="#6CB97D"/>
<path d="M109.254 44.0743V39.5367C109.264 39.445 109.264 39.3524 109.254 39.2606C109.254 39.083 109.254 38.9844 109.51 38.9844C109.767 38.9844 110.378 38.9844 110.812 38.9844C111.247 38.9844 111.049 39.083 111.049 39.2409V47.3491C111.049 47.5661 111.049 47.6253 111.345 47.6253H115.843C116.178 47.6253 116.198 47.6253 116.198 47.9607V48.9077C116.198 49.0852 116.198 49.1641 115.961 49.1444H109.491C109.333 49.1444 109.254 49.1444 109.254 48.9471C109.264 48.8421 109.264 48.7364 109.254 48.6315V44.0743Z" fill="#6CB97D"/>
<path d="M120.305 31.9763V27.1034C120.305 26.9851 120.305 26.9062 120.502 26.9259H121.942C122.06 26.9259 122.12 26.9259 122.12 27.1232V36.7505C122.12 37.0859 122.12 37.0859 121.765 37.0859H120.64C120.325 37.0859 120.305 37.0859 120.305 36.7308V31.9763Z" fill="#049BCD"/>
<path d="M68.226 40.7568C68.2575 40.8071 68.2739 40.8652 68.2739 40.9245C68.2739 40.9838 68.2575 41.0419 68.226 41.0922L63.2739 52.5148C63.1163 52.8699 62.9387 53.225 62.8006 53.5801C62.7775 53.6676 62.7212 53.743 62.6442 53.7906C62.5672 53.8383 62.4751 53.8548 62.386 53.8366H55.0472C54.9042 53.867 54.7563 53.867 54.6133 53.8366C54.6133 53.659 54.6133 53.521 54.7321 53.3631L57.9278 46.1229C58.0175 45.8999 58.186 45.7175 58.4012 45.6099L68.009 40.8949L68.226 40.7568Z" fill="url(#paint1_linear_5776_4943)"/>
<path d="M59.5767 37.1079C59.5403 37.2276 59.4628 37.3308 59.3585 37.3993C59.2537 37.4679 59.1282 37.4974 59.0046 37.4828H55.6306C55.4925 37.4828 55.4337 37.4828 55.4925 37.2658C55.524 37.1703 55.5634 37.0779 55.6112 36.9896C56.2422 35.5495 56.8537 34.129 57.4852 32.7085C58.7476 29.8085 60.03 26.9282 61.2925 24.0479C61.2925 23.9493 61.4306 23.8506 61.2925 23.7125H53.7761C53.6809 23.7041 53.5858 23.729 53.5064 23.7829C53.427 23.8368 53.3694 23.9165 53.3422 24.0085C52.7306 25.3895 52.1391 26.7507 51.5276 28.1119L45.964 40.5801C44.4515 44.0128 42.939 47.4455 41.4265 50.8782C41.0911 51.6476 40.6966 52.3973 40.4401 53.1864C40.1883 53.6596 39.9644 54.147 39.7693 54.6463C38.7435 56.9545 37.7965 59.243 36.7312 61.5512C36.7312 61.6893 36.5339 61.8077 36.5931 62.0049H44.1292C44.2458 62.0187 44.3634 61.9906 44.461 61.9255C44.5586 61.8604 44.6299 61.7627 44.6619 61.6498C45.0959 60.6437 45.5497 59.677 45.984 58.6511C48.1343 53.8177 50.304 48.9646 52.4543 44.1115C52.77 43.4012 53.1058 42.6713 53.4209 41.9413C53.4525 41.8426 53.5161 41.7575 53.6022 41.7001C53.6882 41.6427 53.7918 41.6164 53.8949 41.6257C54.9997 41.6257 56.124 41.6257 57.2288 41.6257C57.2809 41.6128 57.3361 41.6198 57.3834 41.6453C57.4312 41.6709 57.467 41.7131 57.4852 41.7638L56.3609 44.3482L65.7119 39.791C63.9755 38.0352 62.3385 36.2596 60.6022 34.5038C60.2864 35.4902 59.9119 36.2991 59.5767 37.1079Z" fill="url(#paint2_linear_5776_4943)"/>
<path d="M75.6959 23.672H68.1201C68.0256 23.6694 67.9328 23.6992 67.8577 23.7566C67.7819 23.8141 67.7286 23.8957 67.7062 23.9877L63.5631 33.3191C63.4056 33.6742 63.4056 33.6742 63.6619 33.9307L68.6528 39.0206C68.6868 39.0796 68.7316 39.1311 68.7862 39.1719C68.8407 39.2126 68.9025 39.2417 68.9686 39.2573C71.2965 34.1083 73.5656 28.9395 75.8541 23.7115L75.6959 23.672Z" fill="url(#paint3_linear_5776_4943)"/>
<path d="M117.932 44.0871V39.4116C117.932 38.9973 117.932 38.9973 118.347 38.9775C118.761 38.9578 119.057 38.9775 119.412 38.9775C119.767 38.9775 119.728 38.9775 119.708 39.2734V48.9008C119.708 49.0849 119.629 49.1638 119.471 49.1375H118.169C118.011 49.1375 117.913 49.1375 117.932 48.9205V44.0871Z" fill="#6CB97D"/>
<defs>
<linearGradient id="paint0_linear_5776_4943" x1="16.4416" y1="59.5686" x2="47.7075" y2="23.6707" gradientUnits="userSpaceOnUse">
<stop stop-color="#0089CC"/>
<stop offset="1" stop-color="#4BAC90"/>
</linearGradient>
<linearGradient id="paint1_linear_5776_4943" x1="39.3129" y1="61.8876" x2="76.0793" y2="23.6737" gradientUnits="userSpaceOnUse">
<stop stop-color="#2CA49F"/>
<stop offset="1" stop-color="#83C661"/>
</linearGradient>
<linearGradient id="paint2_linear_5776_4943" x1="39.3097" y1="61.8865" x2="76.0761" y2="23.6726" gradientUnits="userSpaceOnUse">
<stop stop-color="#2CA49F"/>
<stop offset="1" stop-color="#83C661"/>
</linearGradient>
<linearGradient id="paint3_linear_5776_4943" x1="39.31" y1="61.8869" x2="76.0765" y2="23.673" gradientUnits="userSpaceOnUse">
<stop stop-color="#2CA49F"/>
<stop offset="1" stop-color="#83C661"/>
</linearGradient>
</defs>
</svg>
