<svg width="155" height="86" viewBox="0 0 155 86" fill="none" xmlns="http://www.w3.org/2000/svg">
<path fill-rule="evenodd" clip-rule="evenodd" d="M41.8194 47.3828C40.2742 47.3828 39.0187 48.6383 39.0187 50.1835C39.0187 50.5216 39.067 50.8596 39.2118 51.1493L36.5077 52.9843C36.1697 52.6462 35.6868 52.4531 35.1556 52.4531C34.5279 52.4531 33.9485 52.7428 33.5621 53.2257L30.7615 51.5356C31.0029 51.1493 31.0995 50.6664 31.0995 50.1835C31.0995 48.6383 29.844 47.3828 28.2988 47.3828C26.7536 47.3828 25.498 48.6383 25.498 50.1835C25.498 51.7288 26.7536 52.9843 28.2988 52.9843C28.7816 52.9843 29.2162 52.8877 29.6026 52.6462L33.1275 54.7226C33.2241 55.3986 33.6587 56.0264 34.2382 56.3161V64.7665H30.4235V66.2634H40.2259V64.7665H35.7351V56.4127C36.556 56.1713 37.1355 55.3986 37.1355 54.4812C37.1355 54.4329 37.1355 54.4329 37.1355 54.3846L40.081 52.3565C40.5639 52.7428 41.1434 52.9359 41.8194 52.9359C43.3646 52.9359 44.6203 51.6805 44.6203 50.1353C44.6203 48.6383 43.3646 47.3828 41.8194 47.3828Z" fill="url(#paint0_linear_5788_5574)"/>
<path d="M21.1984 31.3012C22.1051 31.3012 22.8402 30.5661 22.8402 29.6594C22.8402 28.7527 22.1051 28.0176 21.1984 28.0176C20.2917 28.0176 19.5566 28.7527 19.5566 29.6594C19.5566 30.5661 20.2917 31.3012 21.1984 31.3012Z" fill="url(#paint1_linear_5788_5574)"/>
<path fill-rule="evenodd" clip-rule="evenodd" d="M35.3484 23.4781C36.459 23.4781 37.3765 22.5606 37.3765 21.45C37.3765 20.3393 36.459 19.4219 35.3484 19.4219C34.2378 19.4219 33.3203 20.3393 33.3203 21.45C33.3203 22.5606 34.1895 23.4781 35.3484 23.4781Z" fill="url(#paint2_linear_5788_5574)"/>
<path fill-rule="evenodd" clip-rule="evenodd" d="M41.3843 27.8245V31.3012C40.7565 31.6393 40.322 32.3153 40.322 33.0879C40.322 34.1985 41.2394 35.116 42.35 35.116C43.4607 35.116 44.3783 34.1985 44.3783 33.0879C44.3783 32.1222 43.7504 31.3496 42.8812 31.1081V27.9211C43.9435 27.6797 44.7163 26.7139 44.7163 25.555C44.7163 24.2029 43.6055 23.1406 42.3018 23.1406C40.998 23.1406 39.8874 24.2512 39.8874 25.555C39.8391 26.5691 40.4668 27.4865 41.3843 27.8245Z" fill="url(#paint3_linear_5788_5574)"/>
<path d="M49.3991 31.3012C50.3059 31.3012 51.041 30.5661 51.041 29.6594C51.041 28.7527 50.3059 28.0176 49.3991 28.0176C48.4929 28.0176 47.7578 28.7527 47.7578 29.6594C47.7578 30.5661 48.4929 31.3012 49.3991 31.3012Z" fill="url(#paint4_linear_5788_5574)"/>
<path fill-rule="evenodd" clip-rule="evenodd" d="M27.0922 34.7768C27.4302 34.9699 27.8165 35.1148 28.2028 35.1148C29.3135 35.1148 30.2309 34.1973 30.2309 33.0867C30.2309 31.9761 29.3135 31.0586 28.2028 31.0586C27.0922 31.0586 26.1747 31.9761 26.1747 33.0867C26.1747 33.2315 26.1747 33.4247 26.223 33.5696L22.7946 35.9357C22.3117 35.5011 21.684 35.2113 21.0079 35.2113C19.5593 35.2113 18.4004 36.3703 18.4004 37.8189C18.4004 39.0744 19.3179 40.1367 20.5251 40.3782V44.4826C19.9456 44.7241 19.511 45.3035 19.511 45.9795C19.511 46.8488 20.2353 47.573 21.1045 47.573C21.9737 47.573 22.698 46.8488 22.698 45.9795C22.698 45.4484 22.4083 44.9655 21.9737 44.6757V40.2816C22.9395 39.8953 23.6155 38.9295 23.6155 37.8672C23.6155 37.674 23.6155 37.4809 23.5672 37.2877L27.0922 34.7768Z" fill="url(#paint5_linear_5788_5574)"/>
<path fill-rule="evenodd" clip-rule="evenodd" d="M28.2001 28.0173C28.9727 28.0173 29.697 27.6311 30.1316 27.0516L33.8015 28.3071C33.8981 28.6934 34.1395 29.0314 34.5258 29.2728V35.4054C33.4152 35.6951 32.5943 36.7091 32.5943 37.9164C32.5943 39.365 33.7532 40.5239 35.2019 40.5239C36.6505 40.5239 37.8094 39.365 37.8094 37.9164C37.8094 36.7575 37.0368 35.7917 36.0228 35.4054V29.3211C36.5056 29.0796 36.8436 28.5485 36.8436 27.9691C36.8436 27.1482 36.1676 26.4238 35.2984 26.4238C34.8639 26.4238 34.5258 26.5687 34.2361 26.8584L30.5662 25.603C30.5662 24.2992 29.5039 23.2852 28.2001 23.2852C26.8964 23.2852 25.834 24.3475 25.834 25.6512C25.834 26.955 26.8964 28.0173 28.2001 28.0173Z" fill="url(#paint6_linear_5788_5574)"/>
<path fill-rule="evenodd" clip-rule="evenodd" d="M49.4018 35.0215C47.8563 35.0215 46.6013 36.277 46.6013 37.8222C46.6013 38.0636 46.6495 38.3534 46.6977 38.5948L43.5106 40.816C43.1726 40.5263 42.738 40.3814 42.2551 40.3814C41.2411 40.3814 40.4202 41.1058 40.2753 42.0715L30.0866 41.8301C29.8451 41.0092 29.0725 40.3814 28.1551 40.3814C27.0444 40.3814 26.127 41.2989 26.127 42.4095C26.127 43.5202 27.0444 44.4376 28.1551 44.4376C28.9759 44.4376 29.652 43.9548 29.99 43.2787L40.6133 43.5684C40.9996 44.0996 41.5791 44.4376 42.2551 44.4376C43.3657 44.4376 44.2832 43.5202 44.2832 42.4095C44.2832 42.313 44.2832 42.2164 44.2832 42.1198L47.5183 39.8503C48.0015 40.3332 48.6776 40.5746 49.4018 40.5746C50.9467 40.5746 52.2024 39.3191 52.2024 37.7739C52.2024 36.2287 50.9467 35.0215 49.4018 35.0215Z" fill="url(#paint7_linear_5788_5574)"/>
<path d="M49.5449 47.5698C50.4245 47.5698 51.1379 46.8564 51.1379 45.9763C51.1379 45.0963 50.4245 44.3828 49.5449 44.3828C48.6646 44.3828 47.9512 45.0963 47.9512 45.9763C47.9512 46.8564 48.6646 47.5698 49.5449 47.5698Z" fill="url(#paint8_linear_5788_5574)"/>
<path fill-rule="evenodd" clip-rule="evenodd" d="M35.2009 49.1675C36.0701 49.1675 36.7944 48.4432 36.7944 47.574C36.7944 46.7048 36.0701 45.9805 35.2009 45.9805C34.3317 45.9805 33.6074 46.7048 33.6074 47.574C33.6074 48.4432 34.3317 49.1675 35.2009 49.1675Z" fill="url(#paint9_linear_5788_5574)"/>
<path d="M61.5225 40.7147C60.6536 40.7147 59.8324 40.5698 59.1081 40.2318C58.3839 39.9421 57.7561 39.5075 57.2252 38.928C56.6938 38.3486 56.2594 37.6725 55.9696 36.8999C55.6798 36.1273 55.5352 35.2581 55.5352 34.3407C55.5352 33.4715 55.6798 32.6506 55.9696 31.9263C56.2594 31.2019 56.6938 30.5742 57.2252 29.9948C57.7561 29.4636 58.4321 29.029 59.1563 28.7393C59.9294 28.4495 60.75 28.3047 61.6195 28.3047C62.0057 28.3047 62.3919 28.353 62.7781 28.4013C63.1643 28.4495 63.5506 28.5461 63.9374 28.691C64.3236 28.8359 64.6134 28.9807 64.9026 29.1739C65.1442 29.3187 65.2894 29.4636 65.4823 29.6084C65.6275 29.7533 65.7239 29.8982 65.7239 30.0914C65.7239 30.1879 65.7239 30.3328 65.6757 30.4294C65.6275 30.5742 65.5787 30.6708 65.4823 30.8157C65.3376 31.0088 65.1924 31.1537 65.0478 31.2503C64.9026 31.3468 64.758 31.3951 64.6134 31.3951C64.5164 31.3951 64.42 31.3468 64.3236 31.2985C64.2266 31.2503 64.0338 31.1537 63.8404 31.0088C63.6958 30.9122 63.5024 30.8157 63.2613 30.7191C63.0197 30.6225 62.7299 30.5259 62.4401 30.4776C62.1503 30.4294 61.8605 30.3811 61.5225 30.3811C60.75 30.3811 60.074 30.5259 59.4462 30.8639C58.8671 31.2019 58.3839 31.6365 58.0459 32.2643C57.7079 32.8438 57.5633 33.5681 57.5633 34.3889C57.5633 35.2098 57.7079 35.9342 58.0459 36.5619C58.3839 37.1897 58.8671 37.6725 59.4462 38.0588C60.0258 38.3968 60.7018 38.59 61.4743 38.59C61.7641 38.59 62.0057 38.59 62.2955 38.5417C62.5853 38.4934 62.8263 38.4451 63.1161 38.3968C63.3577 38.3486 63.5994 38.252 63.8404 38.1554V35.403H61.4743C61.3297 35.403 61.1844 35.403 61.0398 35.3547C60.8952 35.3064 60.7982 35.2581 60.75 35.1133C60.6536 34.9684 60.6536 34.7753 60.6536 34.4855C60.6536 34.1958 60.7018 33.9543 60.7982 33.8578C60.8952 33.7129 60.9916 33.6646 61.1362 33.6163C61.2814 33.5681 61.4261 33.5681 61.5713 33.5681H65.1442C65.4341 33.5681 65.6757 33.6163 65.8203 33.7129C65.9655 33.8095 66.0619 33.9543 66.1101 34.0992C66.1583 34.2441 66.1583 34.4373 66.1583 34.6304V38.6866C66.1583 38.928 66.0619 39.1694 65.8203 39.4109C65.5787 39.6523 65.2895 39.8938 64.8544 40.0869C64.5646 40.2318 64.2754 40.3283 63.9374 40.4249C63.5994 40.5215 63.2125 40.6181 62.8263 40.6664C62.3919 40.6664 61.9575 40.7147 61.5225 40.7147Z" fill="#29398F"/>
<path d="M69.3943 40.6153C69.0563 40.6153 68.8153 40.567 68.6701 40.4704C68.5254 40.3738 68.4284 40.229 68.3802 40.0841C68.332 39.9393 68.332 39.7461 68.332 39.5529V29.4608C68.332 29.2676 68.332 29.1228 68.3802 28.9296C68.4284 28.7848 68.5254 28.6399 68.6701 28.5433C68.8153 28.4468 69.0563 28.3984 69.3943 28.3984H73.1125C73.6439 28.3984 74.1747 28.495 74.6579 28.6399C75.1406 28.7848 75.575 29.0745 75.9618 29.4125C76.348 29.7505 76.6379 30.1851 76.8789 30.7163C77.1205 31.2474 77.2169 31.8269 77.2169 32.5029C77.2169 32.9375 77.1687 33.4204 77.0241 33.855C76.8789 34.2896 76.6861 34.7242 76.3962 35.1105C76.1064 35.4968 75.7684 35.8348 75.334 36.0762C74.899 36.3659 74.4163 36.5108 73.8367 36.6074H70.4083V39.5529C70.4083 39.7461 70.4083 39.891 70.3601 40.0841C70.3119 40.229 70.2155 40.3738 70.0703 40.4704C69.9739 40.567 69.7323 40.6153 69.3943 40.6153ZM70.4565 34.531H73.4023C73.5957 34.531 73.8367 34.4827 74.0301 34.4344C74.2229 34.3378 74.4163 34.2413 74.5609 34.0481C74.7062 33.9033 74.8508 33.6619 74.9478 33.4204C75.0442 33.1789 75.0924 32.8892 75.0924 32.5029C75.0924 32.0684 74.996 31.7303 74.8508 31.4406C74.7062 31.1509 74.4645 30.9094 74.1747 30.7646C73.8849 30.6197 73.4987 30.5231 73.1125 30.5231H70.4565V34.531ZM76.8307 40.3739C76.4926 40.6153 76.2028 40.7118 76.01 40.6153C75.8166 40.567 75.575 40.3738 75.3822 40.0359L72.4364 35.5934L74.8026 35.2554L77.1205 38.7803C77.2651 39.0218 77.3621 39.2149 77.4103 39.3598C77.4585 39.5047 77.4103 39.6979 77.3139 39.7944C77.2169 39.891 77.0241 40.1807 76.8307 40.3739Z" fill="#29398F"/>
<path d="M84.6077 40.7629C83.7871 40.7629 82.9659 40.6181 82.2416 40.2801C81.5174 39.9421 80.8896 39.5075 80.3099 38.9763C79.7309 38.3968 79.2959 37.7691 79.0067 36.9965C78.7168 36.2722 78.5234 35.4513 78.5234 34.6304C78.5234 33.7612 78.6686 32.9403 79.0067 32.1677C79.2959 31.3951 79.7309 30.7191 80.2617 30.1396C80.7931 29.5602 81.421 29.1256 82.1452 28.7876C82.8695 28.4495 83.5937 28.3047 84.4149 28.3047C85.2838 28.3047 86.0562 28.4495 86.7804 28.7876C87.5053 29.1256 88.1325 29.5602 88.7122 30.1396C89.2436 30.7191 89.678 31.3951 90.016 32.1194C90.354 32.892 90.4986 33.6646 90.4986 34.5338C90.4986 35.403 90.354 36.1756 90.0642 36.9482C89.7744 37.7208 89.34 38.3486 88.8086 38.928C88.2777 39.5075 87.6499 39.9421 86.9257 40.2801C86.1532 40.6181 85.3802 40.7629 84.6077 40.7629ZM84.5113 38.6383C85.0422 38.6383 85.5254 38.5417 86.008 38.3003C86.4912 38.1071 86.8775 37.8174 87.2155 37.4311C87.5535 37.0448 87.8433 36.6102 88.0361 36.1273C88.2295 35.6444 88.3259 35.1133 88.3259 34.5338C88.3259 33.9543 88.2295 33.4232 88.0361 32.9403C87.8433 32.4574 87.5535 32.0229 87.2155 31.6365C86.8775 31.2503 86.443 30.9605 86.008 30.7673C85.5254 30.5742 85.0422 30.4294 84.5113 30.4294C83.9799 30.4294 83.4973 30.5259 83.0141 30.7673C82.5314 30.9605 82.1452 31.2503 81.759 31.6365C81.421 32.0229 81.1312 32.4574 80.9378 32.9403C80.745 33.4232 80.6479 33.9543 80.6479 34.5338C80.6479 35.1133 80.745 35.6444 80.9378 36.1273C81.1312 36.6102 81.421 37.0448 81.759 37.4311C82.097 37.8174 82.5314 38.1071 82.9659 38.3003C83.4009 38.4934 83.9799 38.6383 84.5113 38.6383Z" fill="#29398F"/>
<path d="M95.9012 40.5698C95.6596 40.5698 95.4662 40.5215 95.3216 40.4249C95.1764 40.3283 95.08 40.2318 95.0318 40.1352C94.9836 40.0386 94.9353 39.9421 94.8871 39.8455L91.4582 29.8016C91.3618 29.4153 91.3136 29.1256 91.41 28.9324C91.507 28.7393 91.748 28.5944 92.1342 28.4495C92.424 28.353 92.6174 28.3047 92.762 28.3047C92.9072 28.3047 93.0519 28.4013 93.1483 28.4979C93.2453 28.6427 93.3417 28.7876 93.4381 29.0773L95.9494 36.7068L98.2185 29.1739C98.2673 29.0773 98.3155 28.9324 98.3637 28.8359C98.4119 28.691 98.5083 28.5944 98.6535 28.5461C98.7981 28.4495 98.9916 28.4013 99.2326 28.4013C99.5224 28.4013 99.7158 28.4495 99.8604 28.5461C100.006 28.6427 100.102 28.7393 100.15 28.8359C100.198 28.9324 100.247 29.029 100.295 29.1256L102.565 36.7551L105.076 29.1256C105.172 28.8359 105.269 28.6427 105.365 28.5461C105.462 28.4013 105.607 28.3529 105.8 28.3047C105.993 28.3047 106.186 28.3047 106.428 28.4013C106.717 28.4979 106.911 28.5944 107.007 28.691C107.104 28.7876 107.2 28.9324 107.2 29.1256C107.2 29.3187 107.152 29.5118 107.055 29.7533L103.627 39.7972C103.579 39.8455 103.579 39.9421 103.482 40.0869C103.434 40.1835 103.337 40.3283 103.192 40.3767C103.048 40.4249 102.854 40.5215 102.613 40.5215C102.372 40.5215 102.178 40.4732 102.034 40.3767C101.888 40.2801 101.792 40.1352 101.696 40.0386C101.599 39.9421 101.599 39.7972 101.55 39.7489L99.1844 32.0711L96.8182 39.7489C96.8182 39.8455 96.77 39.9421 96.6736 40.0869C96.6254 40.2318 96.5284 40.3283 96.3838 40.4249C96.3838 40.5215 96.1904 40.5698 95.9012 40.5698Z" fill="#29398F"/>
<path d="M118.692 40.7629C117.871 40.7629 117.05 40.6181 116.326 40.2801C115.601 39.9421 114.974 39.5075 114.395 38.9763C113.815 38.3968 113.38 37.7691 113.091 36.9965C112.753 36.2722 112.607 35.4513 112.607 34.6304C112.607 33.7612 112.753 32.9403 113.091 32.1677C113.38 31.3951 113.815 30.7191 114.346 30.1396C114.877 29.5602 115.505 29.1256 116.229 28.7876C116.953 28.4495 117.678 28.3047 118.499 28.3047C119.368 28.3047 120.141 28.4495 120.865 28.7876C121.589 29.1256 122.217 29.5602 122.797 30.1396C123.328 30.7191 123.762 31.3951 124.1 32.1194C124.438 32.892 124.583 33.6646 124.583 34.5338C124.583 35.403 124.438 36.1756 124.149 36.9482C123.859 37.7208 123.424 38.3486 122.893 38.928C122.362 39.5075 121.734 39.9421 121.01 40.2801C120.285 40.6181 119.513 40.7629 118.692 40.7629ZM118.595 38.6383C119.127 38.6383 119.609 38.5417 120.093 38.3003C120.575 38.1071 120.961 37.8174 121.348 37.4311C121.686 37.0448 121.975 36.6102 122.169 36.1273C122.362 35.6444 122.459 35.1133 122.459 34.5338C122.459 33.9543 122.362 33.4232 122.169 32.9403C121.975 32.4574 121.686 32.0229 121.348 31.6365C121.01 31.2503 120.575 30.9605 120.141 30.7673C119.658 30.5742 119.175 30.4294 118.644 30.4294C118.113 30.4294 117.629 30.5259 117.147 30.7673C116.664 30.9605 116.277 31.2503 115.891 31.6365C115.553 32.0229 115.263 32.4574 115.071 32.9403C114.877 33.4232 114.781 33.9543 114.781 34.5338C114.781 35.1133 114.877 35.6444 115.071 36.1273C115.263 36.6102 115.553 37.0448 115.891 37.4311C116.229 37.8174 116.664 38.1071 117.099 38.3003C117.533 38.4934 118.065 38.6383 118.595 38.6383Z" fill="#29398F"/>
<path d="M126.995 40.6153C126.657 40.6153 126.463 40.567 126.318 40.4704C126.173 40.3738 126.077 40.229 126.029 40.0841C125.98 39.9393 125.98 39.7461 125.98 39.5529V29.4125C125.98 29.2194 125.98 29.0745 126.029 28.9296C126.077 28.7848 126.173 28.6399 126.318 28.5433C126.463 28.4468 126.705 28.3984 127.043 28.3984C127.381 28.3984 127.622 28.4468 127.767 28.495C127.912 28.5916 128.009 28.6882 128.153 28.833L133.996 37.042V29.4125C133.996 29.2194 134.045 29.0745 134.045 28.9296C134.093 28.7848 134.189 28.6399 134.334 28.5433C134.479 28.4468 134.721 28.3984 135.01 28.3984C135.348 28.3984 135.59 28.4468 135.735 28.5433C135.879 28.6399 135.976 28.7848 136.024 28.9296C136.073 29.0745 136.073 29.2676 136.073 29.4608V39.5047C136.073 39.6978 136.024 39.8427 135.976 40.0359C135.928 40.1807 135.831 40.3256 135.638 40.4221C135.493 40.5187 135.252 40.567 134.914 40.567C134.672 40.567 134.479 40.567 134.334 40.5187C134.189 40.4704 134.045 40.3738 133.948 40.229L128.105 32.1166V39.5529C128.105 39.7461 128.105 39.891 128.057 40.0841C128.009 40.229 127.912 40.3738 127.767 40.4704C127.574 40.567 127.333 40.6153 126.995 40.6153Z" fill="#29398F"/>
<path d="M65.4848 57.2793C65.1949 57.2793 64.9533 57.2311 64.8087 57.1345C64.6635 57.0379 64.5671 56.893 64.5189 56.7481C64.4707 56.6033 64.4707 56.4101 64.4707 56.217V46.1248C64.4707 45.9317 64.4707 45.7868 64.5189 45.5937C64.5671 45.4488 64.6635 45.3039 64.8087 45.2073C64.9533 45.1108 65.1949 45.0625 65.533 45.0625H68.8167C69.6856 45.0625 70.458 45.2073 71.1828 45.4971C71.9071 45.7868 72.5349 46.2214 73.0175 46.7526C73.549 47.2837 73.9352 47.9115 74.225 48.6841C74.5142 49.4084 74.6594 50.2293 74.6594 51.0985C74.6594 52.016 74.5142 52.8368 74.225 53.6095C73.9352 54.3821 73.549 55.0098 73.0175 55.5892C72.4861 56.1204 71.8589 56.555 71.1828 56.8447C70.5068 57.1345 69.6856 57.2793 68.8167 57.2793H65.4848ZM66.547 55.203H68.7685C69.4928 55.203 70.1688 55.0581 70.6996 54.7201C71.2792 54.3821 71.7137 53.9475 72.0035 53.3197C72.2933 52.7403 72.4861 52.016 72.4861 51.2433C72.4861 50.4224 72.3415 49.7464 72.0035 49.1186C71.7137 48.5392 71.2792 48.0563 70.6996 47.7183C70.1206 47.3803 69.4928 47.2355 68.7197 47.2355H66.4988V55.203H66.547Z" fill="#E01A84"/>
<path d="M77.4099 57.3262C77.0719 57.3262 76.8303 57.2779 76.6857 57.1813C76.5405 57.0848 76.4441 56.9399 76.3959 56.7951C76.3477 56.6502 76.3477 56.457 76.3477 56.2639V46.1717C76.3477 45.9786 76.3477 45.8337 76.3959 45.6406C76.4441 45.4957 76.5405 45.3508 76.6857 45.2542C76.8303 45.1577 77.0719 45.1094 77.4099 45.1094C77.7479 45.1094 77.9895 45.1577 78.1342 45.2542C78.2788 45.3508 78.3758 45.4957 78.424 45.6406C78.4722 45.7854 78.4722 45.9786 78.4722 46.1717V56.2639C78.4722 56.457 78.4722 56.6502 78.424 56.7951C78.3758 56.9399 78.2788 57.0848 78.1342 57.1813C77.9895 57.2779 77.7479 57.3262 77.4099 57.3262Z" fill="#E01A84"/>
<path d="M86.3356 57.3729C85.4661 57.3729 84.6455 57.228 83.9212 56.89C83.197 56.6003 82.5692 56.1657 82.0377 55.5862C81.5069 55.0068 81.0725 54.3307 80.7827 53.5582C80.4929 52.7855 80.3477 51.9163 80.3477 50.9989C80.3477 50.1297 80.4929 49.3088 80.7827 48.5845C81.0725 47.8602 81.5069 47.2324 82.0377 46.653C82.5692 46.1218 83.2452 45.6872 83.9694 45.3975C84.7419 45.1078 85.5631 44.9629 86.432 44.9629C86.8182 44.9629 87.205 45.0112 87.5912 45.0595C87.9774 45.1077 88.3637 45.2043 88.7499 45.3492C89.1361 45.4941 89.4259 45.6389 89.7157 45.8321C89.9573 45.9769 90.1502 46.1218 90.2954 46.2667C90.44 46.4115 90.5364 46.5564 90.5364 46.7496C90.5364 46.8461 90.5364 46.991 90.4882 47.0876C90.44 47.2324 90.3918 47.329 90.2954 47.4739C90.1502 47.667 90.0538 47.8119 89.8603 47.9085C89.7157 48.005 89.5711 48.0533 89.4259 48.0533C89.3295 48.0533 89.2331 48.005 89.1361 47.9568C89.0397 47.9085 88.8463 47.8119 88.6535 47.667C88.5083 47.5704 88.3155 47.4739 88.0739 47.3773C87.8322 47.2807 87.543 47.2324 87.2532 47.1358C86.9634 47.0876 86.6736 47.0393 86.3356 47.0393C85.5631 47.0393 84.8871 47.1842 84.2593 47.5222C83.6796 47.8602 83.197 48.2947 82.859 48.9225C82.521 49.502 82.3758 50.2263 82.3758 51.0472C82.3758 51.8681 82.5692 52.5924 82.859 53.2201C83.197 53.8479 83.6796 54.3307 84.2593 54.7171C84.8389 55.0551 85.5149 55.2482 86.2874 55.2482C86.5772 55.2482 86.8182 55.2483 87.108 55.1999C87.3978 55.1517 87.6394 55.1033 87.9292 55.0551C88.1703 55.0068 88.4119 54.9102 88.6535 54.8137V52.0129H86.191C86.0458 52.0129 85.9011 52.0129 85.7559 51.9647C85.6113 51.9163 85.5149 51.8681 85.4179 51.7232C85.3215 51.5783 85.3215 51.3852 85.3215 51.0955C85.3215 50.8058 85.3697 50.5643 85.4661 50.4678C85.5631 50.3228 85.6595 50.2746 85.8041 50.2263C85.9493 50.178 86.0939 50.178 86.2392 50.178H89.8121C90.102 50.178 90.3436 50.2263 90.4882 50.3228C90.6334 50.4194 90.7298 50.5643 90.778 50.7092C90.8262 50.854 90.8262 51.0472 90.8262 51.2403V55.2965C90.8262 55.5379 90.7298 55.7794 90.4882 56.0208C90.2472 56.2622 89.9573 56.5037 89.5223 56.6968C89.2331 56.8417 88.9433 56.9383 88.6053 57.0349C88.2673 57.1314 87.881 57.228 87.4942 57.2763C87.1562 57.3729 86.7218 57.3729 86.3356 57.3729Z" fill="#E01A84"/>
<path d="M93.9705 57.3262C93.6324 57.3262 93.3914 57.2779 93.2462 57.1813C93.1016 57.0848 93.0046 56.9399 92.9564 56.7951C92.9082 56.6502 92.9082 56.457 92.9082 56.2639V46.1717C92.9082 45.9786 92.9082 45.8337 92.9564 45.6406C93.0046 45.4957 93.1016 45.3508 93.2462 45.2542C93.3914 45.1577 93.6324 45.1094 93.9705 45.1094C94.3085 45.1094 94.5501 45.1577 94.6947 45.2542C94.8399 45.3508 94.9363 45.4957 94.9845 45.6406C95.0327 45.7854 95.0327 45.9786 95.0327 46.1717V56.2639C95.0327 56.457 95.0327 56.6502 94.9845 56.7951C94.9363 56.9399 94.8399 57.0848 94.6947 57.1813C94.5501 57.2779 94.3085 57.3262 93.9705 57.3262Z" fill="#E01A84"/>
<path d="M106.043 45.1094C106.235 45.1094 106.381 45.1094 106.525 45.1577C106.67 45.206 106.767 45.2542 106.863 45.3991C106.96 45.544 107.008 45.7371 107.008 46.0268C107.008 46.3166 106.96 46.5097 106.863 46.6546C106.767 46.7995 106.67 46.8477 106.525 46.896C106.381 46.9443 106.235 46.9443 106.043 46.9443H102.807V56.2639C102.807 56.457 102.807 56.6502 102.759 56.7951C102.711 56.9399 102.614 57.0848 102.469 57.1813C102.324 57.2779 102.083 57.3262 101.745 57.3262C101.455 57.3262 101.214 57.2779 101.069 57.1813C100.924 57.0848 100.827 56.9399 100.779 56.7951C100.731 56.6502 100.731 56.457 100.731 56.2639V46.9443H97.4958C97.3506 46.9443 97.1578 46.9443 97.0607 46.896C96.9161 46.8477 96.8197 46.7995 96.7227 46.6546C96.6263 46.5097 96.5781 46.3166 96.5781 46.0268C96.5781 45.7371 96.6263 45.544 96.7227 45.3991C96.8197 45.2542 96.9161 45.1577 97.0607 45.1577C97.206 45.1094 97.3506 45.1094 97.544 45.1094H106.043Z" fill="#E01A84"/>
<path d="M118.167 55.8293C118.263 56.0707 118.36 56.2639 118.36 56.4087C118.36 56.6019 118.312 56.7467 118.215 56.8433C118.118 56.9882 117.925 57.0848 117.684 57.2297C117.298 57.4228 117.008 57.4711 116.814 57.3745C116.622 57.2779 116.428 57.0848 116.235 56.6985L112.324 48.4895L108.461 56.6985C108.268 57.0365 108.074 57.2779 107.881 57.3745C107.688 57.4711 107.398 57.4228 107.012 57.2297C106.771 57.1331 106.626 56.9882 106.481 56.8433C106.384 56.6985 106.336 56.5536 106.336 56.3605C106.336 56.1673 106.433 55.9741 106.578 55.6844L111.358 45.6888C111.454 45.4957 111.6 45.3508 111.792 45.2542C111.986 45.1577 112.179 45.1094 112.372 45.1094C112.517 45.1094 112.662 45.1094 112.758 45.1577C112.855 45.206 113 45.2542 113.096 45.3508C113.193 45.4474 113.29 45.544 113.338 45.6888L118.167 55.8293ZM109.233 54.1392L110.054 52.3526H114.594L115.414 54.1392H109.233Z" fill="#E01A84"/>
<path d="M120.719 57.3262C120.38 57.3262 120.139 57.2779 119.994 57.1813C119.849 57.0848 119.753 56.9399 119.704 56.7951C119.656 56.6502 119.656 56.457 119.656 56.2639V46.1717C119.656 45.9786 119.656 45.7854 119.704 45.6406C119.753 45.4957 119.849 45.3508 119.994 45.2542C120.139 45.1577 120.38 45.1094 120.719 45.1094C121.057 45.1094 121.298 45.1577 121.443 45.2542C121.587 45.3508 121.684 45.4957 121.733 45.6406C121.781 45.7854 121.781 45.9786 121.781 46.1717V55.443H127.093C127.285 55.443 127.431 55.443 127.575 55.4913C127.72 55.5396 127.817 55.5878 127.913 55.7327C128.01 55.8776 128.058 56.0707 128.058 56.3605C128.058 56.6502 128.01 56.8433 127.913 56.9882C127.817 57.1331 127.72 57.2297 127.575 57.2297C127.431 57.2779 127.285 57.2779 127.093 57.2779H120.719V57.3262Z" fill="#E01A84"/>
<defs>
<linearGradient id="paint0_linear_5788_5574" x1="34.3193" y1="25.5835" x2="35.5017" y2="63.8924" gradientUnits="userSpaceOnUse">
<stop stop-color="#29398F"/>
<stop offset="1" stop-color="#E01A84"/>
</linearGradient>
<linearGradient id="paint1_linear_5788_5574" x1="21.0669" y1="25.99" x2="22.2491" y2="64.293" gradientUnits="userSpaceOnUse">
<stop stop-color="#29398F"/>
<stop offset="1" stop-color="#E01A84"/>
</linearGradient>
<linearGradient id="paint2_linear_5788_5574" x1="35.4538" y1="25.5449" x2="36.6361" y2="63.8515" gradientUnits="userSpaceOnUse">
<stop stop-color="#29398F"/>
<stop offset="1" stop-color="#E01A84"/>
</linearGradient>
<linearGradient id="paint3_linear_5788_5574" x1="42.2765" y1="25.3353" x2="43.4588" y2="63.6475" gradientUnits="userSpaceOnUse">
<stop stop-color="#29398F"/>
<stop offset="1" stop-color="#E01A84"/>
</linearGradient>
<linearGradient id="paint4_linear_5788_5574" x1="49.2683" y1="25.1202" x2="50.4505" y2="63.4205" gradientUnits="userSpaceOnUse">
<stop stop-color="#29398F"/>
<stop offset="1" stop-color="#E01A84"/>
</linearGradient>
<linearGradient id="paint5_linear_5788_5574" x1="24.0097" y1="25.8977" x2="25.1921" y2="64.207" gradientUnits="userSpaceOnUse">
<stop stop-color="#29398F"/>
<stop offset="1" stop-color="#E01A84"/>
</linearGradient>
<linearGradient id="paint6_linear_5788_5574" x1="31.6367" y1="25.6634" x2="32.819" y2="63.9717" gradientUnits="userSpaceOnUse">
<stop stop-color="#29398F"/>
<stop offset="1" stop-color="#E01A84"/>
</linearGradient>
<linearGradient id="paint7_linear_5788_5574" x1="38.7065" y1="25.448" x2="39.8888" y2="63.7567" gradientUnits="userSpaceOnUse">
<stop stop-color="#29398F"/>
<stop offset="1" stop-color="#E01A84"/>
</linearGradient>
<linearGradient id="paint8_linear_5788_5574" x1="48.8779" y1="25.127" x2="50.06" y2="63.4364" gradientUnits="userSpaceOnUse">
<stop stop-color="#29398F"/>
<stop offset="1" stop-color="#E01A84"/>
</linearGradient>
<linearGradient id="paint9_linear_5788_5574" x1="34.5207" y1="25.5765" x2="35.703" y2="63.8831" gradientUnits="userSpaceOnUse">
<stop stop-color="#29398F"/>
<stop offset="1" stop-color="#E01A84"/>
</linearGradient>
</defs>
</svg>
