<svg width="155" height="86" viewBox="0 0 155 86" fill="none" xmlns="http://www.w3.org/2000/svg">
<path d="M27.2291 33.0128C28.24 33.8089 28.9402 34.9705 29.1315 36.2515C29.2705 37.7554 29.0214 39.1713 28.0965 40.3971C27.7884 40.7481 27.4585 41.0625 27.0889 41.3474C27.3745 42.0021 28.0071 42.5102 28.5067 43.0046C29.1599 43.6675 29.1599 43.6675 29.3127 43.9735C28.9537 43.9921 28.5948 44.0033 28.2355 44.0133C28.1341 44.0186 28.0327 44.024 27.9282 44.0295C27.192 44.0448 27.192 44.0448 26.9103 43.8502C26.7665 43.6868 26.6498 43.5203 26.5329 43.3369C26.453 43.2329 26.3718 43.13 26.2891 43.0282C26.2496 42.9795 26.2101 42.9308 26.1695 42.8806C25.7804 42.4039 25.7804 42.4039 25.2349 42.169C24.9714 42.1932 24.7256 42.242 24.4681 42.3024C23.1508 42.4132 21.8699 42.0427 20.8163 41.2485C20.6205 41.0769 20.4387 40.899 20.2588 40.7107C20.2087 40.663 20.1585 40.6151 20.1068 40.5659C19.2293 39.671 18.9127 38.3401 18.8789 37.1247C18.9164 35.6754 19.424 34.4389 20.4127 33.3844C22.256 31.6606 25.2042 31.5556 27.2291 33.0128ZM21.7678 34.3444C21.713 34.395 21.6582 34.4457 21.6018 34.4979C20.8829 35.2303 20.6658 36.1399 20.636 37.1396C20.6477 38.263 20.9827 39.1667 21.7439 39.9883C22.4798 40.6543 23.3254 40.829 24.2878 40.8099C25.179 40.7427 25.9395 40.3894 26.5578 39.7409C27.3267 38.8147 27.4837 37.7425 27.4066 36.5726C27.2545 35.5725 26.8591 34.7375 26.0564 34.1056C24.7316 33.3027 22.9546 33.2371 21.7678 34.3444Z" fill="#FF0000"/>
<path d="M45.5186 34.8513C45.6743 34.9776 45.6743 34.9776 45.8332 35.1367C45.8593 34.8216 45.8856 34.5065 45.9126 34.1818C46.1889 34.1796 46.4652 34.1781 46.7415 34.1768C46.8598 34.1758 46.8598 34.1758 46.9806 34.1748C47.0555 34.1745 47.1305 34.1743 47.2078 34.174C47.312 34.1734 47.312 34.1734 47.4183 34.1727C47.5804 34.1818 47.5804 34.1818 47.6598 34.2613C47.6673 34.506 47.6698 34.7489 47.6688 34.9936C47.6688 35.0705 47.6688 35.1473 47.6688 35.2265C47.6688 35.4818 47.6682 35.7372 47.6675 35.9925C47.6674 36.169 47.6673 36.3455 47.6672 36.5221C47.6669 36.9877 47.6661 37.4533 47.6653 37.9189C47.6644 38.3937 47.6641 38.8684 47.6637 39.3431C47.6628 40.2753 47.6614 41.2075 47.6598 42.1398C47.0832 42.1398 46.5066 42.1398 45.9126 42.1398C45.8864 41.8246 45.8601 41.5095 45.8332 41.1848C45.7283 41.2833 45.6235 41.3818 45.5154 41.4832C44.729 42.1812 43.9184 42.3447 42.8875 42.3188C41.9406 42.2582 41.0751 41.8015 40.4326 41.1052C39.5565 39.955 39.3987 38.7677 39.4796 37.3649C39.5248 37.0537 39.5997 36.7804 39.7179 36.4896C39.7439 36.4232 39.77 36.3568 39.797 36.2885C40.2197 35.3372 40.96 34.6968 41.8851 34.2539C43.1156 33.7963 44.4938 34.0903 45.5186 34.8513ZM41.9416 36.1713C41.3778 36.7349 41.2049 37.3682 41.192 38.1508C41.2015 39.043 41.4426 39.661 42.0682 40.301C42.6041 40.7709 43.1145 40.8401 43.8182 40.8173C44.4334 40.7474 44.9463 40.4545 45.3566 39.9911C45.8905 39.2135 46.0306 38.391 45.8756 37.4619C45.6966 36.7741 45.2931 36.2623 44.7213 35.853C43.7461 35.3367 42.7988 35.5124 41.9416 36.1713Z" fill="#FF0000"/>
<path d="M116.686 34.7807C117.528 35.4609 118.066 36.3653 118.184 37.4463C118.225 38.4361 118.225 38.4361 118.104 38.7992C116.139 38.8254 114.173 38.8517 112.148 38.8787C112.404 39.7344 112.594 40.1753 113.339 40.6295C113.96 40.883 114.619 40.8629 115.242 40.6279C115.571 40.4692 115.818 40.2755 115.987 39.9424C116.119 39.7541 116.119 39.7541 116.314 39.7089C116.427 39.7121 116.427 39.7121 116.542 39.7153C116.664 39.7172 116.664 39.7172 116.789 39.7191C116.874 39.7225 116.96 39.7258 117.047 39.7293C117.133 39.731 117.219 39.7328 117.308 39.7347C117.521 39.7394 117.733 39.7459 117.945 39.7541C117.802 40.539 117.288 41.1727 116.675 41.664C115.601 42.3338 114.382 42.4829 113.151 42.2111C112.156 41.9167 111.326 41.3175 110.802 40.4094C110.222 39.1828 110.169 37.8639 110.56 36.5709C110.97 35.5107 111.6 34.829 112.625 34.3426C113.879 33.7932 115.592 33.9795 116.686 34.7807ZM112.582 36.2526C112.309 36.6256 112.148 36.9824 112.148 37.4463C113.563 37.4463 114.978 37.4463 116.437 37.4463C116.261 36.6562 116.054 36.2284 115.404 35.7751C114.483 35.2431 113.284 35.4813 112.582 36.2526Z" fill="#FF0000"/>
<path d="M128.268 31.4785C128.818 31.4785 129.368 31.4785 129.935 31.4785C129.962 32.634 129.988 33.7895 130.015 34.98C130.198 34.8224 130.382 34.6649 130.571 34.5025C130.788 34.3891 130.788 34.3891 130.983 34.3185C131.048 34.2942 131.113 34.2699 131.18 34.2449C131.241 34.2249 131.302 34.2048 131.365 34.1842C131.412 34.1687 131.459 34.1532 131.507 34.1373C132.429 33.9657 133.399 34.0641 134.199 34.5573C134.998 35.1317 135.377 35.8358 135.543 36.7932C135.602 37.2771 135.593 37.7619 135.59 38.2487C135.589 38.3617 135.589 38.4746 135.589 38.5875C135.588 38.8818 135.587 39.1759 135.585 39.4702C135.583 39.7716 135.583 40.0731 135.582 40.3745C135.58 40.9638 135.577 41.553 135.574 42.1422C134.997 42.1422 134.421 42.1422 133.827 42.1422C133.826 41.9913 133.825 41.8403 133.823 41.6848C133.819 41.1842 133.814 40.6836 133.808 40.183C133.805 39.8797 133.801 39.5765 133.799 39.2731C133.797 38.9801 133.794 38.687 133.79 38.3939C133.789 38.2825 133.788 38.171 133.787 38.0596C133.784 37.3489 133.752 36.8088 133.375 36.1936C132.946 35.7747 132.436 35.6098 131.842 35.6167C131.266 35.6588 130.809 35.8228 130.412 36.2533C129.938 36.9858 130.001 37.8897 129.99 38.7305C129.988 38.8284 129.987 38.9264 129.985 39.0272C129.98 39.3377 129.975 39.6482 129.97 39.9587C129.967 40.1702 129.963 40.3816 129.96 40.5931C129.951 41.1095 129.943 41.6258 129.935 42.1422C129.385 42.1422 128.835 42.1422 128.268 42.1422C128.268 38.6232 128.268 35.1042 128.268 31.4785Z" fill="#FF0000"/>
<path d="M71.8456 34.8322C72.6586 35.4494 73.1508 36.266 73.3534 37.2671C73.4667 38.099 73.4592 38.9665 73.1503 39.7537C73.1205 39.8312 73.0902 39.9086 73.0594 39.9884C72.5786 41.0751 71.7621 41.7107 70.6883 42.1411C69.696 42.5172 68.3977 42.3716 67.4432 41.9645C66.4891 41.4885 65.8141 40.7004 65.4615 39.694C65.1014 38.5473 65.2087 37.2504 65.6949 36.1627C66.1985 35.2274 66.9957 34.5916 67.983 34.2279C69.3126 33.8611 70.7072 34.0511 71.8456 34.8322ZM67.695 36.2121C67.1129 36.8217 66.9887 37.5649 66.9971 38.3782C67.0245 39.0631 67.2276 39.6989 67.6706 40.2312C68.2378 40.7288 68.7951 40.8261 69.5391 40.8128C70.2011 40.7539 70.7325 40.4121 71.1651 39.9129C71.6628 39.1093 71.7443 38.3045 71.6077 37.375C71.4482 36.7519 71.0797 36.2361 70.5592 35.8592C69.5813 35.3112 68.5065 35.4929 67.695 36.2121Z" fill="#FF0000"/>
<path d="M102.458 34.8219C103.366 35.4722 103.801 36.4209 104.027 37.4928C104.125 38.8505 103.887 40.0011 102.989 41.054C102.198 41.8886 101.23 42.2955 100.082 42.3257C99.0526 42.3353 98.2311 42.0945 97.3753 41.5066C97.2695 41.4377 97.2695 41.4377 97.1618 41.3673C96.3666 40.5921 95.9449 39.562 95.9221 38.4629C95.9132 37.174 96.1739 36.1393 97.0575 35.1651C98.4973 33.7882 100.845 33.7226 102.458 34.8219ZM98.249 36.2543C97.7026 36.9552 97.5675 37.7613 97.6301 38.6368C97.7369 39.3465 97.9917 40.0148 98.5778 40.4574C99.1668 40.8334 99.7827 40.8816 100.473 40.7904C101.159 40.5647 101.655 40.2147 101.998 39.5781C102.156 39.2441 102.269 38.933 102.299 38.5621C102.307 38.4781 102.307 38.4781 102.314 38.3924C102.353 37.6106 102.155 36.8916 101.649 36.2892C101.19 35.8254 100.685 35.5764 100.032 35.5307C99.3486 35.5568 98.7292 35.7572 98.249 36.2543Z" fill="#FF0000"/>
<path d="M30.661 34.1836C31.2113 34.1836 31.7617 34.1836 32.3288 34.1836C32.3299 34.3289 32.3311 34.4742 32.3323 34.6239C32.3364 35.1067 32.3416 35.5895 32.3475 36.0723C32.351 36.3647 32.3542 36.6571 32.3563 36.9495C32.3584 37.2323 32.3616 37.5151 32.3656 37.7978C32.3675 37.9569 32.3683 38.116 32.3691 38.2752C32.3802 38.9729 32.4386 39.5826 32.8152 40.1819C33.3338 40.6564 33.845 40.765 34.5404 40.739C35.0733 40.6755 35.4389 40.5088 35.7786 40.0874C36.2197 39.4766 36.1677 38.7671 36.1738 38.046C36.1753 37.9344 36.1768 37.8228 36.1785 37.7112C36.1825 37.4191 36.1857 37.127 36.1886 36.8348C36.1918 36.536 36.1959 36.2373 36.1999 35.9386C36.2075 35.3536 36.2142 34.7686 36.2203 34.1836C36.7707 34.1836 37.3211 34.1836 37.8881 34.1836C37.8881 36.8097 37.8881 39.4359 37.8881 42.1416C37.3378 42.1416 36.7874 42.1416 36.2203 42.1416C36.181 41.7871 36.181 41.7871 36.1409 41.4254C36.0656 41.4976 35.9902 41.5698 35.9126 41.6442C35.2114 42.2484 34.3337 42.3588 33.4407 42.3008C32.5543 42.1686 31.8221 41.8174 31.2538 41.1126C30.6588 40.27 30.6383 39.4106 30.6454 38.4113C30.6457 38.2891 30.646 38.1669 30.6461 38.0447C30.6467 37.7249 30.6483 37.4052 30.6501 37.0855C30.6517 36.7584 30.6524 36.4314 30.6532 36.1044C30.6549 35.4641 30.6577 34.8239 30.661 34.1836Z" fill="#FF0000"/>
<path d="M88.4247 34.6411C89.0837 35.1903 89.499 35.8 89.6708 36.6504C89.6778 36.8304 89.6802 37.0105 89.6797 37.1906C89.6797 37.2442 89.6797 37.2979 89.6797 37.353C89.6797 37.5296 89.6792 37.7061 89.6782 37.8827C89.6782 38.0054 89.6782 38.128 89.6782 38.2507C89.6778 38.573 89.6773 38.8954 89.6763 39.2177C89.6753 39.5469 89.6748 39.876 89.6748 40.2051C89.6738 40.8505 89.6723 41.496 89.6708 42.1415C89.1205 42.1415 88.5702 42.1415 88.003 42.1415C88.002 41.9966 88.0015 41.8517 88.0005 41.7024C87.998 41.2206 87.9936 40.7387 87.9881 40.2569C87.9851 39.9651 87.9826 39.6734 87.9812 39.3816C87.9802 39.0993 87.9772 38.8171 87.9737 38.5348C87.9717 38.3762 87.9717 38.2175 87.9717 38.0589C87.9613 37.3999 87.9225 36.6891 87.4646 36.173C87.0007 35.7511 86.5582 35.6241 85.9379 35.6159C85.3762 35.6726 84.9763 35.8634 84.5731 36.2674C84.1534 36.9202 84.1539 37.5991 84.1499 38.3567C84.1489 38.4664 84.1474 38.5759 84.1459 38.6855C84.142 38.9716 84.1395 39.2577 84.1375 39.5439C84.135 39.8368 84.1315 40.1297 84.128 40.4226C84.1211 40.9955 84.1161 41.5685 84.1112 42.1415C83.5609 42.1415 83.0105 42.1415 82.4434 42.1415C82.4434 39.5153 82.4434 36.8892 82.4434 34.1834C82.9942 34.1834 83.5445 34.1834 84.1112 34.1834C84.1375 34.4198 84.1638 34.6562 84.1906 34.8997C84.2388 34.8622 84.287 34.8248 84.3366 34.7862C85.5197 33.9054 87.1741 33.7657 88.4247 34.6411Z" fill="#FF0000"/>
<path d="M125.36 34.683C125.96 35.1419 126.426 35.6927 126.68 36.4138C126.683 36.5464 126.683 36.6791 126.68 36.8117C125.107 36.9428 125.107 36.9428 124.713 36.6457C124.581 36.4337 124.581 36.4337 124.475 36.2139C124.322 35.9046 124.131 35.8324 123.821 35.6976C123.218 35.5147 122.589 35.5666 122.018 35.826C121.514 36.1313 121.236 36.5628 121.08 37.1235C120.855 38.0858 120.88 39.1385 121.406 39.9999C121.715 40.4254 122.12 40.6737 122.63 40.7907C123.261 40.8652 123.816 40.7504 124.357 40.4177C124.538 40.2519 124.538 40.2519 124.609 40.0778C124.7 39.8854 124.782 39.7476 124.933 39.597C125.236 39.5171 125.522 39.5366 125.832 39.5572C125.913 39.5601 125.994 39.563 126.079 39.5659C126.28 39.5734 126.48 39.5839 126.68 39.597C126.624 40.1542 126.43 40.4926 126.125 40.9499C126.078 41.0205 126.033 41.091 125.986 41.1637C125.26 41.9104 124.305 42.3031 123.271 42.322C122.651 42.3243 122.104 42.291 121.518 42.064C121.42 42.0275 121.42 42.0275 121.319 41.9903C120.478 41.6276 119.836 40.9228 119.465 40.0935C118.997 38.7713 118.994 37.3729 119.57 36.0865C120.08 35.1249 120.884 34.5085 121.915 34.1856C123.043 33.8866 124.389 34.0463 125.36 34.683Z" fill="#FF0000"/>
<path d="M94.9917 31.0802C94.9937 31.304 94.9952 31.5278 94.9967 31.7517C94.9972 31.8155 94.9982 31.8794 94.9986 31.9452C94.9991 32.1078 94.9957 32.2704 94.9917 32.433C94.8318 32.593 94.5363 32.5813 94.3202 32.6165C94.0957 32.6779 93.9701 32.7525 93.8002 32.9105C93.7128 33.1744 93.6954 33.4043 93.6765 33.6815C93.6646 33.8472 93.6532 34.013 93.6418 34.1838C94.1131 34.1838 94.5849 34.1838 95.0712 34.1838C95.0712 34.6565 95.0712 35.1292 95.0712 35.6163C94.5993 35.6163 94.1275 35.6163 93.6418 35.6163C93.6418 37.7697 93.6418 39.9231 93.6418 42.1418C93.0651 42.1418 92.4885 42.1418 91.8945 42.1418C91.8945 39.9884 91.8945 37.835 91.8945 35.6163C91.5796 35.6163 91.2652 35.6163 90.9414 35.6163C90.9414 35.1435 90.9414 34.6709 90.9414 34.1838C91.2558 34.1838 91.5702 34.1838 91.8945 34.1838C91.891 34.0279 91.8875 33.872 91.8846 33.7113C91.888 32.9179 91.9948 32.3291 92.5297 31.7169C93.239 31.1038 94.0932 31.0421 94.9917 31.0802Z" fill="#FF0000"/>
<path d="M105.794 32.2744C106.37 32.2744 106.947 32.2744 107.541 32.2744C107.541 32.9047 107.541 33.5349 107.541 34.1843C108.17 34.1843 108.799 34.1843 109.447 34.1843C109.447 34.657 109.447 35.1297 109.447 35.6168C108.818 35.6168 108.189 35.6168 107.541 35.6168C107.544 36.2235 107.549 36.8301 107.556 37.4368C107.559 37.7185 107.561 38.0002 107.563 38.2819C107.564 38.6059 107.568 38.9298 107.572 39.2538C107.572 39.3548 107.572 39.4559 107.572 39.5601C107.574 39.654 107.576 39.748 107.577 39.8448C107.578 39.9275 107.579 40.0102 107.579 40.0955C107.631 40.3663 107.725 40.4611 107.938 40.6303C108.113 40.6804 108.113 40.6804 108.299 40.6788C108.4 40.6826 108.4 40.6826 108.502 40.6865C108.606 40.6882 108.606 40.6882 108.712 40.69C108.783 40.6924 108.853 40.6947 108.926 40.6971C109.1 40.7027 109.273 40.7065 109.447 40.7099C109.447 41.1826 109.447 41.6553 109.447 42.1423C109.116 42.1488 108.785 42.1535 108.454 42.1572C108.361 42.1592 108.268 42.1612 108.172 42.1633C107.443 42.1694 106.841 42.0806 106.27 41.5853C105.91 41.0179 105.783 40.4968 105.785 39.8268C105.785 39.7328 105.785 39.6388 105.785 39.542C105.785 39.3916 105.785 39.3916 105.786 39.2383C105.786 39.1347 105.786 39.0312 105.786 38.9245C105.787 38.6506 105.787 38.3766 105.788 38.1027C105.789 37.8226 105.79 37.5425 105.79 37.2624C105.791 36.7139 105.792 36.1653 105.794 35.6168C105.505 35.6168 105.217 35.6168 104.92 35.6168C104.92 35.144 104.92 34.6714 104.92 34.1843C105.208 34.1843 105.497 34.1843 105.794 34.1843C105.794 33.5541 105.794 32.9238 105.794 32.2744Z" fill="#FF0000"/>
<path d="M55.2832 32.2744C55.8335 32.2744 56.3838 32.2744 56.951 32.2744C56.951 32.9047 56.951 33.5349 56.951 34.1843C57.5748 34.1812 57.5748 34.1812 58.1981 34.1771C58.2756 34.1769 58.3526 34.1767 58.432 34.1765C58.5512 34.1759 58.5512 34.1759 58.6729 34.1753C58.8572 34.1843 58.8572 34.1843 58.9361 34.2639C58.9421 34.4919 58.9436 34.7174 58.9411 34.9453C58.9396 35.1669 58.9381 35.3884 58.9361 35.6168C58.281 35.6168 57.6259 35.6168 56.951 35.6168C56.9584 36.2427 56.9669 36.8686 56.9763 37.4945C56.9793 37.7074 56.9818 37.9203 56.9842 38.1332C56.9882 38.4394 56.9927 38.7456 56.9977 39.0517C56.9982 39.1467 56.9991 39.2418 57.0001 39.3397C57.0016 39.4288 57.0031 39.518 57.0051 39.6099C57.0061 39.6881 57.0071 39.7661 57.0081 39.8466C57.0329 40.1021 57.092 40.3134 57.1894 40.5507C57.3711 40.6419 57.4879 40.6448 57.691 40.6527C57.758 40.6556 57.8251 40.6586 57.8946 40.6617C58.0367 40.6673 58.1792 40.6729 58.3213 40.6784C58.3883 40.6814 58.4554 40.6844 58.5249 40.6875C58.5865 40.6899 58.6481 40.6923 58.7121 40.6948C58.8572 40.7099 58.8572 40.7099 58.9361 40.7894C58.9421 41.0173 58.9436 41.2431 58.9411 41.4709C58.9411 41.535 58.9406 41.5992 58.9401 41.6653C58.9391 41.8243 58.9381 41.9833 58.9361 42.1423C58.5954 42.1516 58.2547 42.1573 57.914 42.1622C57.8181 42.1649 57.7228 42.1675 57.6239 42.1703C56.9748 42.1773 56.356 42.1368 55.8464 41.6916C55.2335 41.0548 55.2499 40.3056 55.2598 39.4714C55.2603 39.3599 55.2608 39.2484 55.2608 39.1369C55.2618 38.8454 55.2643 38.554 55.2668 38.2625C55.2693 37.9643 55.2703 37.666 55.2713 37.3678C55.2737 36.7841 55.2782 36.2004 55.2832 35.6168C54.9688 35.6168 54.6539 35.6168 54.3301 35.6168C54.3301 35.144 54.3301 34.6714 54.3301 34.1843C54.6445 34.1843 54.9589 34.1843 55.2832 34.1843C55.2832 33.5541 55.2832 32.9238 55.2832 32.2744Z" fill="#FF0000"/>
<path d="M49.9628 32.2744C50.5132 32.2744 51.0635 32.2744 51.6307 32.2744C51.6307 32.9047 51.6307 33.5349 51.6307 34.1843C52.2545 34.1812 52.2545 34.1812 52.8778 34.1771C52.9553 34.1769 53.0322 34.1767 53.1117 34.1765C53.2309 34.1759 53.2309 34.1759 53.3526 34.1753C53.5368 34.1843 53.5368 34.1843 53.6163 34.2639C53.6218 34.4919 53.6233 34.7174 53.6213 34.9453C53.6193 35.1669 53.6178 35.3884 53.6163 35.6168C52.9607 35.6168 52.3056 35.6168 51.6307 35.6168C51.6381 36.2427 51.6466 36.8686 51.656 37.4945C51.659 37.7074 51.6614 37.9203 51.6639 38.1332C51.6679 38.4394 51.6724 38.7456 51.6773 39.0517C51.6778 39.1467 51.6788 39.2418 51.6798 39.3397C51.6813 39.4288 51.6833 39.518 51.6848 39.6099C51.6858 39.6881 51.6868 39.7661 51.6878 39.8466C51.7126 40.1021 51.7717 40.3134 51.8691 40.5507C52.0508 40.6419 52.168 40.6448 52.3707 40.6527C52.4377 40.6556 52.5048 40.6586 52.5743 40.6617C52.7164 40.6673 52.8589 40.6729 53.0009 40.6784C53.068 40.6814 53.135 40.6844 53.2046 40.6875C53.2662 40.6899 53.3278 40.6923 53.3918 40.6948C53.5368 40.7099 53.5368 40.7099 53.6163 40.7894C53.6218 41.0173 53.6233 41.2431 53.6213 41.4709C53.6208 41.535 53.6203 41.5992 53.6198 41.6653C53.6188 41.8243 53.6178 41.9833 53.6163 42.1423C53.2751 42.1516 52.9344 42.1573 52.5937 42.1622C52.4978 42.1649 52.4025 42.1675 52.3036 42.1703C51.6545 42.1773 51.0357 42.1368 50.526 41.6916C49.9133 41.0548 49.9297 40.3056 49.9395 39.4714C49.94 39.3599 49.9403 39.2484 49.9406 39.1369C49.9415 38.8454 49.9438 38.554 49.9464 38.2625C49.9489 37.9643 49.9499 37.666 49.9511 37.3678C49.9537 36.7841 49.9579 36.2004 49.9628 35.6168C49.6483 35.6168 49.3338 35.6168 49.0098 35.6168C49.0098 35.144 49.0098 34.6714 49.0098 34.1843C49.3243 34.1843 49.6387 34.1843 49.9628 34.1843C49.9628 33.5541 49.9628 32.9238 49.9628 32.2744Z" fill="#FF0000"/>
<path d="M78.6309 32.1152C79.1812 32.1152 79.7315 32.1152 80.2987 32.1152C80.3781 32.1948 80.3781 32.1948 80.3875 32.3599C80.3875 32.4699 80.3875 32.4699 80.3875 32.582C80.3875 32.6658 80.3875 32.7496 80.3875 32.836C80.3875 32.9287 80.3871 33.0214 80.3871 33.117C80.3871 33.214 80.3871 33.3111 80.3871 33.411C80.3871 33.6779 80.3866 33.9447 80.3861 34.2115C80.3856 34.4901 80.3856 34.7687 80.3851 35.0473C80.3851 35.5752 80.3846 36.1031 80.3836 36.6309C80.3826 37.2318 80.3821 37.8326 80.3821 38.4335C80.3811 39.6697 80.3796 40.906 80.3781 42.1423C79.8015 42.1423 79.2249 42.1423 78.6309 42.1423C78.6309 38.8333 78.6309 35.5244 78.6309 32.1152Z" fill="#FF0000"/>
<path d="M64.4155 34.1055C64.4155 34.6832 64.4155 35.261 64.4155 35.8562C64.2586 35.8644 64.1011 35.8726 63.9392 35.8811C63.384 35.9252 62.9822 36.0026 62.5247 36.3387C62.0564 36.9686 62.0757 37.735 62.0718 38.4905C62.0703 38.5953 62.0693 38.7001 62.0678 38.8082C62.0638 39.0842 62.0613 39.3602 62.0594 39.6363C62.0569 39.9191 62.0534 40.2018 62.0499 40.4846C62.043 41.0374 62.0375 41.5902 62.033 42.143C61.4827 42.143 60.9324 42.143 60.3652 42.143C60.3652 39.5169 60.3652 36.8908 60.3652 34.185C60.9155 34.185 61.4663 34.185 62.033 34.185C62.0594 34.4739 62.0857 34.7628 62.1125 35.0604C62.2123 34.9619 62.3126 34.8635 62.4155 34.762C63.0492 34.1996 63.5732 34.1055 64.4155 34.1055Z" fill="#FF0000"/>
<path d="M32.4523 47.7794C32.2276 47.9319 32.2035 48.3331 32.4041 48.4454C32.6128 48.5658 32.9819 48.3973 33.0461 48.1565C33.1424 47.7553 32.7973 47.5387 32.4523 47.7794Z" fill="black"/>
<path d="M38.607 47.8195C38.3261 48.1004 38.4385 48.4775 38.7996 48.4775C39.1928 48.4775 39.4094 48.1244 39.1928 47.8275C39.0483 47.6189 38.8156 47.6109 38.607 47.8195Z" fill="black"/>
<path d="M70.1431 47.8357C69.7656 48.0283 69.5168 48.3734 69.4289 48.8067C69.3807 49.0234 69.3326 49.0635 69.1155 49.0875C68.891 49.1116 68.8587 49.1437 68.8587 49.3524C68.8587 49.553 68.891 49.585 69.0678 49.585C69.3162 49.585 69.3246 49.3684 68.9551 51.4949L68.7227 52.7948H69.0276C69.3723 52.7948 69.3246 52.9232 69.6613 50.9894C69.934 49.4246 69.8541 49.585 70.3115 49.585C70.6 49.585 70.7043 49.553 70.7043 49.4727C70.7043 49.4085 70.7287 49.3042 70.7525 49.232C70.7927 49.1277 70.7366 49.1036 70.3914 49.1036C69.9822 49.1036 69.9822 49.1036 70.0304 48.8789C70.1108 48.5259 70.3433 48.269 70.6482 48.1888C70.905 48.1246 70.9452 48.0765 70.9452 47.8839C70.9452 47.6913 70.9134 47.6592 70.7207 47.6592C70.6 47.6592 70.3353 47.7394 70.1431 47.8357Z" fill="black"/>
<path d="M92.5474 47.787C92.3308 47.9394 92.3065 48.3406 92.5151 48.4449C92.9005 48.6455 93.3818 48.0598 93.0768 47.7548C92.9487 47.6264 92.7639 47.6345 92.5474 47.787Z" fill="black"/>
<path d="M47.2017 48.2376C47.1535 48.4703 46.9689 49.5134 46.7924 50.5486C46.6079 51.5838 46.4393 52.5146 46.4153 52.6109C46.3751 52.7794 46.3992 52.7954 46.7041 52.7954C46.8887 52.7954 47.0332 52.7633 47.0332 52.7313C47.0332 52.659 47.8195 48.1734 47.8677 47.9567C47.8917 47.8443 47.8436 47.8203 47.5948 47.8203C47.2819 47.8203 47.2819 47.8203 47.2017 48.2376Z" fill="black"/>
<path d="M27.5804 48.1485C27.5563 48.2127 27.3718 49.2157 27.1712 50.3873C26.9625 51.5589 26.778 52.578 26.7619 52.6502C26.7218 52.7786 26.8021 52.7946 27.7169 52.7946C28.3748 52.7946 28.8483 52.7545 29.1452 52.6662C30.3489 52.3212 31.1433 51.2459 31.1433 49.962C31.1433 49.3521 30.9507 48.8948 30.5495 48.5657C30.1242 48.2207 29.7871 48.1324 28.6397 48.0843C27.8131 48.0442 27.6045 48.0602 27.5804 48.1485ZM29.9155 48.8305C30.3248 49.1355 30.5013 49.4805 30.5013 49.9861C30.5013 50.7484 30.3087 51.2539 29.8273 51.7193C29.3378 52.1928 28.9847 52.3131 28.0538 52.3131H27.436L27.4841 52.0885C27.5563 51.7193 28.094 48.7102 28.094 48.654C28.094 48.6299 28.4551 48.6219 28.8884 48.638C29.5464 48.654 29.731 48.6942 29.9155 48.8305Z" fill="black"/>
<path d="M50.6206 48.1167C50.5885 48.1408 50.5645 48.2531 50.5645 48.3575C50.5645 48.534 50.5885 48.542 51.1664 48.542C51.5916 48.542 51.7684 48.5741 51.7684 48.6383C51.7684 48.7507 51.1583 52.3135 51.086 52.6104C51.0459 52.7789 51.07 52.7949 51.3671 52.7949C51.5434 52.7949 51.6879 52.7789 51.6879 52.7548C51.6879 52.7388 51.8483 51.7999 52.049 50.6765C52.2496 49.5451 52.4101 48.6062 52.4101 48.5821C52.4101 48.5581 52.6991 48.542 53.0438 48.542C53.5494 48.542 53.686 48.5179 53.7262 48.4136C53.8623 48.0605 53.8543 48.0605 52.2253 48.0605C51.3671 48.0605 50.6447 48.0846 50.6206 48.1167Z" fill="black"/>
<path d="M104.728 48.0841C104.728 48.1162 104.552 49.1433 104.327 50.3791C104.111 51.6148 103.926 52.666 103.926 52.7142C103.926 52.7704 104.046 52.7944 104.231 52.7784L104.528 52.7543L104.849 50.9087L105.587 50.8606C106.494 50.7963 106.791 50.7 107.136 50.363C107.633 49.8816 107.794 49.055 107.473 48.6297C107.152 48.2045 106.863 48.1081 105.755 48.0761C105.194 48.052 104.728 48.06 104.728 48.0841ZM106.694 48.6699C107.103 48.8303 107.08 49.697 106.654 50.0822C106.429 50.2908 106.365 50.3069 105.683 50.3069C104.969 50.3069 104.953 50.3069 104.993 50.1223C105.017 50.026 105.082 49.6488 105.138 49.2797L105.234 48.6217H105.9C106.261 48.6217 106.622 48.6458 106.694 48.6699Z" fill="black"/>
<path d="M40.3405 48.2048C40.3164 48.245 40.2763 48.4616 40.2442 48.6863C40.196 49.0956 40.188 49.1036 39.9232 49.1036C39.6744 49.1036 39.6504 49.1276 39.6504 49.3443C39.6504 49.5449 39.6825 49.585 39.851 49.585C39.9633 49.585 40.0516 49.6251 40.0516 49.6733C40.0516 49.7215 39.9553 50.2992 39.8429 50.9572C39.5541 52.5701 39.6584 52.7948 40.6454 52.7948C41.0948 52.7948 41.175 52.7306 41.175 52.3856C41.175 52.2572 41.1189 52.2331 40.7738 52.2331C40.4849 52.2331 40.3565 52.201 40.3244 52.1127C40.3004 52.0486 40.3726 51.4708 40.4849 50.8369C40.5973 50.1949 40.6935 49.6573 40.6935 49.6332C40.6935 49.6091 40.9102 49.585 41.167 49.585C41.5201 49.585 41.6485 49.5529 41.6886 49.4566C41.8089 49.1517 41.7528 49.1036 41.2633 49.1036H40.7979L40.8621 48.7585C40.9744 48.1728 40.9664 48.1406 40.6614 48.1406C40.509 48.1406 40.3645 48.1728 40.3405 48.2048Z" fill="black"/>
<path d="M90.1 48.253C90.0762 48.3091 90.0359 48.5258 90.0037 48.7264C89.9475 49.0634 89.9237 49.0955 89.6908 49.1196C89.4822 49.1356 89.434 49.1838 89.4181 49.3603C89.3938 49.5529 89.4181 49.585 89.5944 49.585C89.8512 49.585 89.8512 49.585 89.6024 51.0134C89.426 51.9923 89.4102 52.1929 89.4981 52.3775C89.6426 52.6744 89.9316 52.8028 90.4452 52.7788C90.8783 52.7547 90.8862 52.7466 90.9106 52.4899L90.9344 52.2331H90.5416C90.2604 52.2331 90.1239 52.1929 90.1 52.1127C90.0677 52.0485 90.1482 51.4547 90.2604 50.7967L90.469 49.5931L90.9587 49.569C91.4241 49.5449 91.448 49.5369 91.4723 49.3202C91.4961 49.1036 91.4961 49.1036 91.0467 49.1036H90.5897L90.702 48.1406H90.4209C90.2604 48.1406 90.1239 48.1888 90.1 48.253Z" fill="black"/>
<path d="M115.859 48.1968C115.835 48.2369 115.795 48.3894 115.762 48.5419C115.658 49.0715 115.642 49.1036 115.393 49.1036C115.249 49.1036 115.161 49.1437 115.161 49.2159C115.161 49.2801 115.137 49.3844 115.113 49.4566C115.073 49.561 115.121 49.585 115.313 49.585C115.449 49.585 115.562 49.5931 115.562 49.6091C115.562 49.6252 115.474 50.1387 115.361 50.7566C115.121 52.0967 115.113 52.3214 115.313 52.5621C115.434 52.7145 115.554 52.7547 116.019 52.7788L116.581 52.8108L116.629 52.5862C116.685 52.2652 116.645 52.2331 116.236 52.2331C115.979 52.2331 115.867 52.193 115.827 52.1047C115.787 51.9923 116.051 50.1387 116.172 49.7215C116.204 49.6091 116.308 49.585 116.693 49.585C117.046 49.585 117.167 49.5529 117.167 49.4727C117.167 49.4085 117.191 49.3042 117.215 49.2319C117.255 49.1196 117.191 49.1036 116.766 49.1036H116.268L116.316 48.8628C116.34 48.7264 116.389 48.5097 116.413 48.3814C116.453 48.1487 116.445 48.1406 116.172 48.1406C116.019 48.1406 115.875 48.1647 115.859 48.1968Z" fill="black"/>
<path d="M34.7554 49.143C34.274 49.2955 33.8006 49.7047 33.5117 50.2343C33.303 50.6115 33.271 50.7479 33.271 51.3176C33.271 51.9034 33.295 51.9917 33.5036 52.2645C34.0814 53.0188 35.2048 53.0509 35.9752 52.3287L36.1918 52.1281L36.1437 52.441C36.0474 53.091 35.8468 53.5404 35.5419 53.7811C34.9882 54.2305 34.0814 54.1502 33.7765 53.6286C33.6481 53.4039 33.5678 53.3558 33.3432 53.3558C33.0944 53.3558 33.0703 53.3799 33.0703 53.5966C33.0703 53.9657 33.4796 54.3749 34.0172 54.5274C34.9882 54.8163 36.0634 54.3428 36.4887 53.4521C36.593 53.2274 37.3233 49.48 37.3233 49.1671C37.3233 49.135 37.1789 49.1029 37.0023 49.1029C36.7375 49.1029 36.6813 49.1269 36.6813 49.2553C36.6813 49.6325 36.593 49.6726 36.3523 49.4238C35.9591 49.0387 35.4135 48.9424 34.7554 49.143ZM35.9431 49.7448C36.4807 50.0738 36.569 50.8522 36.1598 51.5584C35.6301 52.4571 34.3623 52.5694 33.9932 51.751C33.4555 50.5553 34.8758 49.0949 35.9431 49.7448Z" fill="black"/>
<path d="M43.3898 49.1508C42.2824 49.4959 41.5683 51.0686 42.0818 52.0717C42.5231 52.9624 43.7108 53.1309 44.5373 52.4167L44.8743 52.1359L44.8262 52.3606C44.7941 52.489 44.762 52.6414 44.7379 52.6896C44.7219 52.7618 44.8101 52.7939 45.0268 52.7939C45.2916 52.7939 45.3478 52.7618 45.3879 52.6093C45.4521 52.3044 45.9897 49.2712 45.9897 49.1829C45.9897 49.1428 45.8453 49.1027 45.6688 49.1027C45.3638 49.1027 45.3478 49.1187 45.3478 49.3354C45.3478 49.6323 45.2274 49.7206 45.115 49.5119C44.9947 49.3033 44.3928 49.0224 44.0558 49.0304C43.9034 49.0304 43.6065 49.0866 43.3898 49.1508ZM44.7459 49.8249C45.5725 50.6032 44.77 52.3124 43.5744 52.3124C42.3145 52.3044 42.1861 50.4107 43.4059 49.7446C43.8151 49.5199 44.465 49.5601 44.7459 49.8249Z" fill="black"/>
<path d="M55.6191 49.1508C55.4666 49.215 55.2337 49.3674 55.1056 49.4878L54.8726 49.7045L54.9287 49.3995L54.9849 49.1026H54.3591L54.0621 50.8038C53.8937 51.7427 53.7412 52.5772 53.7253 52.6494C53.6851 52.7698 53.7333 52.7939 54.0059 52.7939C54.1907 52.7939 54.3352 52.7698 54.3352 52.7457C54.3352 52.4488 54.7847 50.3705 54.8806 50.202C55.0415 49.9292 55.5148 49.6643 55.86 49.6643C56.0363 49.6643 56.1004 49.6242 56.1004 49.5199C56.1004 49.4477 56.1247 49.3033 56.1486 49.1989C56.2126 48.9823 56.0443 48.9662 55.6191 49.1508Z" fill="black"/>
<path d="M57.9456 49.095C56.766 49.456 56.0359 50.6998 56.3409 51.8313C56.6299 52.9146 58.106 53.2035 59.0288 52.3529L59.2295 52.1603L59.1813 52.4813L59.1252 52.8023L59.751 52.7541L60.048 51.1091C60.4334 48.9906 60.4334 49.0869 60.0559 49.1191C59.7753 49.1431 59.751 49.1672 59.7271 49.3999C59.6948 49.7048 59.6308 49.7289 59.4862 49.4962C59.2617 49.1431 58.4755 48.9344 57.9456 49.095ZM59.1172 49.8492C60.0162 50.6758 59.077 52.4331 57.8095 52.2887C56.9428 52.1924 56.6458 51.1893 57.2234 50.2745C57.5046 49.8332 57.9297 49.5925 58.4512 49.5844C58.772 49.5844 58.8763 49.6246 59.1172 49.8492Z" fill="black"/>
<path d="M62.6407 49.1508C62.4723 49.2149 62.2394 49.3433 62.1351 49.4477L61.9423 49.6242L61.9985 49.3594C62.0551 49.1026 62.0466 49.1026 61.7417 49.1026H61.4209L61.108 50.9241L60.7871 52.7537L61.0598 52.7778C61.2123 52.7938 61.3488 52.7858 61.3647 52.7698C61.3886 52.7537 61.4934 52.2161 61.6056 51.5822C61.7179 50.9482 61.8703 50.3223 61.9503 50.1859C62.4162 49.3834 63.7 49.3755 63.8441 50.1779C63.8922 50.3946 63.7318 51.51 63.5153 52.5691C63.4751 52.7858 63.483 52.7938 63.78 52.7938H64.0929L64.3179 51.51C64.6064 49.8409 64.5344 49.4878 63.8605 49.1749C63.4592 48.9983 63.0822 48.9903 62.6407 49.1508Z" fill="black"/>
<path d="M66.1791 49.1353C65.6978 49.3198 65.4733 49.5846 65.4331 50.042C65.377 50.5636 65.5294 50.7321 66.4602 51.1895C67.1182 51.5025 67.2146 51.5747 67.2384 51.7753C67.2707 52.0722 67.15 52.2086 66.7651 52.313C66.2675 52.4493 65.8423 52.2969 65.7216 51.9518C65.6337 51.7111 65.5855 51.671 65.3526 51.671C65.1281 51.671 65.0879 51.6951 65.0879 51.8716C65.0879 52.1846 65.2563 52.4654 65.5612 52.658C65.9784 52.9148 66.8371 52.9068 67.3105 52.6339C67.9283 52.2889 68.0649 51.5747 67.5836 51.1735C67.4629 51.0692 67.086 50.8605 66.7487 50.7161C66.2913 50.5155 66.115 50.3951 66.0827 50.2587C66.0027 49.9457 66.0827 49.7933 66.4041 49.6328C66.6926 49.4964 66.7487 49.4883 67.0457 49.5927C67.3025 49.6809 67.3909 49.7611 67.455 49.9618C67.5191 50.1945 67.5672 50.2266 67.7922 50.2266C67.9526 50.2266 68.0808 50.1784 68.1051 50.1062C68.1771 49.9217 67.8806 49.4001 67.5995 49.2396C67.2464 49.0389 66.5724 48.9908 66.1791 49.1353Z" fill="black"/>
<path d="M72.4305 49.1669C72.206 49.2471 71.909 49.3836 71.7724 49.4879C71.2028 49.8891 70.7776 50.9162 70.9057 51.5742C71.1143 52.6816 72.2219 53.1631 73.3771 52.6495C73.8748 52.4248 74.2041 52.1118 74.4286 51.6465C74.8378 50.8039 74.7738 50.0255 74.2438 49.4959C73.7784 49.0224 73.1606 48.9181 72.4305 49.1669ZM73.7387 49.857C74.0193 50.1218 74.0352 50.1539 74.0273 50.6434C74.0193 51.5742 73.4899 52.2242 72.6793 52.2964C71.8847 52.3606 71.4357 51.8872 71.54 51.0847C71.6681 50.1458 72.2378 49.5842 73.0563 49.5842C73.3771 49.5842 73.4819 49.6243 73.7387 49.857Z" fill="black"/>
<path d="M77.0442 49.1512C76.8917 49.2153 76.6592 49.3678 76.5306 49.4882L76.2982 49.7048L76.3543 49.3999L76.4104 49.103H75.7846L75.4717 50.9245L75.1504 52.7541L75.4236 52.7782C75.576 52.7942 75.7121 52.7862 75.7285 52.7702C75.7523 52.7541 75.8566 52.2405 75.9609 51.6387C76.0652 51.0369 76.2177 50.411 76.2902 50.2585C76.4427 49.9456 76.9001 49.6647 77.2691 49.6647C77.4698 49.6647 77.5095 49.6246 77.5577 49.4159C77.5821 49.2795 77.6059 49.1351 77.6059 49.095C77.6059 48.9906 77.3571 49.0147 77.0442 49.1512Z" fill="black"/>
<path d="M79.4513 49.1829C79.2591 49.2792 79.0341 49.4076 78.9621 49.4718C78.8498 49.5681 78.8414 49.5601 78.8736 49.3354C78.9059 49.0947 78.9059 49.0947 78.601 49.1188L78.296 49.1428L77.999 50.8279C77.8307 51.7588 77.6941 52.5773 77.6941 52.6575C77.6861 52.7779 77.7422 52.802 77.9831 52.7779L78.2796 52.7538L78.4723 51.6705C78.6809 50.4187 78.8816 49.9533 79.2908 49.7366C79.8928 49.4076 80.5991 49.6323 80.6954 50.1699C80.7272 50.3144 80.6552 50.9242 80.5429 51.5582C80.4302 52.1841 80.3343 52.7217 80.3343 52.7458C80.3343 52.7699 80.4704 52.7939 80.6393 52.7939H80.9358L81.1528 51.5742C81.2969 50.7878 81.4255 50.2742 81.5219 50.1459C81.9629 49.552 82.7253 49.3996 83.1509 49.8169C83.4395 50.1138 83.4395 50.2502 83.1827 51.6705C83.0705 52.2643 82.982 52.7618 82.982 52.7699C82.982 52.7859 83.1186 52.7939 83.287 52.7939H83.5919L83.8169 51.518C84.0573 50.1619 84.0573 49.8249 83.7846 49.4798C83.5761 49.215 83.1509 49.0225 82.7655 49.0225C82.3806 49.0225 81.6982 49.3354 81.4737 49.6163C81.3133 49.8249 81.3053 49.8249 81.2571 49.6644C81.0883 49.1348 80.1093 48.878 79.4513 49.1829Z" fill="black"/>
<path d="M86.192 49.1429C85.4217 49.3836 84.7795 50.2101 84.6916 51.0688C84.6271 51.6866 84.7155 52.0397 85.0363 52.3848C85.6144 53.0348 86.6897 53.0107 87.4039 52.3366L87.6204 52.144L87.5564 52.465L87.4998 52.794H87.8047C88.1017 52.794 88.1097 52.794 88.1901 52.3687C88.2944 51.8551 88.7598 49.2071 88.7598 49.1509C88.7598 49.1268 88.6153 49.1028 88.4389 49.1028C88.1578 49.1028 88.1181 49.1268 88.1181 49.2793C88.1181 49.6404 88.0054 49.6805 87.7565 49.4237C87.3796 49.0306 86.8581 48.9423 86.192 49.1429ZM87.3796 49.7447C87.7729 49.9854 87.9254 50.3947 87.8132 50.9404C87.6925 51.5261 87.4039 51.9354 86.9783 52.144C86.1195 52.5533 85.3095 52.1279 85.3095 51.2533C85.3095 50.0577 86.4811 49.1991 87.3796 49.7447Z" fill="black"/>
<path d="M94.8337 49.1592C94.3361 49.3277 93.8225 49.7851 93.5737 50.2746C93.4133 50.5875 93.373 50.7881 93.373 51.2777C93.373 51.7992 93.4053 51.9276 93.5901 52.2085C94.3281 53.3319 96.3342 52.9146 96.9441 51.5023C97.2008 50.9005 97.1527 50.0499 96.8477 49.6487C96.4305 49.103 95.5882 48.8944 94.8337 49.1592ZM96.1896 49.8573C96.4384 50.1061 96.4628 50.1703 96.4628 50.6277C96.4628 51.7992 95.4754 52.6017 94.5044 52.2325C93.8786 51.9999 93.7987 50.8042 94.3525 50.1382C94.6892 49.737 95.0021 49.5845 95.4918 49.5845C95.8688 49.5845 95.9492 49.6166 96.1896 49.8573Z" fill="black"/>
<path d="M99.4877 49.1434C99.3108 49.1996 99.0864 49.336 98.9741 49.4403L98.7655 49.6248L98.8052 49.36C98.8375 49.1113 98.8375 49.1033 98.5405 49.1033C98.2758 49.1033 98.2356 49.1273 98.1958 49.3199C98.1477 49.5606 97.5859 52.7303 97.5859 52.7704C97.5859 52.7865 97.722 52.7945 97.8909 52.7945H98.2038L98.3399 51.968C98.621 50.2989 98.7576 49.9699 99.287 49.6971C99.6401 49.5125 100.178 49.5526 100.426 49.7853C100.691 50.0341 100.699 50.4674 100.475 51.7112C100.266 52.8426 100.266 52.7945 100.587 52.7945C100.908 52.7945 100.892 52.8507 101.108 51.5748C101.397 49.9458 101.317 49.4965 100.675 49.1835C100.29 48.999 99.9207 48.9829 99.4877 49.1434Z" fill="black"/>
<path d="M109.383 49.1427C108.252 49.4958 107.521 51.0846 108.034 52.0716C108.492 52.9543 109.671 53.1309 110.49 52.4327L110.811 52.1519L110.771 52.4728L110.723 52.7938H111.011C111.212 52.7938 111.309 52.7537 111.341 52.6494C111.389 52.4809 111.951 49.2952 111.951 49.1828C111.951 49.1347 111.806 49.1026 111.63 49.1026C111.333 49.1026 111.309 49.1186 111.309 49.3273C111.309 49.6483 111.244 49.6723 111.02 49.4476C110.611 49.0384 110.065 48.9341 109.383 49.1427ZM110.506 49.6883C110.611 49.7445 110.787 49.913 110.891 50.0655C111.052 50.2982 111.076 50.4186 111.044 50.7556C110.955 51.6222 110.402 52.2241 109.64 52.2883C109.182 52.3284 108.933 52.2081 108.685 51.8389C108.267 51.221 108.621 50.1458 109.367 49.7445C109.704 49.568 110.217 49.5439 110.506 49.6883Z" fill="black"/>
<path d="M114.276 49.1508C114.123 49.215 113.891 49.3674 113.762 49.4878L113.53 49.7045L113.578 49.3995L113.626 49.1026H113.305C113.137 49.1026 112.992 49.1267 112.992 49.1588C112.992 49.231 112.455 52.2482 112.382 52.5692C112.342 52.7859 112.35 52.7939 112.663 52.7939C112.848 52.7939 112.992 52.7698 112.992 52.7297C112.992 52.4007 113.426 50.3865 113.53 50.202C113.706 49.9131 114.14 49.6643 114.493 49.6643C114.694 49.6643 114.758 49.6323 114.758 49.5199C114.758 49.4477 114.781 49.3033 114.806 49.1989C114.87 48.9823 114.701 48.9662 114.276 49.1508Z" fill="black"/>
<path d="M119.228 49.1436C119.052 49.1998 118.827 49.3362 118.715 49.4405L118.506 49.6251L118.555 49.3603C118.603 49.1035 118.603 49.1035 118.29 49.1035C118.113 49.1035 117.968 49.1276 117.968 49.1516C117.968 49.2078 117.431 52.225 117.359 52.57C117.319 52.7867 117.327 52.7947 117.632 52.7947H117.945L118.137 51.6954C118.242 51.0935 118.394 50.4516 118.49 50.275C118.707 49.8417 119.1 49.5849 119.549 49.5849C120.007 49.5849 120.199 49.6973 120.344 50.0343C120.448 50.2911 120.44 50.4195 120.256 51.4787C120.143 52.1207 120.055 52.6744 120.055 52.7225C120.055 52.7707 120.192 52.7947 120.352 52.7787L120.657 52.7546L120.865 51.4867C121.147 49.8497 121.082 49.5047 120.432 49.1918C120.031 48.9992 119.67 48.9831 119.228 49.1436Z" fill="black"/>
<path d="M123.201 49.1748C121.476 49.7686 121.139 52.3845 122.728 52.7857C123.217 52.9061 123.394 52.8981 123.899 52.7456C124.212 52.6574 124.437 52.5129 124.718 52.2321C124.934 52.0154 125.111 51.7987 125.111 51.7506C125.111 51.7105 124.967 51.6703 124.79 51.6703C124.541 51.6703 124.445 51.7105 124.349 51.8629C124.18 52.1197 123.755 52.3123 123.362 52.3123C122.728 52.3123 122.423 52.0635 122.326 51.4778L122.278 51.1889H123.771C125.416 51.1889 125.271 51.237 125.392 50.6512C125.512 50.0334 125.047 49.2871 124.429 49.1105C123.988 48.9902 123.699 49.0062 123.201 49.1748ZM124.373 49.7124C124.598 49.8649 124.79 50.234 124.79 50.5068V50.7074H122.383L122.471 50.4827C122.575 50.2179 122.824 49.929 123.145 49.7365C123.45 49.5439 124.124 49.5358 124.373 49.7124Z" fill="black"/>
<path d="M127.798 49.1186C127.67 49.1667 127.429 49.3272 127.268 49.4797L126.971 49.7606L127.036 49.4316L127.092 49.1025H126.787C126.49 49.1025 126.482 49.1025 126.402 49.5198C126.289 50.0976 125.832 52.6574 125.832 52.7296C125.832 52.7697 125.969 52.7938 126.137 52.7938H126.434L126.651 51.5901C126.923 50.0494 127.076 49.8087 127.862 49.6803C128.175 49.6241 128.199 49.6001 128.247 49.3192C128.303 48.9902 128.239 48.9661 127.798 49.1186Z" fill="black"/>
<path d="M32.1468 49.1998C32.0987 49.3442 31.5449 52.5701 31.5449 52.6985C31.5449 52.7707 31.6412 52.7948 31.8418 52.7787L32.1387 52.7546L32.4356 51.0695C32.6042 50.1387 32.7406 49.3202 32.7406 49.24C32.7486 49.1357 32.6844 49.1035 32.4678 49.1035C32.3073 49.1035 32.1709 49.1517 32.1468 49.1998Z" fill="black"/>
<path d="M38.3654 49.1436C38.3654 49.1918 37.8278 52.2331 37.7556 52.5701C37.7155 52.7868 37.7235 52.7948 38.0204 52.7948H38.3414L38.6383 51.0856C38.8068 50.1548 38.9592 49.3202 38.9753 49.2399C39.0154 49.1276 38.9673 49.1035 38.6945 49.1035C38.5099 49.1035 38.3654 49.1196 38.3654 49.1436Z" fill="black"/>
<path d="M92.2499 49.1995C92.2017 49.3519 91.6484 52.5376 91.6484 52.674C91.6484 52.8586 92.1858 52.8345 92.242 52.65C92.2901 52.4815 92.8519 49.2958 92.8519 49.1834C92.8519 49.063 92.2901 49.0871 92.2499 49.1995Z" fill="black"/>
</svg>
