<?xml version="1.0" encoding="utf-8"?>
<!-- Generator: Adobe Illustrator 23.0.3, SVG Export Plug-In . SVG Version: 6.00 Build 0)  -->
<svg version="1.1" id="Layer_1" xmlns="http://www.w3.org/2000/svg" xmlns:xlink="http://www.w3.org/1999/xlink" x="0px" y="0px"
	 viewBox="0 0 741 220" style="enable-background:new 0 0 741 220;" xml:space="preserve">
<style type="text/css">
	.st0{fill:#CE0000;}
	.st1{fill:#202A8C;}
</style>
<g>
	<g>
		<g>
			<g>
				<path class="st0" d="M159.82,141.65v-63.2h25.12c5.08,0,9.34,1.54,12.79,4.62c3.54,2.99,5.26,6.89,5.26,11.52
					c0,6.08-2.99,10.88-8.07,12.69c8.07,1.45,12.69,7.62,12.69,15.69c0,5.35-1.81,9.88-5.53,13.42c-3.63,3.54-8.16,5.26-13.69,5.26
					H159.82z M173.52,103.65h9.16c3.99,0,6.8-2.81,6.8-6.71c0-3.72-2.81-6.53-6.71-6.53h-9.25V103.65z M173.52,129.59h12.06
					c4.72,0,8.16-3.35,8.16-7.71s-3.45-7.44-8.25-7.44h-11.97V129.59z"/>
				<path class="st0" d="M221.84,76.72c4.26,0,7.71,3.35,7.71,7.71c0,4.26-3.45,7.62-7.71,7.62s-7.71-3.35-7.71-7.62
					C214.14,80.08,217.58,76.72,221.84,76.72z M215.13,141.65v-45.7h13.51v45.7H215.13z"/>
				<path class="st0" d="M279.06,101.66c4.99,4.62,7.44,10.34,7.44,17.14c0,6.8-2.45,12.51-7.44,17.23
					c-4.99,4.62-10.97,6.98-17.95,6.98c-7.07,0-13.06-2.36-18.04-6.98c-4.9-4.72-7.34-10.43-7.34-17.23c0-6.8,2.45-12.51,7.34-17.14
					c4.99-4.72,10.97-7.07,18.04-7.07C268.09,94.59,274.07,96.94,279.06,101.66z M252.67,127.32c2.27,2.27,5.08,3.45,8.43,3.45
					s6.17-1.18,8.43-3.45c2.27-2.36,3.45-5.17,3.45-8.52s-1.18-6.17-3.45-8.43c-2.27-2.36-5.08-3.54-8.43-3.54s-6.17,1.18-8.43,3.54
					c-2.27,2.27-3.45,5.08-3.45,8.43S250.41,125.05,252.67,127.32z"/>
				<path class="st1" d="M295.2,141.65v-63.2h11.7l21.67,32.37l21.67-32.37h11.7v63.2h-13.15v-38.54l-20.22,29.92l-20.31-29.92
					v38.54H295.2z"/>
				<path class="st1" d="M370.64,118.7c0-7.16,2.36-12.97,6.98-17.32c4.62-4.44,10.61-6.62,17.77-6.62c6.98,0,12.6,2.27,16.96,6.71
					c4.35,4.44,6.53,9.88,6.53,16.5c0,1.54-0.09,2.99-0.18,4.35h-34.55c0.27,5.44,4.99,8.98,12.15,8.98c4.26,0,7.98-1.45,11.15-4.44
					l7.89,7.53c-5.35,5.53-11.97,8.34-19.68,8.34c-7.53,0-13.51-2.18-18.14-6.44c-4.62-4.35-6.89-10.06-6.89-17.23V118.7z
					 M405.27,113.54c0-4.26-4.44-7.62-9.88-7.62c-5.89,0-10.7,3.35-11.06,7.62H405.27z"/>
				<path class="st1" d="M459.86,101.93V78.45h13.51v63.2h-13.51v-5.98c-1.36,3.99-6.71,6.8-13.6,6.8c-6.44,0-11.88-2.27-16.23-6.8
					c-4.26-4.62-6.44-10.25-6.44-16.87c0-6.62,2.18-12.24,6.44-16.77c4.35-4.62,9.79-6.89,16.23-6.89
					C453.15,95.13,458.5,97.94,459.86,101.93z M457.14,126.96c2.36-2.27,3.54-4.99,3.54-8.16c0-3.17-1.18-5.89-3.54-8.07
					c-2.27-2.27-5.08-3.35-8.43-3.35c-3.26,0-5.98,1.09-8.25,3.35c-2.27,2.18-3.35,4.9-3.35,8.07c0,3.17,1.09,5.89,3.35,8.16
					c2.27,2.18,4.99,3.26,8.25,3.26C452.06,130.22,454.87,129.13,457.14,126.96z"/>
				<path class="st1" d="M523.69,101.66c4.99,4.62,7.44,10.34,7.44,17.14c0,6.8-2.45,12.51-7.44,17.23
					c-4.99,4.62-10.97,6.98-17.95,6.98c-7.07,0-13.06-2.36-18.04-6.98c-4.9-4.72-7.34-10.43-7.34-17.23c0-6.8,2.45-12.51,7.34-17.14
					c4.99-4.72,10.97-7.07,18.04-7.07C512.72,94.59,518.71,96.94,523.69,101.66z M497.31,127.32c2.27,2.27,5.08,3.45,8.43,3.45
					c3.36,0,6.17-1.18,8.43-3.45c2.27-2.36,3.45-5.17,3.45-8.52s-1.18-6.17-3.45-8.43c-2.27-2.36-5.08-3.54-8.43-3.54
					c-3.35,0-6.17,1.18-8.43,3.54c-2.27,2.27-3.45,5.08-3.45,8.43S495.04,125.05,497.31,127.32z"/>
				<path class="st1" d="M538.2,141.65v-45.7h13.51v5.71c1.72-3.99,6.35-6.71,11.88-6.71c6.17,0,10.34,2.45,12.42,7.25
					c2.54-4.81,7.62-7.25,15.23-7.25c10.43,0,16.23,7.07,16.23,18.95v27.75h-13.51v-26.11c0-5.35-2.45-8.61-6.8-8.61
					c-4.44,0-7.62,3.72-7.62,9.07v25.66h-13.51v-26.11c0-5.35-2.45-8.61-6.8-8.61s-7.53,3.72-7.53,9.07v25.66H538.2z"/>
				<path class="st1" d="M622.8,76.72c4.26,0,7.71,3.35,7.71,7.71c0,4.26-3.45,7.62-7.71,7.62c-4.26,0-7.71-3.35-7.71-7.62
					C615.09,80.08,618.53,76.72,622.8,76.72z M616.09,141.65v-45.7h13.51v45.7H616.09z"/>
				<path class="st1" d="M680.92,103.02l-8.52,8.43c-2.99-3.17-6.44-4.72-10.52-4.72c-6.62,0-11.7,5.08-11.7,11.97
					s5.17,11.88,11.7,11.88c4.08,0,7.53-1.54,10.52-4.72l8.52,8.43c-5.17,5.71-11.52,8.52-19.04,8.52c-7.07,0-13.06-2.27-17.95-6.89
					c-4.81-4.62-7.25-10.34-7.25-17.23s2.45-12.6,7.25-17.23c4.9-4.62,10.88-6.98,17.95-6.98
					C669.4,94.49,675.75,97.31,680.92,103.02z"/>
				<path class="st1" d="M691.25,126.41c2.54,2.99,7.34,4.99,12.51,4.99c4.62,0,6.89-1.27,6.89-3.72c0-0.91-0.54-1.63-1.54-2.18
					c-1-0.54-2.81-1.18-5.53-1.81c-2.72-0.63-4.81-1.27-6.17-1.72c-6.98-2.45-10.52-6.62-10.52-12.69c0-4.62,1.72-8.25,5.17-10.79
					c3.45-2.63,7.62-3.9,12.6-3.9c6.44,0,11.61,1.99,15.69,5.89l-6.44,8.89c-2.45-2.27-5.71-3.35-9.61-3.35
					c-2.9,0-4.53,1.18-4.53,2.9c0,1.18,0.45,1.81,1.9,2.45c1.72,0.73,5.53,1.36,10.61,3.17c7.53,2.54,11.24,6.89,11.24,12.97
					c0,9.34-6.71,15.41-20.13,15.41c-8.89,0-15.51-2.72-19.95-8.16L691.25,126.41z"/>
			</g>
		</g>
		<g>
			<path class="st0" d="M96.85,76.43c-19.38,0-35.1,15.71-35.1,35.1c0,19.38,15.71,35.1,35.1,35.1s35.1-15.71,35.1-35.1
				C131.95,92.14,116.23,76.43,96.85,76.43z M104.76,123.91c-9.28,0-16.81-7.53-16.81-16.81c0-9.28,7.53-16.81,16.81-16.81
				c9.28,0,16.81,7.53,16.81,16.81C121.57,116.38,114.04,123.91,104.76,123.91z"/>
			<circle class="st0" cx="29.91" cy="36.4" r="11.53"/>
			<path class="st0" d="M32.62,51.37c0,0,9.31-3.16,11.95-11.17c0,0,4.89,21.64,29.88,39.94c0,0-3.18,1.82-6.76,6.1
				C67.7,86.24,56.98,65.98,32.62,51.37z"/>
			<circle class="st0" cx="20.43" cy="177.52" r="11.53"/>
			<path class="st0" d="M35.19,174.86c0,0-2.96-9.38-10.91-12.2c0,0,21.74-4.41,40.58-29c0,0,1.75,3.22,5.95,6.89
				C70.82,140.55,50.33,150.82,35.19,174.86z"/>
			<circle class="st0" cx="129.27" cy="14.3" r="11.53"/>
			<path class="st0" d="M117.24,22.84c0,0,7.5,7.8,15.91,5.23c0,0-16.5,17.31-19.86,48.11c0,0-3.17-1.84-8.66-2.81
				C104.63,73.38,116.76,51.24,117.24,22.84z"/>
			<circle class="st0" cx="137.1" cy="205.43" r="11.53"/>
			<path class="st0" d="M139.84,191c0,0-10.78-0.85-15.37,6.66c0,0,0.83-23.9-17.11-49.16c0,0,3.59-0.73,8.34-3.65
				C115.69,144.84,121.33,169.45,139.84,191z"/>
		</g>
	</g>
	<g>
		<g>
			<path class="st1" d="M480.63,169.85v-14.18h-4.81v-3.56h13.46v3.56h-4.73v14.18H480.63z"/>
			<path class="st1" d="M495.17,169.85v-17.74h12.12v3.56h-8.2v3.33h7.66v3.49h-7.66v3.79h8.37v3.56H495.17z"/>
			<path class="st1" d="M515.69,164.25c0.94,1.55,2.42,2.34,4.45,2.34c1.81,0,2.65-0.81,2.65-1.76c0-0.66-0.38-1.12-0.97-1.48
				c-0.33-0.23-1.04-0.53-1.53-0.66c-0.43-0.18-1.45-0.51-1.96-0.71c-2.77-1.02-4.3-2.47-4.3-5.14c0-1.53,0.56-2.75,1.71-3.64
				c1.15-0.92,2.55-1.37,4.2-1.37c2.57,0,4.53,0.97,5.9,2.9l-2.62,1.99c-0.71-0.92-1.78-1.37-3.18-1.37c-1.3,0-2.14,0.61-2.14,1.45
				c0,0.59,0.15,0.94,0.69,1.27c0.28,0.15,0.56,0.28,0.79,0.38l1.27,0.43c0.59,0.2,1.09,0.38,1.53,0.56
				c3.23,1.22,4.53,2.72,4.53,5.27c0,3.28-2.24,5.42-6.59,5.42c-3.59,0-6.08-1.6-7.28-3.92L515.69,164.25z"/>
			<path class="st1" d="M535.95,169.85v-14.18h-4.81v-3.56h13.46v3.56h-4.73v14.18H535.95z"/>
			<path class="st1" d="M551.69,164.25c0.94,1.55,2.42,2.34,4.45,2.34c1.81,0,2.65-0.81,2.65-1.76c0-0.66-0.38-1.12-0.97-1.48
				c-0.33-0.23-1.04-0.53-1.53-0.66c-0.43-0.18-1.45-0.51-1.96-0.71c-2.77-1.02-4.3-2.47-4.3-5.14c0-1.53,0.56-2.75,1.71-3.64
				c1.15-0.92,2.55-1.37,4.2-1.37c2.57,0,4.53,0.97,5.9,2.9l-2.62,1.99c-0.71-0.92-1.78-1.37-3.18-1.37c-1.3,0-2.14,0.61-2.14,1.45
				c0,0.59,0.15,0.94,0.69,1.27c0.28,0.15,0.56,0.28,0.79,0.38l1.27,0.43c0.59,0.2,1.09,0.38,1.53,0.56
				c3.23,1.22,4.53,2.72,4.53,5.27c0,3.28-2.24,5.42-6.59,5.42c-3.59,0-6.08-1.6-7.28-3.92L551.69,164.25z"/>
			<path class="st1" d="M582.49,169.85v-17.74h11.68v3.56h-7.76v3.64h7.08v3.49h-7.08v7.05H582.49z"/>
			<path class="st1" d="M602.43,154.51c1.86-1.78,4.1-2.67,6.72-2.67c2.62,0,4.86,0.89,6.69,2.67c1.86,1.78,2.77,3.95,2.77,6.52
				c0,2.57-0.92,4.76-2.75,6.54c-1.83,1.76-4.07,2.65-6.72,2.65c-2.62,0-4.86-0.89-6.72-2.65c-1.83-1.78-2.75-3.97-2.75-6.54
				C599.68,158.45,600.59,156.29,602.43,154.51z M605.2,165.04c1.07,1.07,2.39,1.6,3.94,1.6c1.55,0,2.85-0.53,3.92-1.63
				c1.09-1.09,1.63-2.44,1.63-4c0-1.55-0.53-2.88-1.6-3.97c-1.07-1.09-2.39-1.65-3.95-1.65c-1.55,0-2.88,0.56-3.94,1.65
				c-1.07,1.09-1.6,2.42-1.6,3.97C603.6,162.63,604.13,163.95,605.2,165.04z"/>
			<path class="st1" d="M625.06,169.85v-17.74h7.43c1.65,0,3.08,0.56,4.25,1.71c1.2,1.12,1.78,2.49,1.78,4.15
				c0,2.27-1.25,4.23-3.16,5.04l4.33,6.85h-4.43l-3.69-5.9h-0.05h-2.57v5.9H625.06z M628.95,160.49h3.11c1.53,0,2.55-0.97,2.55-2.47
				c0-1.35-0.97-2.34-2.21-2.34h-3.44V160.49z"/>
			<path class="st1" d="M659.53,169.85v-17.74h3.92v14.18h6.92v3.56H659.53z"/>
			<path class="st1" d="M676.69,169.85v-17.74h3.92v17.74H676.69z"/>
			<path class="st1" d="M688.02,169.85v-17.74h11.68v3.56h-7.76v3.64h7.08v3.49h-7.08v7.05H688.02z"/>
			<path class="st1" d="M706.25,169.85v-17.74h12.12v3.56h-8.2v3.33h7.66v3.49h-7.66v3.79h8.37v3.56H706.25z"/>
		</g>
	</g>
</g>
</svg>
