<svg width="50" height="50" viewBox="0 0 50 50" fill="none" xmlns="http://www.w3.org/2000/svg">
<foreignObject x="-100" y="-100" width="250" height="250"><div xmlns="http://www.w3.org/1999/xhtml" style="backdrop-filter:blur(50px);clip-path:url(#bgblur_0_2293_25315_clip_path);height:100%;width:100%"></div></foreignObject><g data-figma-bg-blur-radius="100">
<rect width="50" height="50" rx="25" fill="#F0E5FF"/>
<path d="M29.6827 23.9577C29.3243 23.9577 29.041 23.666 29.041 23.316C29.041 23.0077 28.7327 22.366 28.216 21.8077C27.7077 21.266 27.1493 20.9493 26.6827 20.9493C26.3243 20.9493 26.041 20.6577 26.041 20.3077C26.041 19.9577 26.3327 19.666 26.6827 19.666C27.516 19.666 28.391 20.116 29.1577 20.9243C29.8743 21.6827 30.3327 22.6243 30.3327 23.3077C30.3327 23.666 30.041 23.9577 29.6827 23.9577Z" fill="#6200EE"/>
<path d="M32.6924 23.9577C32.3341 23.9577 32.0508 23.666 32.0508 23.316C32.0508 20.3577 29.6424 17.9577 26.6924 17.9577C26.3341 17.9577 26.0508 17.666 26.0508 17.316C26.0508 16.966 26.3341 16.666 26.6841 16.666C30.3508 16.666 33.3341 19.6493 33.3341 23.316C33.3341 23.666 33.0424 23.9577 32.6924 23.9577Z" fill="#6200EE"/>
<path d="M24.2077 27.4577L22.666 28.9993C22.341 29.3243 21.8243 29.3243 21.491 29.0077C21.3993 28.916 21.3077 28.8327 21.216 28.741C20.3577 27.8743 19.5827 26.966 18.891 26.016C18.2077 25.066 17.6577 24.116 17.2577 23.1743C16.866 22.2243 16.666 21.316 16.666 20.4493C16.666 19.8827 16.766 19.341 16.966 18.841C17.166 18.3327 17.4827 17.866 17.9243 17.4493C18.4577 16.9243 19.041 16.666 19.6577 16.666C19.891 16.666 20.1243 16.716 20.3327 16.816C20.5493 16.916 20.741 17.066 20.891 17.2827L22.8243 20.0077C22.9743 20.216 23.0827 20.4077 23.1577 20.591C23.2327 20.766 23.2743 20.941 23.2743 21.0993C23.2743 21.2993 23.216 21.4993 23.0993 21.691C22.991 21.8827 22.8327 22.0827 22.6327 22.2827L21.9993 22.941C21.9077 23.0327 21.866 23.141 21.866 23.2743C21.866 23.341 21.8743 23.3993 21.891 23.466C21.916 23.5327 21.941 23.5827 21.9577 23.6327C22.1077 23.9077 22.366 24.266 22.7327 24.6993C23.1077 25.1327 23.5077 25.5743 23.941 26.016C24.0243 26.0993 24.116 26.1827 24.1993 26.266C24.5327 26.591 24.541 27.1243 24.2077 27.4577Z" fill="#6200EE"/>
<path d="M33.3083 30.2742C33.3083 30.5076 33.2667 30.7492 33.1833 30.9826C33.1583 31.0492 33.1333 31.1159 33.1 31.1826C32.9583 31.4826 32.775 31.7659 32.5333 32.0326C32.125 32.4826 31.675 32.8076 31.1667 33.0159C31.1583 33.0159 31.15 33.0242 31.1417 33.0242C30.65 33.2242 30.1167 33.3326 29.5417 33.3326C28.6917 33.3326 27.7833 33.1326 26.825 32.7242C25.8667 32.3159 24.9083 31.7659 23.9583 31.0742C23.6333 30.8326 23.3083 30.5909 23 30.3326L25.725 27.6076C25.9583 27.7826 26.1667 27.9159 26.3417 28.0076C26.3833 28.0242 26.4333 28.0492 26.4917 28.0742C26.5583 28.0992 26.625 28.1076 26.7 28.1076C26.8417 28.1076 26.95 28.0576 27.0417 27.9659L27.675 27.3409C27.8833 27.1326 28.0833 26.9742 28.275 26.8742C28.4667 26.7576 28.6583 26.6992 28.8667 26.6992C29.025 26.6992 29.1917 26.7326 29.375 26.8076C29.5583 26.8826 29.75 26.9909 29.9583 27.1326L32.7167 29.0909C32.9333 29.2409 33.0833 29.4159 33.175 29.6242C33.2583 29.8326 33.3083 30.0409 33.3083 30.2742Z" fill="#6200EE"/>
</g>
<defs>
<clipPath id="bgblur_0_2293_25315_clip_path" transform="translate(100 100)"><rect width="50" height="50" rx="25"/>
</clipPath></defs>
</svg>
